<svg xmlns="http://www.w3.org/2000/svg" xmlns:xlink="http://www.w3.org/1999/xlink" version="1.1" id="svg-edited-version" x="0px" y="0px" viewBox="0 0 595.275 595.275" enable-background="new 0 0 595.275 595.275" xml:space="preserve" class="injected-svg" data-src="https://preview.pixlr.com/images/svg/100/1/7471813142c0d248a8421d383767368e935b5d973716f1eba4b2355d2b28712c.svg">
<g>
	<rect fill="rgba(160, 109, 232, 1)" width="595.275" height="595.275" originalFill="#E0A39A"/>
	<g>
		<path fill="#F9E8D8" d="M273.725,177.749c0.566,0.364,1.103,0.361,1.7,0.507c-0.042-0.469-0.087-0.938-0.12-1.409    c-0.249-0.217-0.435-0.519-0.498-0.845c-0.112-0.581,0.076-1.183,0.359-1.703c-0.158-0.347-0.695-0.271-0.987-0.517    c-0.214-0.18-0.25-0.511-0.15-0.772c0.1-0.261,0.308-0.465,0.523-0.644c0.161-0.133,0.379-0.238,0.579-0.256    c-0.006-0.176-0.007-0.353-0.015-0.528c-1.678,1.151-2.558,2.805-2.57,4.787C272.805,176.914,273.184,177.401,273.725,177.749z" originalFill="#F9E8D8"/>
		<path fill="#F9E8D8" d="M352.648,262.03c-0.242-2.369-1.323-4.635-2.354-6.747c-1.714-3.507-3.432-7.022-5.53-10.312    c-5.732-8.987-10.911-18.222-16.093-27.583c-0.832-1.503-1.698-3.047-3.038-4.123c-1.114-0.895-2.481-1.403-3.822-1.897    c-1.262-0.465-2.535-0.868-3.812-1.25c-1.358,0.169-2.697,0.496-3.979,0.976c-1.439,0.539-2.855,1.277-4.393,1.319    c-0.346,0.01-0.689-0.021-1.029-0.077c-0.266-0.044-0.527-0.109-0.787-0.186c0.024,0.104,0.054,0.208,0.079,0.312    c0.924,3.83,2.102,7.598,3.563,11.256c0.229,0.575,0.512,1.155,0.812,1.737c0.095,0.183,0.191,0.366,0.291,0.549    c0.729-0.177,1.44-0.241,2.134-0.198c5.545,0.34,9.955,7.119,13.061,11.114c6.046,7.778,10.507,16.722,16.148,24.781    c-0.06,0.117-0.121,0.232-0.174,0.363c-2.767,6.845-6.32,13.37-10.562,19.413c-1.101,1.568-3.592,3.914-5.838,6.389    c-0.386-0.048-0.78-0.063-1.166-0.102c-4.373-0.435-7.937-4.158-12.32-4.427c-0.254-5.068-0.661-9.863-2.223-14.94    c-1.579-5.134-2.166-10.564-1.782-15.921c0.07-0.989,0.163-1.977,0.301-2.958c0.117-0.835,0.203-1.571,0.257-2.224    c-0.804,0.219-1.64,0.34-2.493,0.343c-0.581,0.002-1.172-0.008-1.767-0.035c-3.413-0.151-6.937-0.85-9.362-2.967    c-0.48-0.419-0.922-0.887-1.307-1.425c5.649-1.998,9.345-7.684,10.62-13.54c0.221-1.012,0.362-2.033,0.473-3.057    c0.125-1.156,0.2-2.316,0.213-3.481c0.038-3.46-0.351-6.95-0.778-10.402c-0.039-0.314-0.076-0.63-0.116-0.943    c-0.009-0.07-0.018-0.14-0.026-0.21c-0.012-0.095-0.023-0.191-0.035-0.287c-2.865-1.592-5.051-4.212-6.331-7.224    c-1.051-2.474-1.486-5.208-1.166-7.861c-0.01-0.977,0.034-1.954,0.125-2.927c-0.052,0.167-0.125,0.329-0.226,0.47    c-0.251,0.352-0.608,0.613-0.958,0.867c-0.576,0.418-1.151,0.836-1.728,1.254c-0.78,0.566-1.631,1.157-2.595,1.154    c-0.652-0.001-1.27-0.278-1.847-0.583c-1.116-0.589-2.167-1.302-3.127-2.122c-0.502-0.429-1.01-0.944-1.084-1.6    c0.006-0.004,0.013-0.006,0.019-0.01c1.84,1.533,3.918,3.424,6.472,3.042c0.707-0.105,1.366-0.41,2.015-0.711    c0.972-0.452,1.635-0.861,2.418-1.552c0.216-0.19,0.455-0.356,0.699-0.517c0.243-0.16,0.491-0.315,0.724-0.483    c0.959-0.693,1.745-1.527,2.423-2.445c0.786-1.065,1.424-2.246,1.986-3.477c0.05-0.112,0.106-0.228,0.158-0.34    c0.021-0.045,0.042-0.09,0.062-0.135c1.829-4.282,2.629-8.835,1.028-13.446c-1.466-4.221-4.628-7.825-8.622-9.828    c-2.24-1.123-5.232-1.876-6.381-4.299c-0.018-0.038-0.036-0.082-0.054-0.121c-0.583,0.353-1.243,0.624-1.914,0.913    c-3.543,1.526-6.436,4.503-7.857,8.09c-0.044,0.112-0.09,0.224-0.135,0.337c0.066,1.455-0.364,3.575-0.532,4.418    c-0.167,0.842-0.296,1.691-0.388,2.544c-0.245,2.271-0.199,4.567,0.086,6.833c0.806,1.614,1.22,3.426,2.067,5.073    c1.196,2.326,3.313,4.129,5.314,5.749c0.126,0.102,0.253,0.207,0.381,0.313c0.059,2.527-0.002,5.056-0.194,7.576    c-0.105,1.385-0.252,2.766-0.433,4.143c-0.525,0.143-1.071,0.321-1.625,0.52c-1.001,0.359-1.966,0.795-2.932,1.231    c-0.979,0.441-1.957,0.882-2.972,1.243c-2.169,0.769-4.372,1.381-6.576,2.004c-0.075,0.022-0.15,0.043-0.226,0.064    c-0.704,0.199-1.408,0.403-2.11,0.611c-1.342,0.398-2.68,0.819-4.006,1.307c-1.341,0.494-2.708,1.003-3.822,1.897    c-1.34,1.076-2.206,2.62-3.038,4.123c-4.211,7.606-8.078,15.573-12.695,22.937c-3.302,5.266-6.091,10.83-9.584,15.926    c-0.354,0.515-0.708,1.034-0.961,1.605c-0.066,0.151-0.103,0.311-0.155,0.467c-0.342,0.271-0.617,0.647-0.772,1.054    c-0.32,0.834-0.256,1.761-0.159,2.65c0.298,2.734,0.948,5.263,1.87,7.636c3.095,7.964,9.254,14.171,15.46,20.472    c1.738,1.764,3.507,3.552,5.67,4.755c0.913,0.508,1.893,0.889,2.894,1.103c1.502,1.359,3.432,2.277,5.254,1.583    c0.912-0.347,1.674-1.069,2.631-1.258c0.658-0.13,1.336,0.008,1.992,0.148c0.101,0.021,0.201,0.045,0.302,0.067    c0.002,0.301,0.008,0.601,0.017,0.896c0.693,20.852,8.183,40.239,15.911,58.867c0.468,1.128,0.936,2.253,1.404,3.376    c2.314,5.548,4.628,11.096,6.942,16.645c0.352,0.843,0.704,1.687,1.055,2.529c0.551,1.322,1.103,2.645,1.654,3.966    c0.221,0.53,0.448,1.063,0.68,1.594c-2.114,14.148-3.389,28.038-3.967,42.38c-0.474,11.757,3.149,23.45,4.611,35.311    c0.044,5.856-0.1,11.87-2.552,17.138c-0.284,0.609-0.598,1.206-0.843,1.832c-0.379,0.971-0.588,2-0.777,3.028    c-0.023,0.123-0.047,0.247-0.069,0.37c-0.261,1.437-0.523,2.874-0.785,4.311c-0.325,1.787-0.65,3.573-0.976,5.36    c-0.131,0.723-0.249,1.525,0.139,2.145c0.512,0.816,1.625,0.911,2.576,0.914c4.93,0.013,9.861-0.127,14.783-0.419    c1.54-2.253,1.217-5.302,0.529-7.957c-0.009-0.034-0.019-0.068-0.027-0.103c-0.013-0.047-0.025-0.095-0.038-0.143    c-0.684-2.577-1.606-5.19-1.22-7.823c0.034-0.236,0.082-0.472,0.132-0.706c0.266-1.232,0.678-2.453,0.506-3.692    c-0.187-1.334-1.023-2.462-1.584-3.682c-0.886-1.93-1.082-4.099-1.486-6.188c-0.211-1.088-0.505-2.193-0.959-3.2    c1.155-8.017,1.465-17.92,1.685-19.904c1.643-14.896,3.087-29.816,4.046-44.775c0.2-3.13,0.115-8.753-1.37-13.101    c-0.084-0.243-0.171-0.481-0.264-0.717c-0.061-0.154-0.124-0.305-0.188-0.455c-0.06-0.929-0.173-1.86-0.302-2.75    c-0.539-3.695-1.077-7.391-1.615-11.086c-1.87-12.832-3.74-25.664-5.61-38.496c-1.276-8.756-2.611-17.64-5.608-25.693    c-0.023,0.192-0.018,0.379,0.033,0.553c-2.475-8.484-10.113-13.443-18.738-14.521c-0.042-0.927-0.126-1.852-0.247-2.771    c1.913,0.768,3.881,1.398,5.884,1.883c1.741,0.422,3.507,0.741,5.284,0.952c4.565,0.541,9.219,0.383,13.734-0.485    c0.467-0.089,0.976-0.178,1.51-0.27c1.477-0.253,3.159-0.535,4.768-0.96c-0.176,1.841-0.189,3.696-0.051,5.541    c0.051,0.676,0.115,1.351,0.209,2.022c2.353-0.577,4.714-1.118,7.081-1.63c0.225-0.048,0.448-0.101,0.673-0.149    c0.656-0.14,1.334-0.278,1.992-0.148c0.958,0.189,1.719,0.911,2.631,1.258c1.822,0.694,3.752-0.224,5.254-1.583    c1.001-0.214,1.981-0.595,2.895-1.103c2.163-1.203,3.933-2.991,5.67-4.755c3.29-3.34,6.587-6.71,9.424-10.454    c1.118-1.476,4.169-5.807,6.075-9.983c0.169-0.371,0.325-0.739,0.474-1.105c0.021-0.014,0.044-0.018,0.064-0.032    c0.696-0.507,0.948-2.156,1.011-3.719c0.068-0.544,0.065-1.046,0.009-1.513C352.71,262.794,352.68,262.334,352.648,262.03z     M282.361,247.589c-0.673,0.035-1.344,0.05-2.001,0.048c-1.505-0.005-2.957-0.371-4.265-1.014    c-1.011-0.498-1.935-1.162-2.728-1.96c0.121,0.375,0.272,0.744,0.418,1.104c3.93,9.696,4.426,20.744,1.382,30.753    c-0.688,2.263-1.555,4.559-1.937,6.872c-4.151,0.51-7.606,3.955-11.808,4.373c-0.386,0.038-0.78,0.054-1.166,0.102    c-2.247-2.475-4.737-4.821-5.838-6.389c-4.241-6.042-7.795-12.568-10.562-19.413c-0.07-0.173-0.146-0.327-0.224-0.472    c2.139-3.764,4.87-7.292,7.137-11.01c2.846-4.666,5.703-9.34,9.062-13.661c3.408-4.385,7.439-11.07,13.397-9.001    c0.051,0.018,0.102,0.038,0.153,0.056c0.024,0.009,0.049,0.018,0.073,0.027c-0.649,1.59-1.238,3.202-1.585,4.867    c1.463-3.16,3.755-6.2,4.935-9.152c0.953-2.385,1.775-4.82,2.502-7.284c0.367-1.246,0.7-2.501,1.008-3.763    c0.093-0.383,0.203-0.761,0.291-1.146c0.051-0.222,0.094-0.446,0.143-0.668c0.274-1.247,0.531-2.497,0.747-3.756    c0.116-0.045,0.239-0.105,0.365-0.171c0.402-0.209,0.836-0.489,1.209-0.635c-0.229,1.83-0.458,3.66-0.687,5.49    c0,0,0,0.001,0,0.002c-0.045,0.363-0.089,0.728-0.134,1.091c-0.154,1.247-0.3,2.497-0.424,3.75    c-0.322,3.249-0.468,6.506-0.149,9.719c0.11,1.113,0.26,2.222,0.499,3.322c1.271,5.842,4.955,11.515,10.583,13.525    c0.012,0.004,0.024,0.01,0.036,0.015C290.516,246.401,286.378,247.382,282.361,247.589z" originalFill="#F9E8D8"/>
		<path fill="none" d="M312.797,226.455c1.504,2.687,3.423,5.45,4.361,8.316c0.503,1.537,0.724,3.103,0.446,4.702    c-0.526,3.036-2.507,5.578-5.127,6.983c-0.272,0.736-0.694,1.462-1.067,2.144c-0.68,1.243-1.192,2.542-1.575,3.877    c-0.384,5.357,0.203,10.787,1.782,15.921c1.562,5.077,1.969,9.872,2.223,14.94c4.384,0.27,7.947,3.993,12.32,4.427    c0.386,0.038,0.78,0.054,1.166,0.102c2.246-2.475,4.737-4.821,5.838-6.389c4.241-6.042,7.795-12.568,10.562-19.413    c0.053-0.131,0.114-0.246,0.174-0.363c-5.642-8.059-10.103-17.002-16.148-24.781c-3.105-3.996-7.516-10.774-13.061-11.114    c-0.52,0.011-1.019,0.117-1.479,0.367C313.068,226.252,312.932,226.349,312.797,226.455z"/>
		<path fill="none" d="M303.789,186.234c0.021-0.048,0.043-0.096,0.063-0.144c-0.021,0.045-0.042,0.09-0.062,0.135    C303.79,186.229,303.789,186.231,303.789,186.234z"/>
		<path fill="none" d="M273.786,245.768c-0.146-0.36-0.297-0.73-0.418-1.104c-1.381-1.392-2.365-3.184-2.713-5.19    c-0.277-1.599-0.056-3.165,0.447-4.702c0.209-0.639,0.479-1.271,0.77-1.9c0.347-1.665,0.936-3.277,1.585-4.867    c-0.024-0.01-0.049-0.018-0.073-0.027c-0.005,0.021-0.011,0.04-0.016,0.06c-0.044-0.043-0.092-0.077-0.137-0.116    c-5.958-2.069-9.989,4.616-13.397,9.001c-3.359,4.321-6.216,8.995-9.062,13.661c-2.268,3.718-4.999,7.246-7.137,11.01    c0.079,0.145,0.154,0.299,0.224,0.472c2.767,6.845,6.321,13.37,10.562,19.413c1.101,1.568,3.591,3.914,5.838,6.389    c0.385-0.048,0.779-0.063,1.166-0.102c4.201-0.417,7.656-3.863,11.808-4.373c0.382-2.313,1.249-4.609,1.937-6.872    C278.212,266.511,277.715,255.463,273.786,245.768z"/>
		<path opacity="0.2" fill="rgba(0, 0, 0, 1)" d="M310.964,488.715c0.009,0.034,0.019,0.068,0.027,0.103c0.688,2.655,1.011,5.704-0.529,7.957    c-4.922,0.292-9.853,0.432-14.783,0.419c-0.951-0.003-2.063-0.098-2.576-0.914c-0.388-0.619-0.271-1.422-0.139-2.145    c0.325-1.787,0.65-3.573,0.976-5.36c-26.814,0.715-47.211,4.304-47.211,8.627c0,4.837,25.527,8.758,57.017,8.758    c31.49,0,57.019-3.921,57.019-8.758C360.765,492.94,339.044,489.261,310.964,488.715z" originalFill="#634E42"/>
		<path fill="#F4D9BF" d="M296.414,479.233c2.452-5.268,2.597-11.281,2.552-17.138c-1.462-11.86-5.085-23.554-4.611-35.311    c0.578-14.342,1.853-28.231,3.967-42.38c-0.232-0.53-0.458-1.063-0.68-1.594c-0.551-1.321-1.103-2.644-1.654-3.966    c0.391,5.025-1.131,10.178-2.685,15.05c-3.148,9.869-6.49,20.027-5.671,30.373c0.639,8.061,3.769,15.659,6.003,23.419    c2.235,7.759,3.549,16.283,0.615,23.797c-0.712,1.822-1.669,3.574-1.98,5.512c-0.488,3.047,0.597,5.363,2.524,7.098    c0.189-1.028,0.398-2.058,0.777-3.028C295.816,480.439,296.13,479.843,296.414,479.233z" originalFill="#F4D9BF"/>
		<path fill="#F4D9BF" d="M310.926,488.572c0.613-0.018,1.19-0.054,1.712-0.108c0.865-2.601,0.117-5.684-1.839-7.571    c-0.326-0.315-0.646-0.591-0.961-0.85c-0.05,0.234-0.098,0.47-0.132,0.706C309.319,483.382,310.242,485.995,310.926,488.572z" originalFill="#F4D9BF"/>
		<path fill="#F4D9BF" d="M309.264,296.224c-3.066,2.104-11.822,7.094-12.176,10.079c2.997,8.054,4.332,16.938,5.608,25.693    c1.87,12.832,3.74,25.664,5.61,38.496c0.131-1.841,0.403-3.673,0.805-5.472c0.92-4.117,2.466-8.055,3.784-12.058    c5.943-18.043,7.199-37.66,3.659-56.348c-2.367,0.512-4.729,1.053-7.081,1.63C309.379,297.574,309.314,296.899,309.264,296.224z" originalFill="#F4D9BF"/>
		<defs>
			<filter id="Adobe_OpacityMaskFilter" filterUnits="userSpaceOnUse" x="286.586" y="356.296" width="8.346" height="20.021">
				<feFlood style="flood-color:white;flood-opacity:1" result="back"/>
				<feBlend in="SourceGraphic" in2="back" mode="normal"/>
			</filter>
		</defs>
		<mask maskUnits="userSpaceOnUse" x="286.586" y="356.296" width="8.346" height="20.021" id="SVGID_1_">
			<g filter="url(#Adobe_OpacityMaskFilter)">
				<defs>
					<filter id="Adobe_OpacityMaskFilter_1_" filterUnits="userSpaceOnUse" x="286.586" y="356.296" width="8.346" height="20.021">
						<feFlood style="flood-color:white;flood-opacity:1" result="back"/>
						<feBlend in="SourceGraphic" in2="back" mode="normal"/>
					</filter>
				</defs>
				<mask maskUnits="userSpaceOnUse" x="286.586" y="356.296" width="8.346" height="20.021" id="SVGID_1_">
					<g filter="url(#Adobe_OpacityMaskFilter_1_)">
					</g>
				</mask>
				<linearGradient id="SVGID_2_" gradientUnits="userSpaceOnUse" x1="270.9321" y1="366.3066" x2="300.4008" y2="366.3066">
					<stop offset="0" style="stop-color:#F2F2F2"/>
					<stop offset="0.0399" style="stop-color:#EEEEEE"/>
					<stop offset="0.085" style="stop-color:#E0E0E0"/>
					<stop offset="0.1327" style="stop-color:#C9C9C9"/>
					<stop offset="0.182" style="stop-color:#AAAAAA"/>
					<stop offset="0.1871" style="stop-color:#A6A6A6"/>
					<stop offset="0.3878" style="stop-color:#767676"/>
					<stop offset="0.6779" style="stop-color:#373737"/>
					<stop offset="0.89" style="stop-color:#0F0F0F"/>
					<stop offset="1" style="stop-color:#000000"/>
				</linearGradient>
				<path mask="url(#SVGID_1_)" fill="url(#SVGID_2_)" d="M286.586,356.296c1.376,3.826,2.761,7.649,4.141,11.474      c1.047,2.902,2.247,5.292,3.796,7.921c0.078,0.132,0.221,0.349,0.409,0.626c-2.314-5.549-4.628-11.097-6.942-16.645      C287.522,358.549,287.054,357.424,286.586,356.296z" originalFill="url(#SVGID_2_)"/>
			</g>
		</mask>
		<linearGradient id="SVGID_3_" gradientUnits="userSpaceOnUse" x1="270.9321" y1="366.3066" x2="300.4008" y2="366.3066">
			<stop offset="0" style="stop-color:#F3D1BB"/>
			<stop offset="0.1871" style="stop-color:#F3D1BB"/>
			<stop offset="0.5167" style="stop-color:#F4DAC8"/>
			<stop offset="1" style="stop-color:#F4E3D6"/>
		</linearGradient>
		<path opacity="0.67" fill="url(#SVGID_3_)" d="M286.586,356.296c1.376,3.826,2.761,7.649,4.141,11.474    c1.047,2.902,2.247,5.292,3.796,7.921c0.078,0.132,0.221,0.349,0.409,0.626c-2.314-5.549-4.628-11.097-6.942-16.645    C287.522,358.549,287.054,357.424,286.586,356.296z" originalFill="url(#SVGID_3_)"/>
		<defs>
			<filter id="Adobe_OpacityMaskFilter_2_" filterUnits="userSpaceOnUse" x="270.937" y="293.886" width="29.463" height="88.032">
				<feFlood style="flood-color:white;flood-opacity:1" result="back"/>
				<feBlend in="SourceGraphic" in2="back" mode="normal"/>
			</filter>
		</defs>
		<mask maskUnits="userSpaceOnUse" x="270.937" y="293.886" width="29.463" height="88.032" id="SVGID_4_">
			<g filter="url(#Adobe_OpacityMaskFilter_2_)">
				<defs>
					
						<filter id="Adobe_OpacityMaskFilter_3_" filterUnits="userSpaceOnUse" x="270.937" y="293.886" width="29.463" height="88.032">
						<feFlood style="flood-color:white;flood-opacity:1" result="back"/>
						<feBlend in="SourceGraphic" in2="back" mode="normal"/>
					</filter>
				</defs>
				<mask maskUnits="userSpaceOnUse" x="270.937" y="293.886" width="29.463" height="88.032" id="SVGID_4_">
					<g filter="url(#Adobe_OpacityMaskFilter_3_)">
					</g>
				</mask>
				<linearGradient id="SVGID_5_" gradientUnits="userSpaceOnUse" x1="270.9365" y1="337.9023" x2="300.3994" y2="337.9023">
					<stop offset="0" style="stop-color:#F2F2F2"/>
					<stop offset="0.0399" style="stop-color:#EEEEEE"/>
					<stop offset="0.085" style="stop-color:#E0E0E0"/>
					<stop offset="0.1327" style="stop-color:#C9C9C9"/>
					<stop offset="0.182" style="stop-color:#AAAAAA"/>
					<stop offset="0.1871" style="stop-color:#A6A6A6"/>
					<stop offset="0.3878" style="stop-color:#767676"/>
					<stop offset="0.6779" style="stop-color:#373737"/>
					<stop offset="0.89" style="stop-color:#0F0F0F"/>
					<stop offset="1" style="stop-color:#000000"/>
				</linearGradient>
				<path mask="url(#SVGID_4_)" fill="url(#SVGID_5_)" d="M298.696,381.918c0.044-0.279,0.082-0.558,0.126-0.838      c0.185-1.171,0.35-0.596,1.33-0.992c1.075-8.301-1.559-16.871-3.976-25.021c-4.635-15.631-8.53-31.481-11.667-47.48      c-0.982-5.012-2.142-10.474-6.095-13.7c-0.004,1.458-0.102,2.916-0.303,4.36c-2.191-0.538-4.391-1.041-6.595-1.522      c-1.06,3.129-0.472,6.892,0.212,10.26c2.802,13.795,7.099,27.239,11.729,40.516c1.025,2.938,2.075,5.868,3.128,8.797      c0.468,1.128,0.936,2.253,1.404,3.376c2.314,5.548,4.628,11.096,6.942,16.645C295.801,377.595,297.646,380.181,298.696,381.918z      " originalFill="url(#SVGID_5_)"/>
			</g>
		</mask>
		<linearGradient id="SVGID_6_" gradientUnits="userSpaceOnUse" x1="270.9365" y1="337.9023" x2="300.3994" y2="337.9023">
			<stop offset="0" style="stop-color:#F3D1BB"/>
			<stop offset="0.1871" style="stop-color:#F3D1BB"/>
			<stop offset="0.5167" style="stop-color:#F4DAC8"/>
			<stop offset="1" style="stop-color:#F4E3D6"/>
		</linearGradient>
		<path opacity="0.67" fill="url(#SVGID_6_)" d="M298.696,381.918c0.044-0.279,0.082-0.558,0.126-0.838    c0.185-1.171,0.35-0.596,1.33-0.992c1.075-8.301-1.559-16.871-3.976-25.021c-4.635-15.631-8.53-31.481-11.667-47.48    c-0.982-5.012-2.142-10.474-6.095-13.7c-0.004,1.458-0.102,2.916-0.303,4.36c-2.191-0.538-4.391-1.041-6.595-1.522    c-1.06,3.129-0.472,6.892,0.212,10.26c2.802,13.795,7.099,27.239,11.729,40.516c1.025,2.938,2.075,5.868,3.128,8.797    c0.468,1.128,0.936,2.253,1.404,3.376c2.314,5.548,4.628,11.096,6.942,16.645C295.801,377.595,297.646,380.181,298.696,381.918z" originalFill="url(#SVGID_6_)"/>
		<path fill="#CA9E67" d="M303.632,186.566c-0.562,1.231-1.2,2.412-1.986,3.477c0.164-0.018,0.33-0.025,0.494-0.039    c0.279-0.762,0.582-1.508,0.933-2.218c0.253-0.513,0.491-1.031,0.717-1.552c0-0.003,0.001-0.006,0.001-0.009    C303.738,186.338,303.682,186.454,303.632,186.566z" originalFill="#CA9E67"/>
		<path fill="#F4D9BF" d="M297.8,193.488c-0.783,0.691-1.446,1.1-2.418,1.552c-0.648,0.301-1.308,0.606-2.015,0.711    c-2.554,0.382-4.632-1.509-6.472-3.042c-0.006,0.004-0.012,0.006-0.019,0.01c0.075,0.656,0.582,1.171,1.084,1.6    c0.96,0.82,2.011,1.533,3.127,2.122c0.577,0.305,1.195,0.582,1.847,0.583c0.963,0.002,1.815-0.588,2.595-1.154    c0.576-0.418,1.152-0.836,1.728-1.254c0.35-0.254,0.707-0.515,0.958-0.867c0.101-0.141,0.174-0.303,0.226-0.47    c0.032-0.101,0.05-0.204,0.058-0.308C298.255,193.132,298.016,193.297,297.8,193.488z" originalFill="#F4D9BF"/>
		<path fill="#F3D1BB" d="M274.029,173.01c-0.099,0.261-0.063,0.592,0.15,0.772c0.292,0.246,0.829,0.17,0.987,0.517    c-0.283,0.52-0.471,1.122-0.359,1.703c0.063,0.327,0.249,0.628,0.498,0.845c-0.007-0.105-0.021-0.21-0.027-0.316    c-0.095-1.472-0.092-2.949-0.147-4.42c-0.2,0.018-0.418,0.123-0.579,0.256C274.337,172.544,274.129,172.749,274.029,173.01z" originalFill="#F3D1BB"/>
		<path opacity="0.3" fill="#F3D1BB" d="M285.096,213.208c1.699,0.263,3.405,0.719,4.935,1.735c0.24,0.159,0.476,0.326,0.715,0.486    c0.16,0.107,0.319,0.215,0.485,0.304c-0.102-0.421-0.283-0.788-0.492-1.128c-0.384-0.625-0.9-1.124-1.466-1.439    c-0.873-0.486-1.83-0.63-2.771-0.77c-1.373-0.202-2.746-0.405-4.118-0.607c-0.045,0.363-0.089,0.728-0.134,1.091    C283.2,212.971,284.149,213.062,285.096,213.208z" originalFill="#F3D1BB"/>
		<path opacity="0.3" fill="#F3D1BB" d="M273.599,210.493c-0.148,0.53,0.399,0.901,0.819,1.002c1.814,0.435,3.63,0.871,5.463,1.126    c0.145,0.02,0.291,0.034,0.436,0.052c0.093-0.383,0.203-0.761,0.291-1.146C278.271,211.182,275.935,210.837,273.599,210.493z" originalFill="#F3D1BB"/>
		<defs>
			<filter id="Adobe_OpacityMaskFilter_4_" filterUnits="userSpaceOnUse" x="269.379" y="209.45" width="2.51" height="0.625">
				<feFlood style="flood-color:white;flood-opacity:1" result="back"/>
				<feBlend in="SourceGraphic" in2="back" mode="normal"/>
			</filter>
		</defs>
		<mask maskUnits="userSpaceOnUse" x="269.379" y="209.45" width="2.51" height="0.625" id="SVGID_7_">
			<g filter="url(#Adobe_OpacityMaskFilter_4_)">
				<defs>
					<filter id="Adobe_OpacityMaskFilter_5_" filterUnits="userSpaceOnUse" x="269.379" y="209.45" width="2.51" height="0.625">
						<feFlood style="flood-color:white;flood-opacity:1" result="back"/>
						<feBlend in="SourceGraphic" in2="back" mode="normal"/>
					</filter>
				</defs>
				<mask maskUnits="userSpaceOnUse" x="269.379" y="209.45" width="2.51" height="0.625" id="SVGID_7_">
					<g filter="url(#Adobe_OpacityMaskFilter_5_)">
					</g>
				</mask>
				<linearGradient id="SVGID_8_" gradientUnits="userSpaceOnUse" x1="269.3794" y1="209.7627" x2="281.8612" y2="209.7627">
					<stop offset="0" style="stop-color:#F2F2F2"/>
					<stop offset="0.0399" style="stop-color:#EEEEEE"/>
					<stop offset="0.085" style="stop-color:#E0E0E0"/>
					<stop offset="0.1327" style="stop-color:#C9C9C9"/>
					<stop offset="0.182" style="stop-color:#AAAAAA"/>
					<stop offset="0.1871" style="stop-color:#A6A6A6"/>
					<stop offset="0.3878" style="stop-color:#767676"/>
					<stop offset="0.6779" style="stop-color:#373737"/>
					<stop offset="0.89" style="stop-color:#0F0F0F"/>
					<stop offset="1" style="stop-color:#000000"/>
				</linearGradient>
				<path mask="url(#SVGID_7_)" fill="url(#SVGID_8_)" d="M269.379,210.075c0.133-0.009,0.266-0.006,0.399-0.015      c0.703-0.208,1.406-0.412,2.11-0.611C271.06,209.687,270.224,209.899,269.379,210.075z" originalFill="url(#SVGID_8_)"/>
			</g>
		</mask>
		<linearGradient id="SVGID_9_" gradientUnits="userSpaceOnUse" x1="269.3794" y1="209.7627" x2="281.8612" y2="209.7627">
			<stop offset="0" style="stop-color:#F3D1BB"/>
			<stop offset="0.1871" style="stop-color:#F3D1BB"/>
			<stop offset="0.5167" style="stop-color:#F4DAC8"/>
			<stop offset="1" style="stop-color:#F4E3D6"/>
		</linearGradient>
		<path opacity="0.67" fill="url(#SVGID_9_)" d="M269.379,210.075c0.133-0.009,0.266-0.006,0.399-0.015    c0.703-0.208,1.406-0.412,2.11-0.611C271.06,209.687,270.224,209.899,269.379,210.075z" originalFill="url(#SVGID_9_)"/>
		<defs>
			<filter id="Adobe_OpacityMaskFilter_6_" filterUnits="userSpaceOnUse" x="272.115" y="205.775" width="9.548" height="3.61">
				<feFlood style="flood-color:white;flood-opacity:1" result="back"/>
				<feBlend in="SourceGraphic" in2="back" mode="normal"/>
			</filter>
		</defs>
		<mask maskUnits="userSpaceOnUse" x="272.115" y="205.775" width="9.548" height="3.61" id="SVGID_10_">
			<g filter="url(#Adobe_OpacityMaskFilter_6_)">
				<defs>
					<filter id="Adobe_OpacityMaskFilter_7_" filterUnits="userSpaceOnUse" x="272.115" y="205.775" width="9.548" height="3.61">
						<feFlood style="flood-color:white;flood-opacity:1" result="back"/>
						<feBlend in="SourceGraphic" in2="back" mode="normal"/>
					</filter>
				</defs>
				<mask maskUnits="userSpaceOnUse" x="272.115" y="205.775" width="9.548" height="3.61" id="SVGID_10_">
					<g filter="url(#Adobe_OpacityMaskFilter_7_)">
					</g>
				</mask>
				<linearGradient id="SVGID_11_" gradientUnits="userSpaceOnUse" x1="269.3794" y1="207.5801" x2="281.862" y2="207.5801">
					<stop offset="0" style="stop-color:#F2F2F2"/>
					<stop offset="0.0399" style="stop-color:#EEEEEE"/>
					<stop offset="0.085" style="stop-color:#E0E0E0"/>
					<stop offset="0.1327" style="stop-color:#C9C9C9"/>
					<stop offset="0.182" style="stop-color:#AAAAAA"/>
					<stop offset="0.1871" style="stop-color:#A6A6A6"/>
					<stop offset="0.3878" style="stop-color:#767676"/>
					<stop offset="0.6779" style="stop-color:#373737"/>
					<stop offset="0.89" style="stop-color:#0F0F0F"/>
					<stop offset="1" style="stop-color:#000000"/>
				</linearGradient>
				<path mask="url(#SVGID_10_)" fill="url(#SVGID_11_)" d="M281.663,206.139c-0.22-0.271-0.606-0.396-0.962-0.355      c-0.424,0.048-0.806,0.269-1.177,0.479c-2.339,1.319-4.832,2.366-7.409,3.123c2.204-0.623,4.407-1.235,6.576-2.004      C279.706,207.021,280.684,206.58,281.663,206.139z" originalFill="url(#SVGID_11_)"/>
			</g>
		</mask>
		<linearGradient id="SVGID_12_" gradientUnits="userSpaceOnUse" x1="269.3794" y1="207.5801" x2="281.862" y2="207.5801">
			<stop offset="0" style="stop-color:#F3D1BB"/>
			<stop offset="0.1871" style="stop-color:#F3D1BB"/>
			<stop offset="0.5167" style="stop-color:#F4DAC8"/>
			<stop offset="1" style="stop-color:#F4E3D6"/>
		</linearGradient>
		<path opacity="0.67" fill="url(#SVGID_12_)" d="M281.663,206.139c-0.22-0.271-0.606-0.396-0.962-0.355    c-0.424,0.048-0.806,0.269-1.177,0.479c-2.339,1.319-4.832,2.366-7.409,3.123c2.204-0.623,4.407-1.235,6.576-2.004    C279.706,207.021,280.684,206.58,281.663,206.139z" originalFill="url(#SVGID_12_)"/>
		<defs>
			<filter id="Adobe_OpacityMaskFilter_8_" filterUnits="userSpaceOnUse" x="269.779" y="206.139" width="12.083" height="4.722">
				<feFlood style="flood-color:white;flood-opacity:1" result="back"/>
				<feBlend in="SourceGraphic" in2="back" mode="normal"/>
			</filter>
		</defs>
		<mask maskUnits="userSpaceOnUse" x="269.779" y="206.139" width="12.083" height="4.722" id="SVGID_13_">
			<g filter="url(#Adobe_OpacityMaskFilter_8_)">
				<defs>
					<filter id="Adobe_OpacityMaskFilter_9_" filterUnits="userSpaceOnUse" x="269.779" y="206.139" width="12.083" height="4.722">
						<feFlood style="flood-color:white;flood-opacity:1" result="back"/>
						<feBlend in="SourceGraphic" in2="back" mode="normal"/>
					</filter>
				</defs>
				<mask maskUnits="userSpaceOnUse" x="269.779" y="206.139" width="12.083" height="4.722" id="SVGID_13_">
					<g filter="url(#Adobe_OpacityMaskFilter_9_)">
					</g>
				</mask>
				<linearGradient id="SVGID_14_" gradientUnits="userSpaceOnUse" x1="269.3799" y1="208.5" x2="281.862" y2="208.5">
					<stop offset="0" style="stop-color:#F2F2F2"/>
					<stop offset="0.0399" style="stop-color:#EEEEEE"/>
					<stop offset="0.085" style="stop-color:#E0E0E0"/>
					<stop offset="0.1327" style="stop-color:#C9C9C9"/>
					<stop offset="0.182" style="stop-color:#AAAAAA"/>
					<stop offset="0.1871" style="stop-color:#A6A6A6"/>
					<stop offset="0.3878" style="stop-color:#767676"/>
					<stop offset="0.6779" style="stop-color:#373737"/>
					<stop offset="0.89" style="stop-color:#0F0F0F"/>
					<stop offset="1" style="stop-color:#000000"/>
				</linearGradient>
				<path mask="url(#SVGID_13_)" fill="url(#SVGID_14_)" d="M279.828,210.771c0.29,0.06,0.616,0.102,0.923,0.088      c0.274-1.247,0.531-2.497,0.747-3.756c0.116-0.045,0.239-0.105,0.365-0.171c0-0.006,0-0.013,0-0.02c0-0.208,0-0.422-0.084-0.612      c-0.027-0.062-0.074-0.11-0.115-0.161c-0.979,0.441-1.957,0.882-2.972,1.243c-2.169,0.769-4.372,1.381-6.576,2.004      c-0.075,0.022-0.15,0.043-0.226,0.064c-0.704,0.199-1.408,0.403-2.11,0.611C273.141,209.86,276.529,210.092,279.828,210.771z" originalFill="url(#SVGID_14_)"/>
			</g>
		</mask>
		<linearGradient id="SVGID_15_" gradientUnits="userSpaceOnUse" x1="269.3799" y1="208.5" x2="281.862" y2="208.5">
			<stop offset="0" style="stop-color:#F3D1BB"/>
			<stop offset="0.1871" style="stop-color:#F3D1BB"/>
			<stop offset="0.5167" style="stop-color:#F4DAC8"/>
			<stop offset="1" style="stop-color:#F4E3D6"/>
		</linearGradient>
		<path opacity="0.67" fill="url(#SVGID_15_)" d="M279.828,210.771c0.29,0.06,0.616,0.102,0.923,0.088    c0.274-1.247,0.531-2.497,0.747-3.756c0.116-0.045,0.239-0.105,0.365-0.171c0-0.006,0-0.013,0-0.02c0-0.208,0-0.422-0.084-0.612    c-0.027-0.062-0.074-0.11-0.115-0.161c-0.979,0.441-1.957,0.882-2.972,1.243c-2.169,0.769-4.372,1.381-6.576,2.004    c-0.075,0.022-0.15,0.043-0.226,0.064c-0.704,0.199-1.408,0.403-2.11,0.611C273.141,209.86,276.529,210.092,279.828,210.771z" originalFill="url(#SVGID_15_)"/>
		<defs>
			<filter id="Adobe_OpacityMaskFilter_10_" filterUnits="userSpaceOnUse" x="276.095" y="246.623" width="9.647" height="44.823">
				<feFlood style="flood-color:white;flood-opacity:1" result="back"/>
				<feBlend in="SourceGraphic" in2="back" mode="normal"/>
			</filter>
		</defs>
		<mask maskUnits="userSpaceOnUse" x="276.095" y="246.623" width="9.647" height="44.823" id="SVGID_16_">
			<g filter="url(#Adobe_OpacityMaskFilter_10_)">
				<defs>
					
						<filter id="Adobe_OpacityMaskFilter_11_" filterUnits="userSpaceOnUse" x="276.095" y="246.623" width="9.647" height="44.823">
						<feFlood style="flood-color:white;flood-opacity:1" result="back"/>
						<feBlend in="SourceGraphic" in2="back" mode="normal"/>
					</filter>
				</defs>
				<mask maskUnits="userSpaceOnUse" x="276.095" y="246.623" width="9.647" height="44.823" id="SVGID_16_">
					<g filter="url(#Adobe_OpacityMaskFilter_11_)">
					</g>
				</mask>
				<linearGradient id="SVGID_17_" gradientUnits="userSpaceOnUse" x1="275.7422" y1="269.0342" x2="285.7427" y2="269.0342">
					<stop offset="0" style="stop-color:#F2F2F2"/>
					<stop offset="0.0399" style="stop-color:#EEEEEE"/>
					<stop offset="0.085" style="stop-color:#E0E0E0"/>
					<stop offset="0.1327" style="stop-color:#C9C9C9"/>
					<stop offset="0.182" style="stop-color:#AAAAAA"/>
					<stop offset="0.1871" style="stop-color:#A6A6A6"/>
					<stop offset="0.3878" style="stop-color:#767676"/>
					<stop offset="0.6779" style="stop-color:#373737"/>
					<stop offset="0.89" style="stop-color:#0F0F0F"/>
					<stop offset="1" style="stop-color:#000000"/>
				</linearGradient>
				<path mask="url(#SVGID_16_)" fill="url(#SVGID_17_)" d="M284.179,290.663c1.273-10.072,1.77-20.242,1.486-30.389      c-0.097-3.488-0.311-7.073-1.775-10.24c-0.401-0.866-0.92-1.693-1.529-2.444c-0.673,0.035-1.344,0.05-2.001,0.048      c-1.505-0.005-2.957-0.371-4.265-1.014c0.272,0.678,0.655,1.347,1,1.976c3.489,6.379,2.699,14.179,1.369,21.327      c-0.864,4.644-1.908,9.391-2.039,14.078c0.106,0.086,0.206,0.18,0.297,0.286c0.426,0.496,0.613,1.149,0.769,1.784      c0.282,1.149,0.492,2.314,0.646,3.488c1.913,0.768,3.881,1.398,5.884,1.883C284.092,291.187,284.147,290.92,284.179,290.663z" originalFill="url(#SVGID_17_)"/>
			</g>
		</mask>
		<linearGradient id="SVGID_18_" gradientUnits="userSpaceOnUse" x1="275.7422" y1="269.0342" x2="285.7427" y2="269.0342">
			<stop offset="0" style="stop-color:#F3D1BB"/>
			<stop offset="0.1871" style="stop-color:#F3D1BB"/>
			<stop offset="0.5167" style="stop-color:#F4DAC8"/>
			<stop offset="1" style="stop-color:#F4E3D6"/>
		</linearGradient>
		<path opacity="0.67" fill="url(#SVGID_18_)" d="M284.179,290.663c1.273-10.072,1.77-20.242,1.486-30.389    c-0.097-3.488-0.311-7.073-1.775-10.24c-0.401-0.866-0.92-1.693-1.529-2.444c-0.673,0.035-1.344,0.05-2.001,0.048    c-1.505-0.005-2.957-0.371-4.265-1.014c0.272,0.678,0.655,1.347,1,1.976c3.489,6.379,2.699,14.179,1.369,21.327    c-0.864,4.644-1.908,9.391-2.039,14.078c0.106,0.086,0.206,0.18,0.297,0.286c0.426,0.496,0.613,1.149,0.769,1.784    c0.282,1.149,0.492,2.314,0.646,3.488c1.913,0.768,3.881,1.398,5.884,1.883C284.092,291.187,284.147,290.92,284.179,290.663z" originalFill="url(#SVGID_18_)"/>
		<defs>
			<filter id="Adobe_OpacityMaskFilter_12_" filterUnits="userSpaceOnUse" x="309.835" y="246.456" width="2.643" height="6.021">
				<feFlood style="flood-color:white;flood-opacity:1" result="back"/>
				<feBlend in="SourceGraphic" in2="back" mode="normal"/>
			</filter>
		</defs>
		<mask maskUnits="userSpaceOnUse" x="309.835" y="246.456" width="2.643" height="6.021" id="SVGID_19_">
			<g filter="url(#Adobe_OpacityMaskFilter_12_)">
				<defs>
					<filter id="Adobe_OpacityMaskFilter_13_" filterUnits="userSpaceOnUse" x="309.835" y="246.456" width="2.643" height="6.021">
						<feFlood style="flood-color:white;flood-opacity:1" result="back"/>
						<feBlend in="SourceGraphic" in2="back" mode="normal"/>
					</filter>
				</defs>
				<mask maskUnits="userSpaceOnUse" x="309.835" y="246.456" width="2.643" height="6.021" id="SVGID_19_">
					<g filter="url(#Adobe_OpacityMaskFilter_13_)">
					</g>
				</mask>
				
					<linearGradient id="SVGID_20_" gradientUnits="userSpaceOnUse" x1="6088.7393" y1="249.4658" x2="6098.7378" y2="249.4658" gradientTransform="matrix(-1 0 0 1 6401.502 0)">
					<stop offset="0" style="stop-color:#F2F2F2"/>
					<stop offset="0.0399" style="stop-color:#EEEEEE"/>
					<stop offset="0.085" style="stop-color:#E0E0E0"/>
					<stop offset="0.1327" style="stop-color:#C9C9C9"/>
					<stop offset="0.182" style="stop-color:#AAAAAA"/>
					<stop offset="0.1871" style="stop-color:#A6A6A6"/>
					<stop offset="0.3878" style="stop-color:#767676"/>
					<stop offset="0.6779" style="stop-color:#373737"/>
					<stop offset="0.89" style="stop-color:#0F0F0F"/>
					<stop offset="1" style="stop-color:#000000"/>
				</linearGradient>
				<path mask="url(#SVGID_19_)" fill="url(#SVGID_20_)" d="M309.835,252.477c0.383-1.336,0.896-2.634,1.575-3.877      c0.373-0.681,0.795-1.407,1.067-2.144c-0.659,0.354-1.356,0.641-2.085,0.839c-0.054,0.653-0.14,1.388-0.257,2.224      C309.998,250.5,309.905,251.487,309.835,252.477z" originalFill="url(#SVGID_20_)"/>
			</g>
		</mask>
		
			<linearGradient id="SVGID_21_" gradientUnits="userSpaceOnUse" x1="6088.7393" y1="249.4658" x2="6098.7378" y2="249.4658" gradientTransform="matrix(-1 0 0 1 6401.502 0)">
			<stop offset="0" style="stop-color:#F3D1BB"/>
			<stop offset="0.1871" style="stop-color:#F3D1BB"/>
			<stop offset="0.5167" style="stop-color:#F4DAC8"/>
			<stop offset="1" style="stop-color:#F4E3D6"/>
		</linearGradient>
		<path opacity="0.67" fill="url(#SVGID_21_)" d="M309.835,252.477c0.383-1.336,0.896-2.634,1.575-3.877    c0.373-0.681,0.795-1.407,1.067-2.144c-0.659,0.354-1.356,0.641-2.085,0.839c-0.054,0.653-0.14,1.388-0.257,2.224    C309.998,250.5,309.905,251.487,309.835,252.477z" originalFill="url(#SVGID_21_)"/>
		<defs>
			<filter id="Adobe_OpacityMaskFilter_14_" filterUnits="userSpaceOnUse" x="302.763" y="247.294" width="9.308" height="44.349">
				<feFlood style="flood-color:white;flood-opacity:1" result="back"/>
				<feBlend in="SourceGraphic" in2="back" mode="normal"/>
			</filter>
		</defs>
		<mask maskUnits="userSpaceOnUse" x="302.763" y="247.294" width="9.308" height="44.349" id="SVGID_22_">
			<g filter="url(#Adobe_OpacityMaskFilter_14_)">
				<defs>
					
						<filter id="Adobe_OpacityMaskFilter_15_" filterUnits="userSpaceOnUse" x="302.763" y="247.294" width="9.308" height="44.349">
						<feFlood style="flood-color:white;flood-opacity:1" result="back"/>
						<feBlend in="SourceGraphic" in2="back" mode="normal"/>
					</filter>
				</defs>
				<mask maskUnits="userSpaceOnUse" x="302.763" y="247.294" width="9.308" height="44.349" id="SVGID_22_">
					<g filter="url(#Adobe_OpacityMaskFilter_15_)">
					</g>
				</mask>
				
					<linearGradient id="SVGID_23_" gradientUnits="userSpaceOnUse" x1="6088.7383" y1="269.4688" x2="6098.7393" y2="269.4688" gradientTransform="matrix(-1 0 0 1 6401.502 0)">
					<stop offset="0" style="stop-color:#F2F2F2"/>
					<stop offset="0.0399" style="stop-color:#EEEEEE"/>
					<stop offset="0.085" style="stop-color:#E0E0E0"/>
					<stop offset="0.1327" style="stop-color:#C9C9C9"/>
					<stop offset="0.182" style="stop-color:#AAAAAA"/>
					<stop offset="0.1871" style="stop-color:#A6A6A6"/>
					<stop offset="0.3878" style="stop-color:#767676"/>
					<stop offset="0.6779" style="stop-color:#373737"/>
					<stop offset="0.89" style="stop-color:#0F0F0F"/>
					<stop offset="1" style="stop-color:#000000"/>
				</linearGradient>
				<path mask="url(#SVGID_22_)" fill="url(#SVGID_23_)" d="M309.835,252.477c0.07-0.989,0.163-1.977,0.301-2.958      c0.117-0.835,0.203-1.571,0.257-2.224c-0.804,0.219-1.64,0.34-2.493,0.343c-0.581,0.002-1.172-0.008-1.767-0.035      c-0.604,0.748-1.119,1.57-1.518,2.431c-1.465,3.167-1.678,6.752-1.775,10.24c-0.283,10.147,0.214,20.317,1.486,30.389      c0.041,0.324,0.11,0.666,0.221,0.98c1.477-0.253,3.159-0.535,4.768-0.96c0.149-1.552,0.408-3.094,0.779-4.608      c0.155-0.635,0.343-1.289,0.769-1.784c0.319-0.372,0.743-0.612,1.208-0.762c-0.186-4.532-1.193-9.116-2.028-13.603      C308.971,264.171,308.254,257.995,309.835,252.477z" originalFill="url(#SVGID_23_)"/>
			</g>
		</mask>
		
			<linearGradient id="SVGID_24_" gradientUnits="userSpaceOnUse" x1="6088.7383" y1="269.4688" x2="6098.7393" y2="269.4688" gradientTransform="matrix(-1 0 0 1 6401.502 0)">
			<stop offset="0" style="stop-color:#F3D1BB"/>
			<stop offset="0.1871" style="stop-color:#F3D1BB"/>
			<stop offset="0.5167" style="stop-color:#F4DAC8"/>
			<stop offset="1" style="stop-color:#F4E3D6"/>
		</linearGradient>
		<path opacity="0.67" fill="url(#SVGID_24_)" d="M309.835,252.477c0.07-0.989,0.163-1.977,0.301-2.958    c0.117-0.835,0.203-1.571,0.257-2.224c-0.804,0.219-1.64,0.34-2.493,0.343c-0.581,0.002-1.172-0.008-1.767-0.035    c-0.604,0.748-1.119,1.57-1.518,2.431c-1.465,3.167-1.678,6.752-1.775,10.24c-0.283,10.147,0.214,20.317,1.486,30.389    c0.041,0.324,0.11,0.666,0.221,0.98c1.477-0.253,3.159-0.535,4.768-0.96c0.149-1.552,0.408-3.094,0.779-4.608    c0.155-0.635,0.343-1.289,0.769-1.784c0.319-0.372,0.743-0.612,1.208-0.762c-0.186-4.532-1.193-9.116-2.028-13.603    C308.971,264.171,308.254,257.995,309.835,252.477z" originalFill="url(#SVGID_24_)"/>
		<path fill="rgba(0, 0, 0, 1)" d="M297.121,306.855c-0.051-0.174-0.056-0.36-0.033-0.553c0.354-2.985,9.11-7.975,12.176-10.079    c-0.139-1.844-0.125-3.7,0.051-5.541c-1.608,0.425-3.291,0.707-4.768,0.96c-0.534,0.092-1.043,0.18-1.51,0.27    c-4.515,0.869-9.168,1.026-13.734,0.485c-1.777-0.211-3.542-0.53-5.284-0.952c-2.003-0.485-3.972-1.115-5.884-1.883    c0.121,0.92,0.206,1.844,0.247,2.771C287.008,293.412,294.646,298.371,297.121,306.855z" originalFill="#FFFFFF"/>
		<path opacity="0.3" fill="#F3D1BB" d="M308.598,212.336c-0.266-0.044-0.527-0.109-0.787-0.186    c0.024,0.104,0.054,0.208,0.079,0.312C308.126,212.422,308.362,212.381,308.598,212.336z" originalFill="#F3D1BB"/>
		<path opacity="0.3" fill="#F3D1BB" d="M301.699,213.208c1.426-0.221,2.861-0.317,4.292-0.478c-0.039-0.314-0.076-0.63-0.116-0.943    c-0.009-0.07-0.018-0.14-0.026-0.21c-1.852,0.273-3.704,0.547-5.557,0.82c-0.941,0.139-1.897,0.283-2.771,0.77    c-0.232,0.129-0.457,0.292-0.67,0.476c-0.587,0.508-1.074,1.215-1.287,2.091c0.414-0.222,0.8-0.525,1.2-0.79    c0.025-0.017,0.053-0.027,0.078-0.044C298.352,213.918,300.028,213.467,301.699,213.208z" originalFill="#F3D1BB"/>
		<defs>
			<filter id="Adobe_OpacityMaskFilter_16_" filterUnits="userSpaceOnUse" x="281.676" y="224.551" width="11.838" height="18.645">
				<feFlood style="flood-color:white;flood-opacity:1" result="back"/>
				<feBlend in="SourceGraphic" in2="back" mode="normal"/>
			</filter>
		</defs>
		<mask maskUnits="userSpaceOnUse" x="281.676" y="224.551" width="11.838" height="18.645" id="SVGID_25_">
			<g filter="url(#Adobe_OpacityMaskFilter_16_)">
				<defs>
					
						<filter id="Adobe_OpacityMaskFilter_17_" filterUnits="userSpaceOnUse" x="281.676" y="224.551" width="11.838" height="18.645">
						<feFlood style="flood-color:white;flood-opacity:1" result="back"/>
						<feBlend in="SourceGraphic" in2="back" mode="normal"/>
					</filter>
				</defs>
				<mask maskUnits="userSpaceOnUse" x="281.676" y="224.551" width="11.838" height="18.645" id="SVGID_25_">
					<g filter="url(#Adobe_OpacityMaskFilter_17_)">
					</g>
				</mask>
				<linearGradient id="SVGID_26_" gradientUnits="userSpaceOnUse" x1="284.5796" y1="229.7866" x2="294.1632" y2="239.1393">
					<stop offset="0" style="stop-color:#000000"/>
					<stop offset="0.11" style="stop-color:#0F0F0F"/>
					<stop offset="0.3221" style="stop-color:#373737"/>
					<stop offset="0.6122" style="stop-color:#767676"/>
					<stop offset="0.8129" style="stop-color:#A6A6A6"/>
					<stop offset="0.8181" style="stop-color:#AAAAAA"/>
					<stop offset="0.8673" style="stop-color:#C9C9C9"/>
					<stop offset="0.915" style="stop-color:#E0E0E0"/>
					<stop offset="0.9601" style="stop-color:#EEEEEE"/>
					<stop offset="1" style="stop-color:#F2F2F2"/>
				</linearGradient>
				<path mask="url(#SVGID_25_)" fill="url(#SVGID_26_)" d="M293.44,241.262c0.095-0.727,0.083-1.478,0.052-2.213      c-0.102-2.397-0.215-4.852-1.133-7.069c-0.669-1.617-1.733-3.022-2.876-4.358c-0.307-0.358-0.618-0.712-0.93-1.062      c-0.623-0.699-1.28-1.418-2.147-1.773c-1.279-0.523-2.802-0.126-3.888,0.729c-0.312,0.246-0.586,0.531-0.841,0.834      c0.11,1.113,0.26,2.222,0.499,3.322c1.271,5.842,4.955,11.515,10.583,13.525c0.12-0.179,0.232-0.364,0.324-0.566      C293.28,242.196,293.378,241.733,293.44,241.262z" originalFill="url(#SVGID_26_)"/>
			</g>
		</mask>
		<linearGradient id="SVGID_27_" gradientUnits="userSpaceOnUse" x1="284.5796" y1="229.7866" x2="294.1632" y2="239.1393">
			<stop offset="0" style="stop-color:#F4E3D6"/>
			<stop offset="0.4833" style="stop-color:#F4DAC8"/>
			<stop offset="0.8129" style="stop-color:#F3D1BB"/>
			<stop offset="1" style="stop-color:#F3D1BB"/>
		</linearGradient>
		<path opacity="0.67" fill="url(#SVGID_27_)" d="M293.44,241.262c0.095-0.727,0.083-1.478,0.052-2.213    c-0.102-2.397-0.215-4.852-1.133-7.069c-0.669-1.617-1.733-3.022-2.876-4.358c-0.307-0.358-0.618-0.712-0.93-1.062    c-0.623-0.699-1.28-1.418-2.147-1.773c-1.279-0.523-2.802-0.126-3.888,0.729c-0.312,0.246-0.586,0.531-0.841,0.834    c0.11,1.113,0.26,2.222,0.499,3.322c1.271,5.842,4.955,11.515,10.583,13.525c0.12-0.179,0.232-0.364,0.324-0.566    C293.28,242.196,293.378,241.733,293.44,241.262z" originalFill="url(#SVGID_27_)"/>
		<defs>
			<filter id="Adobe_OpacityMaskFilter_18_" filterUnits="userSpaceOnUse" x="294.517" y="224.551" width="12.04" height="20.084">
				<feFlood style="flood-color:white;flood-opacity:1" result="back"/>
				<feBlend in="SourceGraphic" in2="back" mode="normal"/>
			</filter>
		</defs>
		<mask maskUnits="userSpaceOnUse" x="294.517" y="224.551" width="12.04" height="20.084" id="SVGID_28_">
			<g filter="url(#Adobe_OpacityMaskFilter_18_)">
				<defs>
					
						<filter id="Adobe_OpacityMaskFilter_19_" filterUnits="userSpaceOnUse" x="294.517" y="224.551" width="12.04" height="20.084">
						<feFlood style="flood-color:white;flood-opacity:1" result="back"/>
						<feBlend in="SourceGraphic" in2="back" mode="normal"/>
					</filter>
				</defs>
				<mask maskUnits="userSpaceOnUse" x="294.517" y="224.551" width="12.04" height="20.084" id="SVGID_28_">
					<g filter="url(#Adobe_OpacityMaskFilter_19_)">
					</g>
				</mask>
				
					<linearGradient id="SVGID_29_" gradientUnits="userSpaceOnUse" x1="6113.0801" y1="230.084" x2="6122.6641" y2="239.4372" gradientTransform="matrix(-1 0 0 1 6416.8203 0)">
					<stop offset="0" style="stop-color:#000000"/>
					<stop offset="0.11" style="stop-color:#0F0F0F"/>
					<stop offset="0.3221" style="stop-color:#373737"/>
					<stop offset="0.6122" style="stop-color:#767676"/>
					<stop offset="0.8129" style="stop-color:#A6A6A6"/>
					<stop offset="0.8181" style="stop-color:#AAAAAA"/>
					<stop offset="0.8673" style="stop-color:#C9C9C9"/>
					<stop offset="0.915" style="stop-color:#E0E0E0"/>
					<stop offset="0.9601" style="stop-color:#EEEEEE"/>
					<stop offset="1" style="stop-color:#F2F2F2"/>
				</linearGradient>
				<path mask="url(#SVGID_28_)" fill="url(#SVGID_29_)" d="M305.515,225.515c-1.086-0.855-2.609-1.252-3.888-0.729      c-0.867,0.355-1.524,1.074-2.147,1.773c-1.476,1.657-2.958,3.37-3.807,5.42c-0.917,2.217-1.031,4.671-1.133,7.069      c-0.033,0.771-0.045,1.56,0.067,2.319c0.064,0.434,0.159,0.86,0.342,1.262c0.387,0.852,1.045,1.49,1.822,2.006      c-0.48-0.419-0.922-0.887-1.307-1.425c5.649-1.998,9.345-7.684,10.62-13.54c0.221-1.012,0.362-2.033,0.473-3.057      C306.249,226.21,305.914,225.83,305.515,225.515z" originalFill="url(#SVGID_29_)"/>
			</g>
		</mask>
		
			<linearGradient id="SVGID_30_" gradientUnits="userSpaceOnUse" x1="6113.0801" y1="230.084" x2="6122.6641" y2="239.4372" gradientTransform="matrix(-1 0 0 1 6416.8203 0)">
			<stop offset="0" style="stop-color:#F4E3D6"/>
			<stop offset="0.4833" style="stop-color:#F4DAC8"/>
			<stop offset="0.8129" style="stop-color:#F3D1BB"/>
			<stop offset="1" style="stop-color:#F3D1BB"/>
		</linearGradient>
		<path opacity="0.67" fill="url(#SVGID_30_)" d="M305.515,225.515c-1.086-0.855-2.609-1.252-3.888-0.729    c-0.867,0.355-1.524,1.074-2.147,1.773c-1.476,1.657-2.958,3.37-3.807,5.42c-0.917,2.217-1.031,4.671-1.133,7.069    c-0.033,0.771-0.045,1.56,0.067,2.319c0.064,0.434,0.159,0.86,0.342,1.262c0.387,0.852,1.045,1.49,1.822,2.006    c-0.48-0.419-0.922-0.887-1.307-1.425c5.649-1.998,9.345-7.684,10.62-13.54c0.221-1.012,0.362-2.033,0.473-3.057    C306.249,226.21,305.914,225.83,305.515,225.515z" originalFill="url(#SVGID_30_)"/>
		<path fill="rgba(0, 0, 0, 1)" d="M271.872,232.871c-0.291,0.629-0.561,1.261-0.77,1.9c-0.503,1.537-0.724,3.103-0.447,4.702    c0.348,2.006,1.332,3.798,2.713,5.19c0.792,0.798,1.716,1.462,2.728,1.96c1.308,0.643,2.76,1.009,4.265,1.014    c0.658,0.002,1.328-0.014,2.001-0.048c4.017-0.207,8.154-1.188,10.434-4.378c-0.012-0.004-0.024-0.01-0.036-0.015    c-5.628-2.01-9.312-7.683-10.583-13.525c-0.239-1.1-0.389-2.209-0.499-3.322c-0.319-3.213-0.173-6.471,0.149-9.719    c0.125-1.253,0.271-2.503,0.424-3.75c0.045-0.364,0.089-0.729,0.134-1.091c0-0.001,0-0.001,0-0.002    c0.229-1.83,0.458-3.66,0.687-5.49c-0.373,0.146-0.807,0.425-1.209,0.635c-0.125,0.066-0.249,0.125-0.365,0.171    c-0.215,1.259-0.472,2.509-0.747,3.756c-0.049,0.223-0.092,0.446-0.143,0.668c-0.088,0.384-0.198,0.763-0.291,1.146    c-0.308,1.262-0.641,2.517-1.008,3.763c-0.727,2.463-1.549,4.898-2.502,7.284C275.627,226.671,273.335,229.711,271.872,232.871z" originalFill="#FFFFFF"/>
		<path fill="rgba(0, 0, 0, 1)" d="M305.875,211.787c0.04,0.313,0.077,0.629,0.116,0.943c0.428,3.452,0.816,6.942,0.778,10.402    c-0.013,1.165-0.088,2.326-0.213,3.481c-0.11,1.024-0.252,2.045-0.473,3.057c-1.274,5.855-4.971,11.542-10.62,13.54    c0.384,0.538,0.826,1.006,1.307,1.425c2.425,2.117,5.949,2.815,9.362,2.967c0.595,0.026,1.186,0.037,1.767,0.035    c0.854-0.003,1.689-0.124,2.493-0.343c0.729-0.198,1.426-0.484,2.085-0.839c2.62-1.405,4.601-3.947,5.127-6.983    c0.277-1.599,0.057-3.165-0.446-4.702c-0.938-2.866-2.857-5.629-4.361-8.316c-0.078,0.062-0.156,0.124-0.231,0.196    c-0.112-0.413-0.224-0.816-0.3-1.195c-0.301-0.582-0.583-1.162-0.812-1.737c-1.462-3.658-2.64-7.427-3.563-11.256    c-0.025-0.104-0.055-0.208-0.079-0.312c-0.668-0.197-1.316-0.483-1.928-0.818c-0.023-0.013-0.046-0.029-0.069-0.042    c0.012,0.096,0.023,0.191,0.035,0.287C305.857,211.647,305.866,211.717,305.875,211.787z" originalFill="#FFFFFF"/>
		<path opacity="0.66" fill="#EFCAA6" d="M295.525,277.146c-0.932,0.16-1.753,0.87-2.483,1.646l0.624-0.441    c0.367,0.856,1.284,0.963,2.016,0.752c0.732-0.211,1.466-0.633,2.203-0.452C297.514,277.522,296.458,276.986,295.525,277.146z" originalFill="#EFCAA6"/>
		<path fill="rgba(0, 0, 0, 1)" d="M312.911,206.203c-0.831-0.041-1.758,0.007-2.463-0.358c0.043-0.276,0.103-0.58,0.18-0.913    c1.313-5.626,7.333-18.844,7.779-20.147c2.946-8.603,1.219-18.654-4.433-25.779c-3.967-5.002-9.781-8.456-16.018-9.747    c-1.896-0.392-5.851-1.326-7.797-0.311c-0.081-0.063-0.157-0.132-0.247-0.184c-0.629-0.36-1.398-0.357-2.12-0.29    c-4.68,0.442-9.049,3.383-11.221,7.551c-0.494,0.948-0.876,1.948-1.229,2.958c-0.009,0.009-0.021,0.014-0.03,0.023    c-0.384,0.398-0.579,1.327-0.724,2.27c-0.419,1.359-0.781,2.74-1.021,4.132c-0.392,1.088-0.812,2.167-1.215,3.251    c-1.203,3.236-2.36,6.614-2.019,10.121c0.575,5.904,4.311,10.946,8.975,14.236c2.819,1.989,5.565,4.325,7.343,7.227    c0.191-2.52,0.253-5.049,0.194-7.576c-0.128-0.106-0.255-0.211-0.381-0.313c-2-1.619-4.118-3.423-5.314-5.749    c-0.847-1.647-1.261-3.459-2.067-5.073c-0.285-2.266-0.331-4.562-0.086-6.833c0.092-0.853,0.221-1.703,0.388-2.544    c0.167-0.843,0.598-2.964,0.532-4.418c0.044-0.113,0.09-0.225,0.135-0.337c1.421-3.587,4.313-6.564,7.857-8.09    c0.671-0.289,1.331-0.561,1.914-0.913c0.018,0.039,0.037,0.083,0.054,0.121c1.148,2.422,4.141,3.176,6.381,4.299    c3.994,2.003,7.156,5.607,8.622,9.828c1.601,4.61,0.801,9.164-1.028,13.446c-0.021,0.048-0.043,0.096-0.063,0.144    c-0.226,0.521-0.464,1.04-0.717,1.552c-0.351,0.709-0.653,1.456-0.933,2.218c-0.678,1.854-1.166,3.837-1.511,5.86    c-0.609-0.784-1.186-1.594-1.685-2.452c-0.312,0.909-0.513,1.846-0.627,2.793c-0.32,2.653,0.115,5.387,1.166,7.861    c1.28,3.012,3.466,5.632,6.331,7.224c0.023,0.013,0.046,0.03,0.069,0.042c0.611,0.335,1.26,0.621,1.928,0.818    c0.26,0.076,0.521,0.142,0.787,0.186c0.34,0.056,0.684,0.087,1.029,0.077c1.537-0.042,2.953-0.78,4.393-1.319    c1.282-0.48,2.621-0.807,3.979-0.976c0.435-0.054,0.871-0.093,1.308-0.115C317.965,207.799,315.489,206.328,312.911,206.203z     M273.725,177.749c-0.541-0.347-0.92-0.835-1.178-1.38c0.012-1.981,0.892-3.635,2.57-4.787c0.008,0.176,0.009,0.353,0.015,0.528    c0.055,1.471,0.052,2.948,0.147,4.42c0.006,0.105,0.02,0.21,0.027,0.316c0.033,0.47,0.078,0.939,0.12,1.409    C274.827,178.11,274.291,178.113,273.725,177.749z" originalFill="#634E42"/>
		<defs>
			<filter id="Adobe_OpacityMaskFilter_20_" filterUnits="userSpaceOnUse" x="304.635" y="464.042" width="3.107" height="11.999">
				<feFlood style="flood-color:white;flood-opacity:1" result="back"/>
				<feBlend in="SourceGraphic" in2="back" mode="normal"/>
			</filter>
		</defs>
		<mask maskUnits="userSpaceOnUse" x="304.635" y="464.042" width="3.107" height="11.999" id="SVGID_31_">
			<g filter="url(#Adobe_OpacityMaskFilter_20_)">
				<defs>
					
						<filter id="Adobe_OpacityMaskFilter_21_" filterUnits="userSpaceOnUse" x="304.635" y="464.042" width="3.107" height="11.999">
						<feFlood style="flood-color:white;flood-opacity:1" result="back"/>
						<feBlend in="SourceGraphic" in2="back" mode="normal"/>
					</filter>
				</defs>
				<mask maskUnits="userSpaceOnUse" x="304.635" y="464.042" width="3.107" height="11.999" id="SVGID_31_">
					<g filter="url(#Adobe_OpacityMaskFilter_21_)">
					</g>
				</mask>
				
					<linearGradient id="SVGID_32_" gradientUnits="userSpaceOnUse" x1="6153.3682" y1="471.541" x2="6148.1689" y2="465.5216" gradientTransform="matrix(-1 0 0 1 6457.8164 0)">
					<stop offset="0" style="stop-color:#F2F2F2"/>
					<stop offset="0.0399" style="stop-color:#EEEEEE"/>
					<stop offset="0.085" style="stop-color:#E0E0E0"/>
					<stop offset="0.1327" style="stop-color:#C9C9C9"/>
					<stop offset="0.182" style="stop-color:#AAAAAA"/>
					<stop offset="0.1871" style="stop-color:#A6A6A6"/>
					<stop offset="0.3878" style="stop-color:#767676"/>
					<stop offset="0.6779" style="stop-color:#373737"/>
					<stop offset="0.89" style="stop-color:#0F0F0F"/>
					<stop offset="1" style="stop-color:#000000"/>
				</linearGradient>
				<path mask="url(#SVGID_31_)" fill="url(#SVGID_32_)" d="M304.672,471.052c0.053,1.902,0.251,4.129,0.892,4.808      c0.391,0.415,0.847,0.077,1.185-0.611s0.578-1.684,0.787-2.694c0.115-0.55,0.226-1.154,0.205-1.787      c-0.014-0.422-0.085-0.81-0.158-1.18c-0.223-1.123-0.479-2.194-0.765-3.199c-0.269-0.942-0.583-1.863-0.995-2.221      s-0.938,0.058-1.1,1.171c-0.054,0.367-0.064,0.771-0.071,1.166C304.623,468.02,304.631,469.539,304.672,471.052z" originalFill="url(#SVGID_32_)"/>
			</g>
		</mask>
		
			<linearGradient id="SVGID_33_" gradientUnits="userSpaceOnUse" x1="6153.3682" y1="471.541" x2="6148.1689" y2="465.5216" gradientTransform="matrix(-1 0 0 1 6457.8164 0)">
			<stop offset="0" style="stop-color:#F3D1BB"/>
			<stop offset="0.1871" style="stop-color:#F3D1BB"/>
			<stop offset="0.5167" style="stop-color:#F4DAC8"/>
			<stop offset="1" style="stop-color:#F4E3D6"/>
		</linearGradient>
		<path opacity="0.67" fill="url(#SVGID_33_)" d="M304.672,471.052c0.053,1.902,0.251,4.129,0.892,4.808    c0.391,0.415,0.847,0.077,1.185-0.611s0.578-1.684,0.787-2.694c0.115-0.55,0.226-1.154,0.205-1.787    c-0.014-0.422-0.085-0.81-0.158-1.18c-0.223-1.123-0.479-2.194-0.765-3.199c-0.269-0.942-0.583-1.863-0.995-2.221    s-0.938,0.058-1.1,1.171c-0.054,0.367-0.064,0.771-0.071,1.166C304.623,468.02,304.631,469.539,304.672,471.052z" originalFill="url(#SVGID_33_)"/>
		<defs>
			<filter id="Adobe_OpacityMaskFilter_22_" filterUnits="userSpaceOnUse" x="310.411" y="384.783" width="0.264" height="0.717">
				<feFlood style="flood-color:white;flood-opacity:1" result="back"/>
				<feBlend in="SourceGraphic" in2="back" mode="normal"/>
			</filter>
		</defs>
		<mask maskUnits="userSpaceOnUse" x="310.411" y="384.783" width="0.264" height="0.717" id="SVGID_34_">
			<g filter="url(#Adobe_OpacityMaskFilter_22_)">
				<defs>
					<filter id="Adobe_OpacityMaskFilter_23_" filterUnits="userSpaceOnUse" x="310.411" y="384.783" width="0.264" height="0.717">
						<feFlood style="flood-color:white;flood-opacity:1" result="back"/>
						<feBlend in="SourceGraphic" in2="back" mode="normal"/>
					</filter>
				</defs>
				<mask maskUnits="userSpaceOnUse" x="310.411" y="384.783" width="0.264" height="0.717" id="SVGID_34_">
					<g filter="url(#Adobe_OpacityMaskFilter_23_)">
					</g>
				</mask>
				
					<linearGradient id="SVGID_35_" gradientUnits="userSpaceOnUse" x1="875.5977" y1="390.5" x2="875.5977" y2="384.5694" gradientTransform="matrix(-1 0 0 1 1186.1406 0)">
					<stop offset="0" style="stop-color:#F2F2F2"/>
					<stop offset="0.0399" style="stop-color:#EEEEEE"/>
					<stop offset="0.085" style="stop-color:#E0E0E0"/>
					<stop offset="0.1327" style="stop-color:#C9C9C9"/>
					<stop offset="0.182" style="stop-color:#AAAAAA"/>
					<stop offset="0.1871" style="stop-color:#A6A6A6"/>
					<stop offset="0.3878" style="stop-color:#767676"/>
					<stop offset="0.6779" style="stop-color:#373737"/>
					<stop offset="0.89" style="stop-color:#0F0F0F"/>
					<stop offset="1" style="stop-color:#000000"/>
				</linearGradient>
				<path mask="url(#SVGID_34_)" fill="url(#SVGID_35_)" d="M310.411,384.783c0.093,0.235,0.18,0.474,0.264,0.717      C310.661,385.158,310.565,384.929,310.411,384.783z" originalFill="url(#SVGID_35_)"/>
			</g>
		</mask>
		
			<linearGradient id="SVGID_36_" gradientUnits="userSpaceOnUse" x1="875.5977" y1="390.5" x2="875.5977" y2="384.5694" gradientTransform="matrix(-1 0 0 1 1186.1406 0)">
			<stop offset="0" style="stop-color:#F3D1BB"/>
			<stop offset="0.1871" style="stop-color:#F3D1BB"/>
			<stop offset="0.5167" style="stop-color:#F4DAC8"/>
			<stop offset="1" style="stop-color:#F4E3D6"/>
		</linearGradient>
		<path opacity="0.67" fill="url(#SVGID_36_)" d="M310.411,384.783c0.093,0.235,0.18,0.474,0.264,0.717    C310.661,385.158,310.565,384.929,310.411,384.783z" originalFill="url(#SVGID_36_)"/>
		<defs>
			<filter id="Adobe_OpacityMaskFilter_24_" filterUnits="userSpaceOnUse" x="301.361" y="384.568" width="9.315" height="5.934">
				<feFlood style="flood-color:white;flood-opacity:1" result="back"/>
				<feBlend in="SourceGraphic" in2="back" mode="normal"/>
			</filter>
		</defs>
		<mask maskUnits="userSpaceOnUse" x="301.361" y="384.568" width="9.315" height="5.934" id="SVGID_37_">
			<g filter="url(#Adobe_OpacityMaskFilter_24_)">
				<defs>
					<filter id="Adobe_OpacityMaskFilter_25_" filterUnits="userSpaceOnUse" x="301.361" y="384.568" width="9.315" height="5.934">
						<feFlood style="flood-color:white;flood-opacity:1" result="back"/>
						<feBlend in="SourceGraphic" in2="back" mode="normal"/>
					</filter>
				</defs>
				<mask maskUnits="userSpaceOnUse" x="301.361" y="384.568" width="9.315" height="5.934" id="SVGID_37_">
					<g filter="url(#Adobe_OpacityMaskFilter_25_)">
					</g>
				</mask>
				
					<linearGradient id="SVGID_38_" gradientUnits="userSpaceOnUse" x1="880.1211" y1="390.5029" x2="880.1211" y2="384.5693" gradientTransform="matrix(-1 0 0 1 1186.1406 0)">
					<stop offset="0" style="stop-color:#F2F2F2"/>
					<stop offset="0.0399" style="stop-color:#EEEEEE"/>
					<stop offset="0.085" style="stop-color:#E0E0E0"/>
					<stop offset="0.1327" style="stop-color:#C9C9C9"/>
					<stop offset="0.182" style="stop-color:#AAAAAA"/>
					<stop offset="0.1871" style="stop-color:#A6A6A6"/>
					<stop offset="0.3878" style="stop-color:#767676"/>
					<stop offset="0.6779" style="stop-color:#373737"/>
					<stop offset="0.89" style="stop-color:#0F0F0F"/>
					<stop offset="1" style="stop-color:#000000"/>
				</linearGradient>
				<path mask="url(#SVGID_37_)" fill="url(#SVGID_38_)" d="M309.897,384.573c-1.022-0.081-2.771,0.957-3.516,1.004      c-1.484,0.094-3.575,0.087-4.96-0.527c-0.203-0.09,0.167,1.684,0.23,1.819c0.278,0.597,0.789,1.065,1.263,1.419      c0.895,0.668,1.963,1.533,2.953,1.958c0.872,0.374,1.895,0.372,2.671-0.239c0.559-0.441,0.936-1.145,1.296-1.826      c0.303-0.574,0.61-1.16,0.75-1.82c0.073-0.346,0.099-0.627,0.09-0.86c-0.084-0.243-0.171-0.481-0.264-0.717      C310.278,384.657,310.104,384.59,309.897,384.573z" originalFill="url(#SVGID_38_)"/>
			</g>
		</mask>
		
			<linearGradient id="SVGID_39_" gradientUnits="userSpaceOnUse" x1="880.1211" y1="390.5029" x2="880.1211" y2="384.5693" gradientTransform="matrix(-1 0 0 1 1186.1406 0)">
			<stop offset="0" style="stop-color:#F3D1BB"/>
			<stop offset="0.1871" style="stop-color:#F3D1BB"/>
			<stop offset="0.5167" style="stop-color:#F4DAC8"/>
			<stop offset="1" style="stop-color:#F4E3D6"/>
		</linearGradient>
		<path opacity="0.67" fill="url(#SVGID_39_)" d="M309.897,384.573c-1.022-0.081-2.771,0.957-3.516,1.004    c-1.484,0.094-3.575,0.087-4.96-0.527c-0.203-0.09,0.167,1.684,0.23,1.819c0.278,0.597,0.789,1.065,1.263,1.419    c0.895,0.668,1.963,1.533,2.953,1.958c0.872,0.374,1.895,0.372,2.671-0.239c0.559-0.441,0.936-1.145,1.296-1.826    c0.303-0.574,0.61-1.16,0.75-1.82c0.073-0.346,0.099-0.627,0.09-0.86c-0.084-0.243-0.171-0.481-0.264-0.717    C310.278,384.657,310.104,384.59,309.897,384.573z" originalFill="url(#SVGID_39_)"/>
		<defs>
			<filter id="Adobe_OpacityMaskFilter_26_" filterUnits="userSpaceOnUse" x="273.23" y="227.92" width="0.153" height="0.116">
				<feFlood style="flood-color:white;flood-opacity:1" result="back"/>
				<feBlend in="SourceGraphic" in2="back" mode="normal"/>
			</filter>
		</defs>
		<mask maskUnits="userSpaceOnUse" x="273.23" y="227.92" width="0.153" height="0.116" id="SVGID_40_">
			<g filter="url(#Adobe_OpacityMaskFilter_26_)">
				<defs>
					<filter id="Adobe_OpacityMaskFilter_27_" filterUnits="userSpaceOnUse" x="273.23" y="227.92" width="0.153" height="0.116">
						<feFlood style="flood-color:white;flood-opacity:1" result="back"/>
						<feBlend in="SourceGraphic" in2="back" mode="normal"/>
					</filter>
				</defs>
				<mask maskUnits="userSpaceOnUse" x="273.23" y="227.92" width="0.153" height="0.116" id="SVGID_40_">
					<g filter="url(#Adobe_OpacityMaskFilter_27_)">
					</g>
				</mask>
				<linearGradient id="SVGID_41_" gradientUnits="userSpaceOnUse" x1="266.4492" y1="227.9785" x2="273.7594" y2="227.9785">
					<stop offset="0" style="stop-color:#000000"/>
					<stop offset="0.11" style="stop-color:#0F0F0F"/>
					<stop offset="0.3221" style="stop-color:#373737"/>
					<stop offset="0.6122" style="stop-color:#767676"/>
					<stop offset="0.8129" style="stop-color:#A6A6A6"/>
					<stop offset="0.8181" style="stop-color:#AAAAAA"/>
					<stop offset="0.8673" style="stop-color:#C9C9C9"/>
					<stop offset="0.915" style="stop-color:#E0E0E0"/>
					<stop offset="0.9601" style="stop-color:#EEEEEE"/>
					<stop offset="1" style="stop-color:#F2F2F2"/>
				</linearGradient>
				<path mask="url(#SVGID_40_)" fill="url(#SVGID_41_)" d="M273.383,227.977c-0.051-0.019-0.103-0.038-0.153-0.056      c0.045,0.039,0.093,0.073,0.137,0.116C273.373,228.017,273.378,227.997,273.383,227.977z" originalFill="url(#SVGID_41_)"/>
			</g>
		</mask>
		<linearGradient id="SVGID_42_" gradientUnits="userSpaceOnUse" x1="266.4492" y1="227.9785" x2="273.7594" y2="227.9785">
			<stop offset="0" style="stop-color:#F4E3D6"/>
			<stop offset="0.4833" style="stop-color:#F4DAC8"/>
			<stop offset="0.8129" style="stop-color:#F3D1BB"/>
			<stop offset="1" style="stop-color:#F3D1BB"/>
		</linearGradient>
		<path opacity="0.67" fill="url(#SVGID_42_)" d="M273.383,227.977c-0.051-0.019-0.103-0.038-0.153-0.056    c0.045,0.039,0.093,0.073,0.137,0.116C273.373,228.017,273.378,227.997,273.383,227.977z" originalFill="url(#SVGID_42_)"/>
		<defs>
			<filter id="Adobe_OpacityMaskFilter_28_" filterUnits="userSpaceOnUse" x="266.446" y="224.626" width="7.313" height="3.912">
				<feFlood style="flood-color:white;flood-opacity:1" result="back"/>
				<feBlend in="SourceGraphic" in2="back" mode="normal"/>
			</filter>
		</defs>
		<mask maskUnits="userSpaceOnUse" x="266.446" y="224.626" width="7.313" height="3.912" id="SVGID_43_">
			<g filter="url(#Adobe_OpacityMaskFilter_28_)">
				<defs>
					<filter id="Adobe_OpacityMaskFilter_29_" filterUnits="userSpaceOnUse" x="266.446" y="224.626" width="7.313" height="3.912">
						<feFlood style="flood-color:white;flood-opacity:1" result="back"/>
						<feBlend in="SourceGraphic" in2="back" mode="normal"/>
					</filter>
				</defs>
				<mask maskUnits="userSpaceOnUse" x="266.446" y="224.626" width="7.313" height="3.912" id="SVGID_43_">
					<g filter="url(#Adobe_OpacityMaskFilter_29_)">
					</g>
				</mask>
				<linearGradient id="SVGID_44_" gradientUnits="userSpaceOnUse" x1="266.4463" y1="226.5825" x2="273.7593" y2="226.5825">
					<stop offset="0" style="stop-color:#000000"/>
					<stop offset="0.11" style="stop-color:#0F0F0F"/>
					<stop offset="0.3221" style="stop-color:#373737"/>
					<stop offset="0.6122" style="stop-color:#767676"/>
					<stop offset="0.8129" style="stop-color:#A6A6A6"/>
					<stop offset="0.8181" style="stop-color:#AAAAAA"/>
					<stop offset="0.8673" style="stop-color:#C9C9C9"/>
					<stop offset="0.915" style="stop-color:#E0E0E0"/>
					<stop offset="0.9601" style="stop-color:#EEEEEE"/>
					<stop offset="1" style="stop-color:#F2F2F2"/>
				</linearGradient>
				<path mask="url(#SVGID_43_)" fill="url(#SVGID_44_)" d="M272.552,224.674c-1.363-0.277-3.2,0.711-4.258,1.46      c-0.981,0.695-1.829,1.079-1.847,2.404c1.884-0.663,4.403-1.998,6.275-0.979c0.176,0.096,0.345,0.22,0.509,0.36      c0.051,0.018,0.102,0.038,0.153,0.056C273.802,226.437,274.223,225.014,272.552,224.674z" originalFill="url(#SVGID_44_)"/>
			</g>
		</mask>
		<linearGradient id="SVGID_45_" gradientUnits="userSpaceOnUse" x1="266.4463" y1="226.5825" x2="273.7593" y2="226.5825">
			<stop offset="0" style="stop-color:#F4E3D6"/>
			<stop offset="0.4833" style="stop-color:#F4DAC8"/>
			<stop offset="0.8129" style="stop-color:#F3D1BB"/>
			<stop offset="1" style="stop-color:#F3D1BB"/>
		</linearGradient>
		<path opacity="0.67" fill="url(#SVGID_45_)" d="M272.552,224.674c-1.363-0.277-3.2,0.711-4.258,1.46    c-0.981,0.695-1.829,1.079-1.847,2.404c1.884-0.663,4.403-1.998,6.275-0.979c0.176,0.096,0.345,0.22,0.509,0.36    c0.051,0.018,0.102,0.038,0.153,0.056C273.802,226.437,274.223,225.014,272.552,224.674z" originalFill="url(#SVGID_45_)"/>
		<defs>
			<filter id="Adobe_OpacityMaskFilter_30_" filterUnits="userSpaceOnUse" x="312.557" y="225.794" width="2.134" height="0.661">
				<feFlood style="flood-color:white;flood-opacity:1" result="back"/>
				<feBlend in="SourceGraphic" in2="back" mode="normal"/>
			</filter>
		</defs>
		<mask maskUnits="userSpaceOnUse" x="312.557" y="225.794" width="2.134" height="0.661" id="SVGID_46_">
			<g filter="url(#Adobe_OpacityMaskFilter_30_)">
				<defs>
					<filter id="Adobe_OpacityMaskFilter_31_" filterUnits="userSpaceOnUse" x="312.557" y="225.794" width="2.134" height="0.661">
						<feFlood style="flood-color:white;flood-opacity:1" result="back"/>
						<feBlend in="SourceGraphic" in2="back" mode="normal"/>
					</filter>
				</defs>
				<mask maskUnits="userSpaceOnUse" x="312.557" y="225.794" width="2.134" height="0.661" id="SVGID_46_">
					<g filter="url(#Adobe_OpacityMaskFilter_31_)">
					</g>
				</mask>
				
					<linearGradient id="SVGID_47_" gradientUnits="userSpaceOnUse" x1="6051.3037" y1="226.125" x2="6058.6157" y2="226.125" gradientTransform="matrix(-1 0 0 1 6370.7891 0)">
					<stop offset="0" style="stop-color:#000000"/>
					<stop offset="0.11" style="stop-color:#0F0F0F"/>
					<stop offset="0.3221" style="stop-color:#373737"/>
					<stop offset="0.6122" style="stop-color:#767676"/>
					<stop offset="0.8129" style="stop-color:#A6A6A6"/>
					<stop offset="0.8181" style="stop-color:#AAAAAA"/>
					<stop offset="0.8673" style="stop-color:#C9C9C9"/>
					<stop offset="0.915" style="stop-color:#E0E0E0"/>
					<stop offset="0.9601" style="stop-color:#EEEEEE"/>
					<stop offset="1" style="stop-color:#F2F2F2"/>
				</linearGradient>
				<path mask="url(#SVGID_46_)" fill="url(#SVGID_47_)" d="M312.557,226.005c0.081,0.15,0.156,0.299,0.24,0.45      c0.135-0.106,0.271-0.203,0.414-0.281c0.461-0.25,0.96-0.356,1.479-0.367C313.997,225.765,313.285,225.828,312.557,226.005z" originalFill="url(#SVGID_47_)"/>
			</g>
		</mask>
		
			<linearGradient id="SVGID_48_" gradientUnits="userSpaceOnUse" x1="6051.3037" y1="226.125" x2="6058.6157" y2="226.125" gradientTransform="matrix(-1 0 0 1 6370.7891 0)">
			<stop offset="0" style="stop-color:#F4E3D6"/>
			<stop offset="0.4833" style="stop-color:#F4DAC8"/>
			<stop offset="0.8129" style="stop-color:#F3D1BB"/>
			<stop offset="1" style="stop-color:#F3D1BB"/>
		</linearGradient>
		<path opacity="0.67" fill="url(#SVGID_48_)" d="M312.557,226.005c0.081,0.15,0.156,0.299,0.24,0.45    c0.135-0.106,0.271-0.203,0.414-0.281c0.461-0.25,0.96-0.356,1.479-0.367C313.997,225.765,313.285,225.828,312.557,226.005z" originalFill="url(#SVGID_48_)"/>
		<defs>
			<filter id="Adobe_OpacityMaskFilter_32_" filterUnits="userSpaceOnUse" x="312.175" y="223.241" width="7.312" height="3.912">
				<feFlood style="flood-color:white;flood-opacity:1" result="back"/>
				<feBlend in="SourceGraphic" in2="back" mode="normal"/>
			</filter>
		</defs>
		<mask maskUnits="userSpaceOnUse" x="312.175" y="223.241" width="7.312" height="3.912" id="SVGID_49_">
			<g filter="url(#Adobe_OpacityMaskFilter_32_)">
				<defs>
					<filter id="Adobe_OpacityMaskFilter_33_" filterUnits="userSpaceOnUse" x="312.175" y="223.241" width="7.312" height="3.912">
						<feFlood style="flood-color:white;flood-opacity:1" result="back"/>
						<feBlend in="SourceGraphic" in2="back" mode="normal"/>
					</filter>
				</defs>
				<mask maskUnits="userSpaceOnUse" x="312.175" y="223.241" width="7.312" height="3.912" id="SVGID_49_">
					<g filter="url(#Adobe_OpacityMaskFilter_33_)">
					</g>
				</mask>
				
					<linearGradient id="SVGID_50_" gradientUnits="userSpaceOnUse" x1="6051.3027" y1="225.1968" x2="6058.6143" y2="225.1968" gradientTransform="matrix(-1 0 0 1 6370.7891 0)">
					<stop offset="0" style="stop-color:#000000"/>
					<stop offset="0.11" style="stop-color:#0F0F0F"/>
					<stop offset="0.3221" style="stop-color:#373737"/>
					<stop offset="0.6122" style="stop-color:#767676"/>
					<stop offset="0.8129" style="stop-color:#A6A6A6"/>
					<stop offset="0.8181" style="stop-color:#AAAAAA"/>
					<stop offset="0.8673" style="stop-color:#C9C9C9"/>
					<stop offset="0.915" style="stop-color:#E0E0E0"/>
					<stop offset="0.9601" style="stop-color:#EEEEEE"/>
					<stop offset="1" style="stop-color:#F2F2F2"/>
				</linearGradient>
				<path mask="url(#SVGID_49_)" fill="url(#SVGID_50_)" d="M314.69,225.807c1.594-0.034,3.375,0.846,4.796,1.346      c-0.019-1.325-0.866-1.709-1.848-2.404c-1.058-0.749-2.896-1.737-4.258-1.46c-1.246,0.253-1.327,1.11-1.115,2.167      c0.095,0.183,0.191,0.366,0.291,0.549C313.285,225.828,313.997,225.765,314.69,225.807z" originalFill="url(#SVGID_50_)"/>
			</g>
		</mask>
		
			<linearGradient id="SVGID_51_" gradientUnits="userSpaceOnUse" x1="6051.3027" y1="225.1968" x2="6058.6143" y2="225.1968" gradientTransform="matrix(-1 0 0 1 6370.7891 0)">
			<stop offset="0" style="stop-color:#F4E3D6"/>
			<stop offset="0.4833" style="stop-color:#F4DAC8"/>
			<stop offset="0.8129" style="stop-color:#F3D1BB"/>
			<stop offset="1" style="stop-color:#F3D1BB"/>
		</linearGradient>
		<path opacity="0.67" fill="url(#SVGID_51_)" d="M314.69,225.807c1.594-0.034,3.375,0.846,4.796,1.346    c-0.019-1.325-0.866-1.709-1.848-2.404c-1.058-0.749-2.896-1.737-4.258-1.46c-1.246,0.253-1.327,1.11-1.115,2.167    c0.095,0.183,0.191,0.366,0.291,0.549C313.285,225.828,313.997,225.765,314.69,225.807z" originalFill="url(#SVGID_51_)"/>
		<path fill="rgba(0, 0, 0, 1)" d="M312.565,226.651c0.075-0.072,0.153-0.134,0.231-0.196c-0.084-0.15-0.159-0.3-0.24-0.45    c-0.1-0.184-0.196-0.367-0.291-0.549C312.342,225.835,312.453,226.238,312.565,226.651z" originalFill="#FFFFFF"/>
		<defs>
			<filter id="Adobe_OpacityMaskFilter_34_" filterUnits="userSpaceOnUse" x="312.266" y="225.456" width="0.531" height="1.195">
				<feFlood style="flood-color:white;flood-opacity:1" result="back"/>
				<feBlend in="SourceGraphic" in2="back" mode="normal"/>
			</filter>
		</defs>
		<mask maskUnits="userSpaceOnUse" x="312.266" y="225.456" width="0.531" height="1.195" id="SVGID_52_">
			<g filter="url(#Adobe_OpacityMaskFilter_34_)">
				<defs>
					<filter id="Adobe_OpacityMaskFilter_35_" filterUnits="userSpaceOnUse" x="312.266" y="225.456" width="0.531" height="1.195">
						<feFlood style="flood-color:white;flood-opacity:1" result="back"/>
						<feBlend in="SourceGraphic" in2="back" mode="normal"/>
					</filter>
				</defs>
				<mask maskUnits="userSpaceOnUse" x="312.266" y="225.456" width="0.531" height="1.195" id="SVGID_52_">
					<g filter="url(#Adobe_OpacityMaskFilter_35_)">
					</g>
				</mask>
				
					<linearGradient id="SVGID_53_" gradientUnits="userSpaceOnUse" x1="6051.2998" y1="226.0537" x2="6058.6162" y2="226.0537" gradientTransform="matrix(-1 0 0 1 6370.7891 0)">
					<stop offset="0" style="stop-color:#000000"/>
					<stop offset="0.11" style="stop-color:#0F0F0F"/>
					<stop offset="0.3221" style="stop-color:#373737"/>
					<stop offset="0.6122" style="stop-color:#767676"/>
					<stop offset="0.8129" style="stop-color:#A6A6A6"/>
					<stop offset="0.8181" style="stop-color:#AAAAAA"/>
					<stop offset="0.8673" style="stop-color:#C9C9C9"/>
					<stop offset="0.915" style="stop-color:#E0E0E0"/>
					<stop offset="0.9601" style="stop-color:#EEEEEE"/>
					<stop offset="1" style="stop-color:#F2F2F2"/>
				</linearGradient>
				<path mask="url(#SVGID_52_)" fill="url(#SVGID_53_)" d="M312.565,226.651c0.075-0.072,0.153-0.134,0.231-0.196      c-0.084-0.15-0.159-0.3-0.24-0.45c-0.1-0.184-0.196-0.367-0.291-0.549C312.342,225.835,312.453,226.238,312.565,226.651z" originalFill="url(#SVGID_53_)"/>
			</g>
		</mask>
		
			<linearGradient id="SVGID_54_" gradientUnits="userSpaceOnUse" x1="6051.2998" y1="226.0537" x2="6058.6162" y2="226.0537" gradientTransform="matrix(-1 0 0 1 6370.7891 0)">
			<stop offset="0" style="stop-color:#F4E3D6"/>
			<stop offset="0.4833" style="stop-color:#F4DAC8"/>
			<stop offset="0.8129" style="stop-color:#F3D1BB"/>
			<stop offset="1" style="stop-color:#F3D1BB"/>
		</linearGradient>
		<path opacity="0.67" fill="url(#SVGID_54_)" d="M312.565,226.651c0.075-0.072,0.153-0.134,0.231-0.196    c-0.084-0.15-0.159-0.3-0.24-0.45c-0.1-0.184-0.196-0.367-0.291-0.549C312.342,225.835,312.453,226.238,312.565,226.651z" originalFill="url(#SVGID_54_)"/>
		<path fill="rgba(8, 7, 5, 1)" d="M299.223,192.488c-0.233,0.168-0.481,0.323-0.724,0.483c-0.007,0.104-0.026,0.207-0.058,0.308    c-0.091,0.973-0.134,1.95-0.125,2.927c0.114-0.947,0.315-1.884,0.627-2.793c0.5,0.858,1.076,1.668,1.685,2.452    c0.345-2.023,0.833-4.006,1.511-5.86c-0.164,0.014-0.33,0.021-0.494,0.039C300.968,190.961,300.182,191.794,299.223,192.488z" originalFill="#B17F4A"/>
	</g>
</g>
</svg>