<svg xmlns="http://www.w3.org/2000/svg" xmlns:xlink="http://www.w3.org/1999/xlink" version="1.1" id="svg-edited-version" x="0px" y="0px" viewBox="0 0 595.275 595.275" enable-background="new 0 0 595.275 595.275" xml:space="preserve" class="injected-svg" data-src="https://preview.pixlr.com/images/svg/100/1/8399b5975eeebe33178bc6a39cc00fa57dd0cc228d6de64915488eadccff9cf5.svg">
<g>
	<rect fill="rgba(160, 109, 232, 1)" width="595.275" height="595.275" originalFill="#E0A39A"/>
	<g>
		<path fill="#F9E8D8" d="M313.422,387.451c-2.258-10.841-4.516-21.682-6.772-32.523c-1.776-8.531-3.613-17.205-8.148-24.926    c-0.064,0.365-0.111,0.742-0.12,1.144c0.021-1.014-0.708-1.876-1.438-2.579c-3.941-3.791-9.195-6.76-13.915-9.636    c-0.329-0.201-0.663-0.402-0.986-0.603c-1.567-0.97-3.287-1.893-5.078-2.731c-0.953-0.11-1.909-0.187-2.867-0.222    c-3.54-0.13-7.097,0.25-10.523,1.149c-0.273,0.625-0.538,1.259-0.785,1.912c-0.62,1.637-1.148,3.349-1.58,5.098    c-0.955,3.876-1.421,7.915-1.189,11.654c0.472,7.582,3.972,14.626,7.826,21.172c2.235,3.796,4.626,7.525,7.539,10.831    c3.776,4.285,6.919,7.655,9.29,12.805c2.569,5.581,5.811,10.956,8.813,16.353c0.401,0.721,0.799,1.442,1.189,2.165    c0.226,0.417,0.454,0.835,0.685,1.252c-0.289,3.843,0.082,7.765-0.103,11.634c-0.463,9.695-4.419,19.078-4.025,28.776    c0.354,8.707,4.174,16.849,7.923,24.715c0.324,0.682,0.886,2.182,1.571,3.914c0.021,5.056-0.236,10.203-2.656,14.739    c-0.295,0.553-0.621,1.094-0.875,1.662c-0.441,0.985-0.662,2.037-0.879,3.081c-0.448,2.15-0.897,4.301-1.345,6.451    c-0.161,0.772-0.322,1.545-0.483,2.317c-0.136,0.655-0.258,1.384,0.145,1.944c0.532,0.741,1.688,0.827,2.675,0.829    c5.121,0.012,10.242-0.114,15.355-0.38c0.619-0.791,0.943-1.691,1.072-2.637c0.205-1.495-0.085-3.103-0.522-4.578    c-0.715-2.408-1.75-4.854-1.336-7.316c0.017-0.099,0.04-0.198,0.062-0.297c0.26-1.234,0.799-2.452,0.601-3.69    c-0.192-1.209-1.062-2.232-1.645-3.339c-0.907-1.725-1.119-3.66-1.527-5.53c1.966-7.435,2.38-20.236,2.657-22.424    c1.706-13.506,3.206-27.035,4.202-40.598c0.096-1.301,0.146-2.725,0.105-4.183c0.301-1.588,0.015-3.357-0.322-4.972    C315.148,395.741,314.285,391.597,313.422,387.451z" originalFill="#F9E8D8"/>
		<path fill="#F9E8D8" d="M304.31,194.414c1.757,1.234,3.721,2.128,5.695,2.979c-0.031-0.782-0.062-1.564-0.093-2.346    c-0.928-1.204-2.039-2.267-3.319-3.087c-1.05-0.673-2.122-0.615-3.232-1.078c-1.242-0.518-2.437-1.285-3.55-2.033    C300.6,191.142,302.325,193.019,304.31,194.414z" originalFill="#F9E8D8"/>
		<path fill="#F9E8D8" d="M354.227,276.985c-0.005-0.032-0.012-0.065-0.016-0.097c0.224-0.868,0.025-1.805-0.213-2.682    c-3.877-14.258-11.996-27.333-23.057-37.131c-2.654-2.352-5.579-4.414-9.193-4.785c-1.417-0.146-2.888-0.056-4.357,0.003    c-0.849,0.034-1.694,0.048-2.531,0.007c-1.135-0.249-2.264-0.513-3.357-0.867c-2.09-0.676-4.028-1.656-6.115-2.338    c-0.918-0.301-1.813-0.552-2.632-0.69c-0.818-2.941-1.056-5.979-0.704-8.977c1.383-0.792,2.705-1.784,3.729-2.827    c0.374-0.381,0.704-0.793,1.015-1.217c1.484-2.025,2.287-4.483,2.701-6.957c0.164-0.979-0.11-3.71,0.557-4.41    c0.079-0.083,0.176-0.144,0.274-0.202c-0.091-0.733-0.127-1.477-0.156-2.215c-0.051-1.288-0.102-2.577-0.152-3.865    c-4.398-0.043-9.759-2.182-13.742-3.657c-4.52-1.674-8.857-3.842-12.906-6.458c-0.436,1.104-0.905,2.101-1.131,2.68    c-0.525,1.345-1.343,2.692-1.912,4.041c0,0.081-0.003,0.161-0.006,0.241c-0.093,2.339-0.186,4.679-0.278,7.019    c-0.054,1.369-0.112,2.761-0.552,4.059c-0.028,0.083-0.07,0.161-0.102,0.243c0.803,1.716,0.79,4.077,1.555,5.946    c0.453,1.108,1.039,2.133,1.713,3.083c1.119,1.578,2.509,2.917,4.081,3.963c0.087,3.209-0.074,6.423-0.483,9.618    c-0.663,0.145-1.363,0.348-2.079,0.581c-0.889,0.291-1.767,0.594-2.645,0.897c0.066,0.761,0.143,1.548,0.216,2.254    c0.113,1.104,0.214,1.996,0.234,2.202c0.015,0.153,0.03,0.303,0.045,0.454c0.095,0.97,0.207,1.897,0.464,2.766    c0.111,0.375,0.258,0.736,0.436,1.088c0.324,0.644,0.764,1.25,1.41,1.806c1.711,1.47,4.498,1.769,6.2,0.289    c-0.369,0.978-1.191,1.73-2.108,2.232c-0.112,0.062-0.233,0.102-0.348,0.157c-0.195,0.093-0.387,0.192-0.588,0.266    c-1.855,0.673-3.988,0.549-5.819-0.22c-0.76-0.32-1.432-0.734-2.038-1.213c-0.591-0.469-1.112-1.006-1.577-1.596    c-0.056,0.483-0.111,0.966-0.161,1.451c-0.402,3.887-0.583,7.788-0.089,11.623c0.121,0.936,0.271,1.869,0.479,2.795    c1.45,6.436,5.653,12.686,12.079,14.882c-1.04,1.406-2.425,2.415-3.999,3.143c-3.009,1.391-6.726,1.733-10.145,1.723    c-2.287-0.007-4.467-0.721-6.287-1.929c-0.035,0.549-0.049,1.123-0.042,1.726c0.053,4.218,0.974,8.43,0.537,12.625    c-0.555,5.319-3.251,10.21-4.024,15.503c-0.056,0.381-0.08,0.754-0.085,1.122c-0.23,0.083-0.456,0.178-0.694,0.239    c-0.601,0.157-1.218,0.233-1.835,0.312c-1.46-1.699-3.068-3.287-3.726-4.136c-4.778-6.168-8.376-13.251-10.504-20.759    c-0.614-2.165-1.583-4.964-2.999-7.179c0.269-0.373,0.545-0.749,0.84-1.122c2.325-2.943,5.389-5.305,8.374-7.669    c2.582-2.044,4.312-4.546,5.797-7.391c1.411-2.703,3.498-4.531,6.917-4.155c0.203,0.022,0.409,0.048,0.616,0.068    c-0.925,2.008-1.826,4.039-2.355,6.143c1.668-3.34,4.136-6.56,5.43-9.689c1.09-2.637,2.044-5.325,2.874-8.048    c0.399-1.311,0.769-2.628,1.105-3.955c0.036-0.143,0.071-0.286,0.106-0.429c-0.08-0.189-0.161-0.377-0.236-0.569    c-0.081-0.208-0.157-0.42-0.231-0.632c-0.21-0.599-0.397-1.21-0.564-1.829c-0.14-0.516-0.27-1.034-0.386-1.553    c-0.414,0.524-0.896,0.995-1.439,1.373c-1.896,1.315-4.312,1.699-6.615,1.549c1.765-0.254,3.416-1.22,4.503-2.632    c0.186-0.241,0.331-0.5,0.482-0.757c-1.692-0.049-3.396-0.196-5.03-0.028c-3.614,0.371-6.538,2.433-9.193,4.785    c-11.06,9.798-19.179,22.874-23.056,37.131c-0.238,0.877-0.437,1.814-0.213,2.682c-0.004,0.032-0.011,0.064-0.016,0.097    c-0.352,2.845,0.268,5.619,1.404,8.256c1.142,2.648,2.806,5.158,4.531,7.462c3.52,4.698,7.436,9.098,11.691,13.142    c2.8,2.66,5.152,5.071,8.51,6.021c0.998,1.35,2.352,2.089,3.88,2.483c1.412,0.365,2.969,0.441,4.529,0.439    c0.36-0.001,1.426,0.021,2.774,0.074c2.86,0.115,6.993,0.382,8.371,0.917c0.317,0.123,0.489,0.26,0.466,0.413    c0.014-0.089,0.021-0.179,0.034-0.268c3.545,1.187,7.239,1.925,10.966,2.202c4.556,0.34,9.165,0.003,13.619-1.018    c1.208-0.277,2.403-0.608,3.583-0.986c-0.191-0.01-0.368-0.029-0.527-0.059c0.429-0.729,5.475-1.068,8.803-1.202    c1.349-0.054,2.414-0.075,2.774-0.074c0.322,0,0.644-0.005,0.965-0.013c2.913-0.072,5.714-0.572,7.444-2.91    c3.358-0.95,5.71-3.361,8.51-6.021c4.256-4.044,8.172-8.444,11.691-13.142c1.726-2.304,3.39-4.814,4.531-7.462    C353.959,282.604,354.578,279.83,354.227,276.985z M299.509,220.619c0.122-0.043,0.246-0.098,0.369-0.146    c-0.125,0.098-0.249,0.197-0.377,0.29c-0.597,0.434-1.194,0.867-1.791,1.3c-0.809,0.587-1.691,1.199-2.69,1.197    c-0.676-0.002-1.317-0.289-1.915-0.605c-1.111-0.586-2.154-1.297-3.117-2.104C292.991,221.64,296.325,221.764,299.509,220.619z     M307.787,315.988c-0.121-0.044-0.217-0.1-0.279-0.17c-0.501-0.557-0.141-1.073,0.364-1.396c0.043,0.545,0.1,1.09,0.179,1.632    C307.957,316.035,307.863,316.016,307.787,315.988z M338.937,280.794c-2.128,7.508-5.727,14.591-10.505,20.759    c-0.657,0.849-2.265,2.437-3.726,4.136c-0.616-0.079-1.233-0.155-1.835-0.312c-0.636-0.166-1.238-0.429-1.834-0.708    c-0.354-1.885-1.021-3.778-1.751-5.5c-1.512-3.564-3.197-7.126-3.721-10.962c-0.573-4.2,0.653-8.949,0.501-13.344    c-1.513,0.775-3.206,1.223-4.968,1.229c-2.596,0.008-5.366-0.195-7.854-0.933c-2.401-0.712-4.54-1.922-5.995-3.933    c6.292-2.196,10.408-8.446,11.828-14.881c0.153-0.695,0.269-1.395,0.373-2.095c0.245-1.657,0.365-3.326,0.388-5.003    c0.047-3.634-0.34-7.298-0.79-10.928c-0.046-0.368-0.091-0.736-0.138-1.104c-0.022-0.176-0.043-0.352-0.065-0.528    c-0.255-2.011-0.511-4.022-0.766-6.034c0.545,0.21,1.208,0.675,1.753,0.886c0.314,1.812,0.692,3.613,1.119,5.402    c0.079,0.332,0.16,0.664,0.242,0.995c1.012,4.036,2.301,8.005,3.863,11.866c0.229,0.565,0.503,1.134,0.796,1.705    c0.272,0.53,0.565,1.064,0.874,1.6c0.089,0.154,0.181,0.309,0.271,0.463c4.098-0.424,7.654-0.487,9.926,3.866    c1.485,2.845,3.217,5.346,5.798,7.39c2.984,2.364,6.049,4.727,8.374,7.669c0.295,0.373,0.571,0.749,0.84,1.122    C340.52,275.83,339.55,278.629,338.937,280.794z" originalFill="#F9E8D8"/>
		<path fill="none" d="M270.43,288.512c0.437-4.195-0.483-8.407-0.537-12.625c-0.007-0.603,0.007-1.177,0.042-1.726    c-2.436-1.617-4.227-4.124-4.75-7.044c-0.315-1.758-0.064-3.479,0.508-5.168c0.281-0.828,0.653-1.646,1.059-2.459    c0.53-2.104,1.431-4.135,2.355-6.143c-0.207-0.02-0.413-0.046-0.616-0.068c-3.419-0.375-5.506,1.453-6.917,4.155    c-1.485,2.845-3.216,5.346-5.797,7.391c-2.985,2.364-6.049,4.727-8.374,7.669c-0.295,0.373-0.571,0.749-0.84,1.122    c1.416,2.214,2.385,5.014,2.999,7.179c2.128,7.508,5.727,14.591,10.504,20.759c0.658,0.849,2.265,2.437,3.726,4.136    c0.617-0.079,1.234-0.155,1.835-0.312c0.238-0.062,0.463-0.156,0.694-0.239c0.005-0.368,0.029-0.741,0.085-1.122    C267.179,298.722,269.875,293.831,270.43,288.512z"/>
		<path fill="none" d="M321.908,267.116c-0.595,3.387-2.859,6.215-5.842,7.745c0.152,4.395-1.074,9.144-0.501,13.344    c0.523,3.836,2.209,7.398,3.721,10.962c0.73,1.722,1.397,3.615,1.751,5.5c0.596,0.279,1.198,0.542,1.834,0.708    c0.602,0.157,1.219,0.233,1.835,0.312c1.461-1.699,3.068-3.287,3.726-4.136c4.778-6.168,8.377-13.251,10.505-20.759    c0.613-2.165,1.583-4.964,2.999-7.179c-0.269-0.373-0.545-0.749-0.84-1.122c-2.325-2.943-5.39-5.305-8.374-7.669    c-2.581-2.044-4.312-4.545-5.798-7.39c-2.271-4.353-5.828-4.29-9.926-3.866c1.594,2.714,3.457,5.499,4.412,8.38    C321.971,263.638,322.217,265.358,321.908,267.116z"/>
		<path opacity="0.2" fill="rgba(0, 0, 0, 1)" d="M316.211,488.846c0.65,0.704,1.282,1.423,1.857,2.188c0.752,1,1.358,2.579,0.374,3.352    c-0.425,0.334-1.003,0.364-1.524,0.505c-1.204,0.322-2.133,1.239-3.182,1.923c-0.129,0.945-0.453,1.846-1.072,2.637    c-5.113,0.266-10.234,0.392-15.355,0.38c-0.987-0.002-2.144-0.088-2.675-0.829c-0.403-0.561-0.281-1.289-0.145-1.944    c0.161-0.772,0.322-1.545,0.483-2.317c-1.244-1.471-1.068-3.303-0.574-5.218c0.064-0.249,0.14-0.501,0.213-0.753    c-26.979,0.693-47.546,4.295-47.546,8.636c0,4.837,25.528,8.758,57.018,8.758c31.49,0,57.019-3.921,57.019-8.758    C361.102,493.206,341.873,489.7,316.211,488.846z" originalFill="#634E42"/>
		<path fill="#F4D9BF" d="M313.214,492.234c0.438,1.476,0.728,3.083,0.522,4.578c1.049-0.684,1.978-1.601,3.182-1.923    c0.521-0.141,1.1-0.171,1.524-0.505c0.984-0.772,0.378-2.352-0.374-3.352c-0.575-0.765-1.207-1.483-1.857-2.188    c-1.355-1.467-2.824-2.839-4.271-4.225c-0.021,0.099-0.045,0.198-0.062,0.297C311.464,487.381,312.499,489.826,313.214,492.234z" originalFill="#F4D9BF"/>
		<path fill="#F4D9BF" d="M294.972,494.738c0.448-2.15,0.897-4.301,1.345-6.451c0.217-1.044,0.438-2.096,0.879-3.081    c0.255-0.568,0.581-1.109,0.875-1.662c2.419-4.536,2.676-9.684,2.656-14.739c-0.686-1.732-1.247-3.232-1.571-3.914    c-3.749-7.866-7.569-16.008-7.923-24.715c-0.394-9.698,3.562-19.081,4.025-28.776c0.185-3.869-0.186-7.791,0.103-11.634    c-0.231-0.417-0.459-0.835-0.685-1.252c-0.391-0.723-0.788-1.444-1.189-2.165c-5.839,9.769-6.945,22.292-7.674,33.947    c-0.174,2.785-0.349,5.585-0.071,8.362c0.763,7.653,4.851,14.515,7.36,21.785c1.719,4.979,2.688,10.21,2.9,15.472    c0.117,2.894,0.005,5.797-0.336,8.673c-0.16,1.347-0.65,2.774-1.056,4.18c-0.073,0.252-0.148,0.504-0.213,0.753    C293.904,491.436,293.729,493.268,294.972,494.738z" originalFill="#F4D9BF"/>
		<path fill="#F4D9BF" d="M320.027,316.698c-1.82-0.188-3.645-0.326-5.472-0.443c-2.59,1.284-5.297,2.452-7.38,4.489    c-2.994,2.928-7.871,4.742-8.675,9.258c4.535,7.721,6.372,16.395,8.148,24.926c2.257,10.842,4.515,21.683,6.772,32.523    c0.96-3.672,2.535-7.189,3.884-10.764c3.66-9.699,5.645-20.02,5.836-30.385c0.097-5.248-0.264-10.505-1.081-15.689    c-0.463-2.935-0.179-5.961-0.576-8.91c-0.195-1.448-0.908-2.831-1.049-4.235c-0.083-0.828,0.024-1.699,0.149-2.577    C320.268,315.482,319.934,316.13,320.027,316.698z" originalFill="#F4D9BF"/>
		<path fill="#F4D9BF" d="M289.987,220.551c0.963,0.807,2.006,1.518,3.117,2.104c0.598,0.316,1.239,0.603,1.915,0.605    c0.999,0.002,1.882-0.61,2.69-1.197c0.597-0.433,1.194-0.867,1.791-1.3c0.128-0.093,0.252-0.191,0.377-0.29    c-0.123,0.048-0.247,0.103-0.369,0.146C296.325,221.764,292.991,221.64,289.987,220.551z" originalFill="#F4D9BF"/>
		<path opacity="0.3" fill="#F3D1BB" d="M276.031,236.8c-0.861-0.116-1.722-0.231-2.583-0.347c-0.154,0.501,0.415,0.852,0.851,0.947    c0.62,0.135,1.241,0.269,1.862,0.398c0.036-0.143,0.071-0.286,0.106-0.429C276.187,237.18,276.105,236.992,276.031,236.8z" originalFill="#F3D1BB"/>
		<path opacity="0.3" fill="#F3D1BB" d="M290.516,240.66c0.022,0.013,0.043,0.027,0.065,0.041c0.392,0.241,0.774,0.507,1.182,0.706    c-0.203-0.759-0.651-1.372-1.192-1.841c-0.264-0.229-0.543-0.435-0.841-0.586c-0.907-0.46-1.9-0.596-2.878-0.728    c-1.454-0.195-2.907-0.39-4.36-0.585c0.111,0.375,0.258,0.736,0.436,1.088c0.822,0.072,1.645,0.149,2.464,0.265    C287.154,239.269,288.927,239.7,290.516,240.66z" originalFill="#F3D1BB"/>
		<path opacity="0.3" fill="#F3D1BB" d="M297.89,241.407c0.009-0.004,0.017-0.01,0.026-0.015c0-0.016,0-0.032,0-0.048    C297.909,241.366,297.896,241.384,297.89,241.407z" originalFill="#F3D1BB"/>
		<defs>
			<filter id="Adobe_OpacityMaskFilter" filterUnits="userSpaceOnUse" x="269.065" y="234.338" width="6.734" height="1.829">
				<feFlood style="flood-color:white;flood-opacity:1" result="back"/>
				<feBlend in="SourceGraphic" in2="back" mode="normal"/>
			</filter>
		</defs>
		<mask maskUnits="userSpaceOnUse" x="269.065" y="234.338" width="6.734" height="1.829" id="SVGID_1_">
			<g filter="url(#Adobe_OpacityMaskFilter)">
				<defs>
					<filter id="Adobe_OpacityMaskFilter_1_" filterUnits="userSpaceOnUse" x="269.065" y="234.338" width="6.734" height="1.829">
						<feFlood style="flood-color:white;flood-opacity:1" result="back"/>
						<feBlend in="SourceGraphic" in2="back" mode="normal"/>
					</filter>
				</defs>
				<mask maskUnits="userSpaceOnUse" x="269.065" y="234.338" width="6.734" height="1.829" id="SVGID_1_">
					<g filter="url(#Adobe_OpacityMaskFilter_1_)">
					</g>
				</mask>
				<linearGradient id="SVGID_2_" gradientUnits="userSpaceOnUse" x1="269.0654" y1="235.2529" x2="282.0307" y2="235.2529">
					<stop offset="0" style="stop-color:#F2F2F2"/>
					<stop offset="0.0399" style="stop-color:#EEEEEE"/>
					<stop offset="0.085" style="stop-color:#E0E0E0"/>
					<stop offset="0.1327" style="stop-color:#C9C9C9"/>
					<stop offset="0.182" style="stop-color:#AAAAAA"/>
					<stop offset="0.1871" style="stop-color:#A6A6A6"/>
					<stop offset="0.3878" style="stop-color:#767676"/>
					<stop offset="0.6779" style="stop-color:#373737"/>
					<stop offset="0.89" style="stop-color:#0F0F0F"/>
					<stop offset="1" style="stop-color:#000000"/>
				</linearGradient>
				<path mask="url(#SVGID_1_)" fill="url(#SVGID_2_)" d="M269.065,236.058c2.243-0.143,4.497-0.092,6.734,0.109      c-0.21-0.599-0.397-1.21-0.564-1.829C273.236,235.068,271.174,235.658,269.065,236.058z" originalFill="url(#SVGID_2_)"/>
			</g>
		</mask>
		<linearGradient id="SVGID_3_" gradientUnits="userSpaceOnUse" x1="269.0654" y1="235.2529" x2="282.0307" y2="235.2529">
			<stop offset="0" style="stop-color:#F3D1BB"/>
			<stop offset="0.1871" style="stop-color:#F3D1BB"/>
			<stop offset="0.5167" style="stop-color:#F4DAC8"/>
			<stop offset="1" style="stop-color:#F4E3D6"/>
		</linearGradient>
		<path opacity="0.67" fill="url(#SVGID_3_)" d="M269.065,236.058c2.243-0.143,4.497-0.092,6.734,0.109    c-0.21-0.599-0.397-1.21-0.564-1.829C273.236,235.068,271.174,235.658,269.065,236.058z" originalFill="url(#SVGID_3_)"/>
		<defs>
			<filter id="Adobe_OpacityMaskFilter_2_" filterUnits="userSpaceOnUse" x="281.747" y="232.246" width="0.284" height="2.656">
				<feFlood style="flood-color:white;flood-opacity:1" result="back"/>
				<feBlend in="SourceGraphic" in2="back" mode="normal"/>
			</filter>
		</defs>
		<mask maskUnits="userSpaceOnUse" x="281.747" y="232.246" width="0.284" height="2.656" id="SVGID_4_">
			<g filter="url(#Adobe_OpacityMaskFilter_2_)">
				<defs>
					<filter id="Adobe_OpacityMaskFilter_3_" filterUnits="userSpaceOnUse" x="281.747" y="232.246" width="0.284" height="2.656">
						<feFlood style="flood-color:white;flood-opacity:1" result="back"/>
						<feBlend in="SourceGraphic" in2="back" mode="normal"/>
					</filter>
				</defs>
				<mask maskUnits="userSpaceOnUse" x="281.747" y="232.246" width="0.284" height="2.656" id="SVGID_4_">
					<g filter="url(#Adobe_OpacityMaskFilter_3_)">
					</g>
				</mask>
				<linearGradient id="SVGID_5_" gradientUnits="userSpaceOnUse" x1="269.0791" y1="233.5732" x2="282.031" y2="233.5732">
					<stop offset="0" style="stop-color:#F2F2F2"/>
					<stop offset="0.0399" style="stop-color:#EEEEEE"/>
					<stop offset="0.085" style="stop-color:#E0E0E0"/>
					<stop offset="0.1327" style="stop-color:#C9C9C9"/>
					<stop offset="0.182" style="stop-color:#AAAAAA"/>
					<stop offset="0.1871" style="stop-color:#A6A6A6"/>
					<stop offset="0.3878" style="stop-color:#767676"/>
					<stop offset="0.6779" style="stop-color:#373737"/>
					<stop offset="0.89" style="stop-color:#0F0F0F"/>
					<stop offset="1" style="stop-color:#000000"/>
				</linearGradient>
				<path mask="url(#SVGID_4_)" fill="url(#SVGID_5_)" d="M281.944,232.489c-0.046-0.095-0.115-0.176-0.197-0.244      c0.113,1.104,0.214,1.996,0.234,2.202c0.015,0.153,0.03,0.303,0.045,0.454c0.001-0.611,0.003-1.222,0.005-1.833      C282.031,232.872,282.03,232.669,281.944,232.489z" originalFill="url(#SVGID_5_)"/>
			</g>
		</mask>
		<linearGradient id="SVGID_6_" gradientUnits="userSpaceOnUse" x1="269.0791" y1="233.5732" x2="282.031" y2="233.5732">
			<stop offset="0" style="stop-color:#F3D1BB"/>
			<stop offset="0.1871" style="stop-color:#F3D1BB"/>
			<stop offset="0.5167" style="stop-color:#F4DAC8"/>
			<stop offset="1" style="stop-color:#F4E3D6"/>
		</linearGradient>
		<path opacity="0.67" fill="url(#SVGID_6_)" d="M281.944,232.489c-0.046-0.095-0.115-0.176-0.197-0.244    c0.113,1.104,0.214,1.996,0.234,2.202c0.015,0.153,0.03,0.303,0.045,0.454c0.001-0.611,0.003-1.222,0.005-1.833    C282.031,232.872,282.03,232.669,281.944,232.489z" originalFill="url(#SVGID_6_)"/>
		<path opacity="0.3" fill="#F3D1BB" d="M296.263,241.407c0.43-0.209,0.832-0.496,1.247-0.747c0.133-0.081,0.275-0.137,0.411-0.21    c1.482-0.8,3.099-1.202,4.715-1.43c1.8-0.254,3.614-0.328,5.417-0.556c0.332-0.042,0.663-0.095,0.995-0.147    c-0.046-0.368-0.091-0.736-0.138-1.104c-2.578,0.346-5.157,0.692-7.735,1.039c-0.978,0.131-1.972,0.268-2.878,0.728    c-0.125,0.063-0.243,0.151-0.364,0.229C297.178,239.694,296.523,240.434,296.263,241.407z" originalFill="#F3D1BB"/>
		<path opacity="0.3" fill="#F3D1BB" d="M311.193,237.935c0.846-0.169,1.69-0.351,2.533-0.535c0.437-0.095,1.005-0.446,0.851-0.947    c-1.208,0.162-2.417,0.324-3.626,0.487C311.03,237.272,311.111,237.604,311.193,237.935z" originalFill="#F3D1BB"/>
		<defs>
			<filter id="Adobe_OpacityMaskFilter_4_" filterUnits="userSpaceOnUse" x="277.809" y="250.716" width="15.002" height="23.651">
				<feFlood style="flood-color:white;flood-opacity:1" result="back"/>
				<feBlend in="SourceGraphic" in2="back" mode="normal"/>
			</filter>
		</defs>
		<mask maskUnits="userSpaceOnUse" x="277.809" y="250.716" width="15.002" height="23.651" id="SVGID_7_">
			<g filter="url(#Adobe_OpacityMaskFilter_4_)">
				<defs>
					
						<filter id="Adobe_OpacityMaskFilter_5_" filterUnits="userSpaceOnUse" x="277.809" y="250.716" width="15.002" height="23.651">
						<feFlood style="flood-color:white;flood-opacity:1" result="back"/>
						<feBlend in="SourceGraphic" in2="back" mode="normal"/>
					</filter>
				</defs>
				<mask maskUnits="userSpaceOnUse" x="277.809" y="250.716" width="15.002" height="23.651" id="SVGID_7_">
					<g filter="url(#Adobe_OpacityMaskFilter_5_)">
					</g>
				</mask>
				<linearGradient id="SVGID_8_" gradientUnits="userSpaceOnUse" x1="280.6421" y1="257.8359" x2="291.5686" y2="268.4992">
					<stop offset="0" style="stop-color:#000000"/>
					<stop offset="0.11" style="stop-color:#0F0F0F"/>
					<stop offset="0.3221" style="stop-color:#373737"/>
					<stop offset="0.6122" style="stop-color:#767676"/>
					<stop offset="0.8129" style="stop-color:#A6A6A6"/>
					<stop offset="0.8181" style="stop-color:#AAAAAA"/>
					<stop offset="0.8673" style="stop-color:#C9C9C9"/>
					<stop offset="0.915" style="stop-color:#E0E0E0"/>
					<stop offset="0.9601" style="stop-color:#EEEEEE"/>
					<stop offset="1" style="stop-color:#F2F2F2"/>
				</linearGradient>
				<path mask="url(#SVGID_7_)" fill="url(#SVGID_8_)" d="M287.927,254.085c-0.369-0.392-0.743-0.779-1.118-1.162      c-0.753-0.769-1.546-1.559-2.593-1.949c-1.544-0.575-3.384-0.139-4.696,0.801c-0.686,0.491-1.242,1.103-1.712,1.773      c0.121,0.936,0.271,1.869,0.479,2.795c1.45,6.436,5.653,12.686,12.079,14.882c-1.04,1.406-2.425,2.415-3.999,3.143      c2.332-0.769,4.888-1.728,5.914-3.781c0.607-1.214,0.556-2.604,0.494-3.936c-0.029-0.631-0.06-1.265-0.104-1.898      c-0.14-2.013-0.42-4.018-1.264-5.871C290.598,257.102,289.31,255.555,287.927,254.085z" originalFill="url(#SVGID_8_)"/>
			</g>
		</mask>
		<linearGradient id="SVGID_9_" gradientUnits="userSpaceOnUse" x1="280.6421" y1="257.8359" x2="291.5686" y2="268.4992">
			<stop offset="0" style="stop-color:#F4E3D6"/>
			<stop offset="0.4833" style="stop-color:#F4DAC8"/>
			<stop offset="0.8129" style="stop-color:#F3D1BB"/>
			<stop offset="1" style="stop-color:#F3D1BB"/>
		</linearGradient>
		<path opacity="0.67" fill="url(#SVGID_9_)" d="M287.927,254.085c-0.369-0.392-0.743-0.779-1.118-1.162    c-0.753-0.769-1.546-1.559-2.593-1.949c-1.544-0.575-3.384-0.139-4.696,0.801c-0.686,0.491-1.242,1.103-1.712,1.773    c0.121,0.936,0.271,1.869,0.479,2.795c1.45,6.436,5.653,12.686,12.079,14.882c-1.04,1.406-2.425,2.415-3.999,3.143    c2.332-0.769,4.888-1.728,5.914-3.781c0.607-1.214,0.556-2.604,0.494-3.936c-0.029-0.631-0.06-1.265-0.104-1.898    c-0.14-2.013-0.42-4.018-1.264-5.871C290.598,257.102,289.31,255.555,287.927,254.085z" originalFill="url(#SVGID_9_)"/>
		<defs>
			<filter id="Adobe_OpacityMaskFilter_6_" filterUnits="userSpaceOnUse" x="294.005" y="250.716" width="15.445" height="24.441">
				<feFlood style="flood-color:white;flood-opacity:1" result="back"/>
				<feBlend in="SourceGraphic" in2="back" mode="normal"/>
			</filter>
		</defs>
		<mask maskUnits="userSpaceOnUse" x="294.005" y="250.716" width="15.445" height="24.441" id="SVGID_10_">
			<g filter="url(#Adobe_OpacityMaskFilter_6_)">
				<defs>
					
						<filter id="Adobe_OpacityMaskFilter_7_" filterUnits="userSpaceOnUse" x="294.005" y="250.716" width="15.445" height="24.441">
						<feFlood style="flood-color:white;flood-opacity:1" result="back"/>
						<feBlend in="SourceGraphic" in2="back" mode="normal"/>
					</filter>
				</defs>
				<mask maskUnits="userSpaceOnUse" x="294.005" y="250.716" width="15.445" height="24.441" id="SVGID_10_">
					<g filter="url(#Adobe_OpacityMaskFilter_7_)">
					</g>
				</mask>
				
					<linearGradient id="SVGID_11_" gradientUnits="userSpaceOnUse" x1="6109.7676" y1="258.7363" x2="6120.6948" y2="269.4002" gradientTransform="matrix(-1 0 0 1 6416.8203 0)">
					<stop offset="0" style="stop-color:#000000"/>
					<stop offset="0.11" style="stop-color:#0F0F0F"/>
					<stop offset="0.3221" style="stop-color:#373737"/>
					<stop offset="0.6122" style="stop-color:#767676"/>
					<stop offset="0.8129" style="stop-color:#A6A6A6"/>
					<stop offset="0.8181" style="stop-color:#AAAAAA"/>
					<stop offset="0.8673" style="stop-color:#C9C9C9"/>
					<stop offset="0.915" style="stop-color:#E0E0E0"/>
					<stop offset="0.9601" style="stop-color:#EEEEEE"/>
					<stop offset="1" style="stop-color:#F2F2F2"/>
				</linearGradient>
				<path mask="url(#SVGID_10_)" fill="url(#SVGID_11_)" d="M297.249,271.225c6.292-2.196,10.408-8.446,11.828-14.881      c0.153-0.695,0.269-1.395,0.373-2.095c-0.553-0.943-1.238-1.816-2.155-2.473c-1.312-0.94-3.15-1.376-4.695-0.801      c-1.047,0.39-1.841,1.18-2.594,1.949c-1.782,1.821-3.572,3.705-4.597,5.958c-0.88,1.934-1.146,4.032-1.28,6.133      c-0.035,0.546-0.063,1.093-0.088,1.636c-0.062,1.333-0.113,2.722,0.494,3.936c1.029,2.059,3.597,3.019,5.934,3.788      c0.904,0.298,1.834,0.597,2.775,0.783C300.843,274.446,298.705,273.236,297.249,271.225z" originalFill="url(#SVGID_11_)"/>
			</g>
		</mask>
		
			<linearGradient id="SVGID_12_" gradientUnits="userSpaceOnUse" x1="6109.7676" y1="258.7363" x2="6120.6948" y2="269.4002" gradientTransform="matrix(-1 0 0 1 6416.8203 0)">
			<stop offset="0" style="stop-color:#F4E3D6"/>
			<stop offset="0.4833" style="stop-color:#F4DAC8"/>
			<stop offset="0.8129" style="stop-color:#F3D1BB"/>
			<stop offset="1" style="stop-color:#F3D1BB"/>
		</linearGradient>
		<path opacity="0.67" fill="url(#SVGID_12_)" d="M297.249,271.225c6.292-2.196,10.408-8.446,11.828-14.881    c0.153-0.695,0.269-1.395,0.373-2.095c-0.553-0.943-1.238-1.816-2.155-2.473c-1.312-0.94-3.15-1.376-4.695-0.801    c-1.047,0.39-1.841,1.18-2.594,1.949c-1.782,1.821-3.572,3.705-4.597,5.958c-0.88,1.934-1.146,4.032-1.28,6.133    c-0.035,0.546-0.063,1.093-0.088,1.636c-0.062,1.333-0.113,2.722,0.494,3.936c1.029,2.059,3.597,3.019,5.934,3.788    c0.904,0.298,1.834,0.597,2.775,0.783C300.843,274.446,298.705,273.236,297.249,271.225z" originalFill="url(#SVGID_12_)"/>
		<path fill="rgba(0, 0, 0, 1)" d="M266.751,259.49c-0.406,0.813-0.778,1.631-1.059,2.459c-0.572,1.689-0.823,3.41-0.508,5.168    c0.523,2.92,2.314,5.427,4.75,7.044c1.82,1.208,4,1.922,6.287,1.929c3.419,0.011,7.135-0.332,10.145-1.723    c1.574-0.728,2.959-1.736,3.999-3.143c-6.426-2.196-10.629-8.446-12.079-14.882c-0.208-0.926-0.358-1.859-0.479-2.795    c-0.494-3.835-0.313-7.736,0.089-11.623c0.05-0.484,0.104-0.967,0.161-1.451c-0.728-0.925-1.312-1.979-1.792-3.106    c-0.036,0.143-0.07,0.286-0.106,0.429c-0.337,1.326-0.706,2.644-1.105,3.955c-0.829,2.724-1.783,5.412-2.874,8.048    C270.888,252.93,268.419,256.149,266.751,259.49z" originalFill="#FFFFFF"/>
		<path fill="rgba(0, 0, 0, 1)" d="M309.048,238.317c0.45,3.63,0.837,7.294,0.79,10.928c-0.022,1.677-0.143,3.346-0.388,5.003    c-0.104,0.7-0.22,1.399-0.373,2.095c-1.42,6.436-5.536,12.686-11.828,14.881c1.456,2.011,3.594,3.221,5.995,3.933    c2.488,0.738,5.259,0.941,7.854,0.933c1.762-0.006,3.455-0.454,4.968-1.229c2.982-1.53,5.247-4.358,5.842-7.745    c0.309-1.758,0.062-3.479-0.498-5.167c-0.955-2.881-2.818-5.667-4.412-8.38c-0.091-0.154-0.183-0.309-0.271-0.463    c-0.162,0.096-0.325,0.188-0.476,0.32c-0.208-0.697-0.414-1.367-0.398-1.919c-0.293-0.571-0.567-1.14-0.796-1.705    c-1.562-3.861-2.852-7.83-3.863-11.866c-0.082-0.331-0.163-0.663-0.242-0.995c-0.427-1.79-0.805-3.59-1.119-5.402    c-0.545-0.21-1.208-0.675-1.753-0.886c0.255,2.012,0.511,4.023,0.766,6.034c0.022,0.176,0.043,0.352,0.065,0.528    C308.957,237.581,309.002,237.949,309.048,238.317z" originalFill="#FFFFFF"/>
		<path opacity="0.66" fill="#EFCAA6" d="M296.223,299.459c-0.968,0.151-1.821,0.822-2.579,1.557l0.647-0.417    c0.382,0.81,1.333,0.91,2.094,0.711c0.761-0.199,1.523-0.599,2.289-0.426C298.289,299.814,297.191,299.308,296.223,299.459z" originalFill="#EFCAA6"/>
		<defs>
			<filter id="Adobe_OpacityMaskFilter_8_" filterUnits="userSpaceOnUse" x="302.285" y="405.346" width="9.679" height="5.38">
				<feFlood style="flood-color:white;flood-opacity:1" result="back"/>
				<feBlend in="SourceGraphic" in2="back" mode="normal"/>
			</filter>
		</defs>
		<mask maskUnits="userSpaceOnUse" x="302.285" y="405.346" width="9.679" height="5.38" id="SVGID_13_">
			<g filter="url(#Adobe_OpacityMaskFilter_8_)">
				<defs>
					<filter id="Adobe_OpacityMaskFilter_9_" filterUnits="userSpaceOnUse" x="302.285" y="405.346" width="9.679" height="5.38">
						<feFlood style="flood-color:white;flood-opacity:1" result="back"/>
						<feBlend in="SourceGraphic" in2="back" mode="normal"/>
					</filter>
				</defs>
				<mask maskUnits="userSpaceOnUse" x="302.285" y="405.346" width="9.679" height="5.38" id="SVGID_13_">
					<g filter="url(#Adobe_OpacityMaskFilter_9_)">
					</g>
				</mask>
				
					<linearGradient id="SVGID_14_" gradientUnits="userSpaceOnUse" x1="879.0156" y1="410.7266" x2="879.0156" y2="405.3467" gradientTransform="matrix(-1 0 0 1 1186.1406 0)">
					<stop offset="0" style="stop-color:#F2F2F2"/>
					<stop offset="0.0399" style="stop-color:#EEEEEE"/>
					<stop offset="0.085" style="stop-color:#E0E0E0"/>
					<stop offset="0.1327" style="stop-color:#C9C9C9"/>
					<stop offset="0.182" style="stop-color:#AAAAAA"/>
					<stop offset="0.1871" style="stop-color:#A6A6A6"/>
					<stop offset="0.3878" style="stop-color:#767676"/>
					<stop offset="0.6779" style="stop-color:#373737"/>
					<stop offset="0.89" style="stop-color:#0F0F0F"/>
					<stop offset="1" style="stop-color:#000000"/>
				</linearGradient>
				<path mask="url(#SVGID_13_)" fill="url(#SVGID_14_)" d="M311.087,408.62c0.314-0.52,0.634-1.052,0.779-1.65      c0.283-1.171-0.081-1.576-0.715-1.62c-1.062-0.074-2.878,0.868-3.651,0.911c-1.542,0.085-3.714,0.077-5.152-0.479      c-0.211-0.081,0.174,1.527,0.239,1.65c0.289,0.541,0.82,0.966,1.312,1.286c0.93,0.605,2.039,1.391,3.068,1.776      c0.905,0.339,1.968,0.337,2.773-0.218C310.321,409.876,310.713,409.239,311.087,408.62z" originalFill="url(#SVGID_14_)"/>
			</g>
		</mask>
		
			<linearGradient id="SVGID_15_" gradientUnits="userSpaceOnUse" x1="879.0156" y1="410.7266" x2="879.0156" y2="405.3467" gradientTransform="matrix(-1 0 0 1 1186.1406 0)">
			<stop offset="0" style="stop-color:#F3D1BB"/>
			<stop offset="0.1871" style="stop-color:#F3D1BB"/>
			<stop offset="0.5167" style="stop-color:#F4DAC8"/>
			<stop offset="1" style="stop-color:#F4E3D6"/>
		</linearGradient>
		<path opacity="0.67" fill="url(#SVGID_15_)" d="M311.087,408.62c0.314-0.52,0.634-1.052,0.779-1.65    c0.283-1.171-0.081-1.576-0.715-1.62c-1.062-0.074-2.878,0.868-3.651,0.911c-1.542,0.085-3.714,0.077-5.152-0.479    c-0.211-0.081,0.174,1.527,0.239,1.65c0.289,0.541,0.82,0.966,1.312,1.286c0.93,0.605,2.039,1.391,3.068,1.776    c0.905,0.339,1.968,0.337,2.773-0.218C310.321,409.876,310.713,409.239,311.087,408.62z" originalFill="url(#SVGID_15_)"/>
		<defs>
			<filter id="Adobe_OpacityMaskFilter_10_" filterUnits="userSpaceOnUse" x="262.496" y="250.202" width="7.584" height="3.698">
				<feFlood style="flood-color:white;flood-opacity:1" result="back"/>
				<feBlend in="SourceGraphic" in2="back" mode="normal"/>
			</filter>
		</defs>
		<mask maskUnits="userSpaceOnUse" x="262.496" y="250.202" width="7.584" height="3.698" id="SVGID_16_">
			<g filter="url(#Adobe_OpacityMaskFilter_10_)">
				<defs>
					<filter id="Adobe_OpacityMaskFilter_11_" filterUnits="userSpaceOnUse" x="262.496" y="250.202" width="7.584" height="3.698">
						<feFlood style="flood-color:white;flood-opacity:1" result="back"/>
						<feBlend in="SourceGraphic" in2="back" mode="normal"/>
					</filter>
				</defs>
				<mask maskUnits="userSpaceOnUse" x="262.496" y="250.202" width="7.584" height="3.698" id="SVGID_16_">
					<g filter="url(#Adobe_OpacityMaskFilter_11_)">
					</g>
				</mask>
				<linearGradient id="SVGID_17_" gradientUnits="userSpaceOnUse" x1="262.4961" y1="252.0508" x2="270.092" y2="252.0508">
					<stop offset="0" style="stop-color:#000000"/>
					<stop offset="0.11" style="stop-color:#0F0F0F"/>
					<stop offset="0.3221" style="stop-color:#373737"/>
					<stop offset="0.6122" style="stop-color:#767676"/>
					<stop offset="0.8129" style="stop-color:#A6A6A6"/>
					<stop offset="0.8181" style="stop-color:#AAAAAA"/>
					<stop offset="0.8673" style="stop-color:#C9C9C9"/>
					<stop offset="0.915" style="stop-color:#E0E0E0"/>
					<stop offset="0.9601" style="stop-color:#EEEEEE"/>
					<stop offset="1" style="stop-color:#F2F2F2"/>
				</linearGradient>
				<path mask="url(#SVGID_16_)" fill="url(#SVGID_17_)" d="M269.685,253.425c0.239-0.802,0.475-1.567,0.37-2.158      c-0.088-0.497-0.413-0.872-1.217-1.021c-1.416-0.262-3.324,0.672-4.423,1.38c-1.02,0.657-1.9,1.021-1.918,2.273      c1.956-0.626,4.573-1.889,6.518-0.925c0.07,0.035,0.133,0.095,0.202,0.136C269.375,253.205,269.536,253.295,269.685,253.425z" originalFill="url(#SVGID_17_)"/>
			</g>
		</mask>
		<linearGradient id="SVGID_18_" gradientUnits="userSpaceOnUse" x1="262.4961" y1="252.0508" x2="270.092" y2="252.0508">
			<stop offset="0" style="stop-color:#F4E3D6"/>
			<stop offset="0.4833" style="stop-color:#F4DAC8"/>
			<stop offset="0.8129" style="stop-color:#F3D1BB"/>
			<stop offset="1" style="stop-color:#F3D1BB"/>
		</linearGradient>
		<path opacity="0.67" fill="url(#SVGID_18_)" d="M269.685,253.425c0.239-0.802,0.475-1.567,0.37-2.158    c-0.088-0.497-0.413-0.872-1.217-1.021c-1.416-0.262-3.324,0.672-4.423,1.38c-1.02,0.657-1.9,1.021-1.918,2.273    c1.956-0.626,4.573-1.889,6.518-0.925c0.07,0.035,0.133,0.095,0.202,0.136C269.375,253.205,269.536,253.295,269.685,253.425z" originalFill="url(#SVGID_18_)"/>
		<defs>
			<filter id="Adobe_OpacityMaskFilter_12_" filterUnits="userSpaceOnUse" x="315.853" y="250.202" width="7.587" height="3.698">
				<feFlood style="flood-color:white;flood-opacity:1" result="back"/>
				<feBlend in="SourceGraphic" in2="back" mode="normal"/>
			</filter>
		</defs>
		<mask maskUnits="userSpaceOnUse" x="315.853" y="250.202" width="7.587" height="3.698" id="SVGID_19_">
			<g filter="url(#Adobe_OpacityMaskFilter_12_)">
				<defs>
					<filter id="Adobe_OpacityMaskFilter_13_" filterUnits="userSpaceOnUse" x="315.853" y="250.202" width="7.587" height="3.698">
						<feFlood style="flood-color:white;flood-opacity:1" result="back"/>
						<feBlend in="SourceGraphic" in2="back" mode="normal"/>
					</filter>
				</defs>
				<mask maskUnits="userSpaceOnUse" x="315.853" y="250.202" width="7.587" height="3.698" id="SVGID_19_">
					<g filter="url(#Adobe_OpacityMaskFilter_13_)">
					</g>
				</mask>
				
					<linearGradient id="SVGID_20_" gradientUnits="userSpaceOnUse" x1="8548.8027" y1="252.0508" x2="8556.3994" y2="252.0508" gradientTransform="matrix(-1 0 0 1 8872.2412 0)">
					<stop offset="0" style="stop-color:#000000"/>
					<stop offset="0.11" style="stop-color:#0F0F0F"/>
					<stop offset="0.3221" style="stop-color:#373737"/>
					<stop offset="0.6122" style="stop-color:#767676"/>
					<stop offset="0.8129" style="stop-color:#A6A6A6"/>
					<stop offset="0.8181" style="stop-color:#AAAAAA"/>
					<stop offset="0.8673" style="stop-color:#C9C9C9"/>
					<stop offset="0.915" style="stop-color:#E0E0E0"/>
					<stop offset="0.9601" style="stop-color:#EEEEEE"/>
					<stop offset="1" style="stop-color:#F2F2F2"/>
				</linearGradient>
				<path mask="url(#SVGID_19_)" fill="url(#SVGID_20_)" d="M316.922,252.974c1.944-0.963,4.562,0.299,6.518,0.925      c-0.019-1.252-0.898-1.616-1.918-2.273c-1.1-0.708-3.008-1.642-4.424-1.38c-0.929,0.171-1.228,0.641-1.245,1.259      c0.272,0.53,0.565,1.064,0.874,1.6C316.793,253.066,316.854,253.008,316.922,252.974z" originalFill="url(#SVGID_20_)"/>
			</g>
		</mask>
		
			<linearGradient id="SVGID_21_" gradientUnits="userSpaceOnUse" x1="8548.8027" y1="252.0508" x2="8556.3994" y2="252.0508" gradientTransform="matrix(-1 0 0 1 8872.2412 0)">
			<stop offset="0" style="stop-color:#F4E3D6"/>
			<stop offset="0.4833" style="stop-color:#F4DAC8"/>
			<stop offset="0.8129" style="stop-color:#F3D1BB"/>
			<stop offset="1" style="stop-color:#F3D1BB"/>
		</linearGradient>
		<path opacity="0.67" fill="url(#SVGID_21_)" d="M316.922,252.974c1.944-0.963,4.562,0.299,6.518,0.925    c-0.019-1.252-0.898-1.616-1.918-2.273c-1.1-0.708-3.008-1.642-4.424-1.38c-0.929,0.171-1.228,0.641-1.245,1.259    c0.272,0.53,0.565,1.064,0.874,1.6C316.793,253.066,316.854,253.008,316.922,252.974z" originalFill="url(#SVGID_21_)"/>
		<path fill="rgba(0, 0, 0, 1)" d="M316.727,253.105c-0.309-0.536-0.602-1.069-0.874-1.6c-0.016,0.552,0.19,1.222,0.398,1.919    C316.401,253.293,316.564,253.201,316.727,253.105z" originalFill="#FFFFFF"/>
		<defs>
			<filter id="Adobe_OpacityMaskFilter_14_" filterUnits="userSpaceOnUse" x="315.852" y="251.505" width="0.875" height="1.919">
				<feFlood style="flood-color:white;flood-opacity:1" result="back"/>
				<feBlend in="SourceGraphic" in2="back" mode="normal"/>
			</filter>
		</defs>
		<mask maskUnits="userSpaceOnUse" x="315.852" y="251.505" width="0.875" height="1.919" id="SVGID_22_">
			<g filter="url(#Adobe_OpacityMaskFilter_14_)">
				<defs>
					<filter id="Adobe_OpacityMaskFilter_15_" filterUnits="userSpaceOnUse" x="315.852" y="251.505" width="0.875" height="1.919">
						<feFlood style="flood-color:white;flood-opacity:1" result="back"/>
						<feBlend in="SourceGraphic" in2="back" mode="normal"/>
					</filter>
				</defs>
				<mask maskUnits="userSpaceOnUse" x="315.852" y="251.505" width="0.875" height="1.919" id="SVGID_22_">
					<g filter="url(#Adobe_OpacityMaskFilter_15_)">
					</g>
				</mask>
				
					<linearGradient id="SVGID_23_" gradientUnits="userSpaceOnUse" x1="8548.8066" y1="252.4648" x2="8556.3994" y2="252.4648" gradientTransform="matrix(-1 0 0 1 8872.2412 0)">
					<stop offset="0" style="stop-color:#000000"/>
					<stop offset="0.11" style="stop-color:#0F0F0F"/>
					<stop offset="0.3221" style="stop-color:#373737"/>
					<stop offset="0.6122" style="stop-color:#767676"/>
					<stop offset="0.8129" style="stop-color:#A6A6A6"/>
					<stop offset="0.8181" style="stop-color:#AAAAAA"/>
					<stop offset="0.8673" style="stop-color:#C9C9C9"/>
					<stop offset="0.915" style="stop-color:#E0E0E0"/>
					<stop offset="0.9601" style="stop-color:#EEEEEE"/>
					<stop offset="1" style="stop-color:#F2F2F2"/>
				</linearGradient>
				<path mask="url(#SVGID_22_)" fill="url(#SVGID_23_)" d="M316.727,253.105c-0.309-0.536-0.602-1.069-0.874-1.6      c-0.016,0.552,0.19,1.222,0.398,1.919C316.401,253.293,316.564,253.201,316.727,253.105z" originalFill="url(#SVGID_23_)"/>
			</g>
		</mask>
		
			<linearGradient id="SVGID_24_" gradientUnits="userSpaceOnUse" x1="8548.8066" y1="252.4648" x2="8556.3994" y2="252.4648" gradientTransform="matrix(-1 0 0 1 8872.2412 0)">
			<stop offset="0" style="stop-color:#F4E3D6"/>
			<stop offset="0.4833" style="stop-color:#F4DAC8"/>
			<stop offset="0.8129" style="stop-color:#F3D1BB"/>
			<stop offset="1" style="stop-color:#F3D1BB"/>
		</linearGradient>
		<path opacity="0.67" fill="url(#SVGID_24_)" d="M316.727,253.105c-0.309-0.536-0.602-1.069-0.874-1.6    c-0.016,0.552,0.19,1.222,0.398,1.919C316.401,253.293,316.564,253.201,316.727,253.105z" originalFill="url(#SVGID_24_)"/>
		<path fill="rgba(0, 0, 0, 1)" d="M307.176,320.744c2.083-2.037,4.79-3.205,7.38-4.489c-1.103-0.07-2.206-0.141-3.311-0.186    c-0.483-0.02-1.686,0.107-2.614,0.056c-1.18,0.378-2.375,0.709-3.583,0.986c-4.454,1.021-9.063,1.357-13.619,1.018    c-3.727-0.277-7.421-1.016-10.966-2.202c-0.012,0.089-0.02,0.179-0.034,0.268c0.023-0.153-0.148-0.29-0.466-0.413    c0.05,0.171,0.058,0.293-0.03,0.274c-0.066-0.013-0.133-0.026-0.199-0.039c-0.917-0.181-1.843-0.312-2.771-0.42    c1.792,0.839,3.511,1.762,5.078,2.731c0.323,0.2,0.657,0.401,0.986,0.603c4.72,2.876,9.974,5.845,13.915,9.636    c0.731,0.703,1.46,1.565,1.438,2.579c0.009-0.401,0.056-0.778,0.12-1.144C299.305,325.486,304.182,323.672,307.176,320.744z" originalFill="#FFFFFF"/>
		<path fill="rgba(0, 0, 0, 1)" d="M318.959,203.202c-0.063-3.413-0.384-6.818-0.957-10.184c-0.131-1.031-0.326-2.053-0.594-3.057    c-0.389-1.78-0.826-3.548-1.357-5.291c-0.819-2.686-1.843-5.384-3.682-7.506c-1.346-1.553-3.07-2.729-4.838-3.776    c-6.704-3.972-14.866-6.353-22.333-4.128c-1.383,0.412-2.728,0.98-3.922,1.789c-1.542,1.046-2.796,2.468-3.882,3.982    c-1.338,1.863-2.422,3.878-3.321,5.98c-0.161,0.18-0.321,0.36-0.467,0.554c-0.68,0.908-1.167,1.948-1.552,3.016    c-1.056,2.921-1.374,6.01-1.387,9.13c-0.002,0.657-0.019,1.306-0.041,1.951c-0.153,1.662-0.242,3.329-0.27,4.997    c-0.277,4.363-0.51,8.634,0.437,13.273c0.646,3.165,1.505,6.284,2.346,9.408c-0.107-0.132-0.215-0.263-0.319-0.395    c0.327,3.182,0.547,6.673-1.04,9.371c-0.151,0.257-0.297,0.516-0.482,0.757c-1.087,1.413-2.738,2.378-4.503,2.632    c2.303,0.15,4.719-0.233,6.615-1.549c0.544-0.377,1.025-0.849,1.439-1.373c0.116,0.519,0.246,1.037,0.386,1.553    c0.167,0.619,0.354,1.23,0.564,1.829c0.074,0.212,0.15,0.424,0.231,0.632c0.075,0.192,0.156,0.38,0.236,0.569    c0.479,1.127,1.064,2.181,1.792,3.106c0.464,0.59,0.986,1.127,1.577,1.596c0.606,0.479,1.277,0.894,2.038,1.213    c1.831,0.77,3.963,0.894,5.819,0.22c0.202-0.073,0.394-0.173,0.588-0.266c0.115-0.055,0.236-0.095,0.348-0.157    c0.917-0.502,1.74-1.254,2.108-2.232c-1.702,1.48-4.489,1.181-6.2-0.289c-0.646-0.556-1.086-1.163-1.41-1.806    c-0.177-0.352-0.325-0.713-0.436-1.088c-0.258-0.868-0.369-1.796-0.464-2.766c-0.015-0.151-0.03-0.3-0.045-0.454    c-0.02-0.206-0.121-1.098-0.234-2.202c-0.073-0.706-0.15-1.493-0.216-2.254c0.878-0.303,1.756-0.607,2.645-0.897    c0.715-0.233,1.416-0.436,2.079-0.581c0.409-3.195,0.57-6.408,0.483-9.618c-1.572-1.046-2.961-2.385-4.081-3.963    c-0.674-0.95-1.26-1.975-1.713-3.083c-0.765-1.87-0.752-4.23-1.555-5.946c0.032-0.083,0.074-0.16,0.102-0.243    c0.439-1.298,0.498-2.689,0.552-4.059c0.092-2.339,0.185-4.679,0.278-7.019c0.003-0.08,0.005-0.16,0.006-0.241    c0.568-1.349,1.386-2.696,1.912-4.041c0.226-0.579,0.695-1.576,1.131-2.68c4.049,2.615,8.386,4.783,12.906,6.458    c3.983,1.476,9.344,3.614,13.742,3.657c0.051,1.289,0.102,2.577,0.152,3.865c0.029,0.738,0.065,1.482,0.156,2.215    c-0.099,0.058-0.195,0.119-0.274,0.202c-0.667,0.699-0.393,3.43-0.557,4.41c-0.414,2.474-1.217,4.931-2.701,6.957    c-0.311,0.424-0.641,0.835-1.015,1.217c-1.024,1.043-2.347,2.035-3.729,2.827c-0.352,2.998-0.114,6.036,0.704,8.977    c0.818,0.138,1.714,0.389,2.632,0.69c2.087,0.683,4.025,1.662,6.115,2.338c1.094,0.354,2.223,0.618,3.357,0.867    c0.837,0.041,1.683,0.026,2.531-0.007c-0.567-0.261-1.051-0.702-1.304-1.275c-0.231-0.524-0.284-1.109-0.311-1.682    c-0.306-6.53,3.22-12.274,3.288-18.886C319.09,208.036,319.079,205.616,318.959,203.202z M304.31,194.414    c-1.984-1.395-3.71-3.272-4.499-5.565c1.113,0.748,2.308,1.516,3.55,2.033c1.11,0.463,2.183,0.404,3.232,1.078    c1.28,0.82,2.392,1.883,3.319,3.087c0.031,0.782,0.062,1.564,0.093,2.346C308.03,196.542,306.066,195.648,304.31,194.414z" originalFill="#D4CCA3"/>
		<defs>
			<filter id="Adobe_OpacityMaskFilter_16_" filterUnits="userSpaceOnUse" x="280.303" y="306.263" width="28.307" height="6.548">
				<feFlood style="flood-color:white;flood-opacity:1" result="back"/>
				<feBlend in="SourceGraphic" in2="back" mode="normal"/>
			</filter>
		</defs>
		<mask maskUnits="userSpaceOnUse" x="280.303" y="306.263" width="28.307" height="6.548" id="SVGID_25_">
			<g filter="url(#Adobe_OpacityMaskFilter_16_)">
				<defs>
					
						<filter id="Adobe_OpacityMaskFilter_17_" filterUnits="userSpaceOnUse" x="280.303" y="306.263" width="28.307" height="6.548">
						<feFlood style="flood-color:white;flood-opacity:1" result="back"/>
						<feBlend in="SourceGraphic" in2="back" mode="normal"/>
					</filter>
				</defs>
				<mask maskUnits="userSpaceOnUse" x="280.303" y="306.263" width="28.307" height="6.548" id="SVGID_25_">
					<g filter="url(#Adobe_OpacityMaskFilter_17_)">
					</g>
				</mask>
				<linearGradient id="SVGID_26_" gradientUnits="userSpaceOnUse" x1="294.4565" y1="312.8105" x2="294.4565" y2="305.2245">
					<stop offset="0" style="stop-color:#F2F2F2"/>
					<stop offset="0.0399" style="stop-color:#EEEEEE"/>
					<stop offset="0.085" style="stop-color:#E0E0E0"/>
					<stop offset="0.1327" style="stop-color:#C9C9C9"/>
					<stop offset="0.182" style="stop-color:#AAAAAA"/>
					<stop offset="0.1871" style="stop-color:#A6A6A6"/>
					<stop offset="0.3878" style="stop-color:#767676"/>
					<stop offset="0.6779" style="stop-color:#373737"/>
					<stop offset="0.89" style="stop-color:#0F0F0F"/>
					<stop offset="1" style="stop-color:#000000"/>
				</linearGradient>
				<path mask="url(#SVGID_25_)" fill="url(#SVGID_26_)" d="M301.871,311.764c2.04-0.403,4.187-0.986,6.067-1.913      c0.134-1.208,0.357-2.408,0.671-3.588c-4.492,1.114-9.013,2.109-13.611,2.592c-4.899,0.514-9.915,0.408-14.695-0.718      c0.104,0.569,0.194,1.142,0.258,1.716c2.511,1.47,5.381,2.365,8.279,2.732C293.176,313.135,297.582,312.611,301.871,311.764z" originalFill="url(#SVGID_26_)"/>
			</g>
		</mask>
		<linearGradient id="SVGID_27_" gradientUnits="userSpaceOnUse" x1="294.4565" y1="312.8105" x2="294.4565" y2="305.2245">
			<stop offset="0" style="stop-color:#F3D1BB"/>
			<stop offset="0.1871" style="stop-color:#F3D1BB"/>
			<stop offset="0.5167" style="stop-color:#F4DAC8"/>
			<stop offset="1" style="stop-color:#F4E3D6"/>
		</linearGradient>
		<path opacity="0.67" fill="url(#SVGID_27_)" d="M301.871,311.764c2.04-0.403,4.187-0.986,6.067-1.913    c0.134-1.208,0.357-2.408,0.671-3.588c-4.492,1.114-9.013,2.109-13.611,2.592c-4.899,0.514-9.915,0.408-14.695-0.718    c0.104,0.569,0.194,1.142,0.258,1.716c2.511,1.47,5.381,2.365,8.279,2.732C293.176,313.135,297.582,312.611,301.871,311.764z" originalFill="url(#SVGID_27_)"/>
		<path fill="#F4D9BF" d="M274.096,315.375c0.958,0.035,1.915,0.111,2.867,0.222c0.928,0.108,1.854,0.239,2.771,0.42    c0.066,0.013,0.133,0.026,0.199,0.039c0.088,0.019,0.08-0.104,0.03-0.274c-1.378-0.535-5.511-0.802-8.371-0.917    c-1.349-0.054-2.414-0.075-2.774-0.074c-1.56,0.002-3.117-0.074-4.529-0.439c-0.327,0.744-0.574,1.675-0.84,2.203    c0.041-0.012,0.083-0.019,0.124-0.029C266.999,315.625,270.557,315.245,274.096,315.375z" originalFill="#F4D9BF"/>
		<path fill="#F4D9BF" d="M307.508,315.818c0.062,0.07,0.158,0.126,0.279,0.17c0.076,0.027,0.17,0.047,0.264,0.065    c-0.079-0.542-0.136-1.087-0.179-1.632C307.367,314.745,307.007,315.262,307.508,315.818z" originalFill="#F4D9BF"/>
		<path fill="#F4D9BF" d="M319.681,314.79c-0.36-0.001-1.426,0.021-2.774,0.074c-3.328,0.134-8.374,0.474-8.803,1.202    c0.159,0.029,0.336,0.049,0.527,0.059c0.929,0.052,2.131-0.075,2.614-0.056c1.104,0.045,2.208,0.115,3.311,0.186    c1.827,0.117,3.651,0.256,5.472,0.443c-0.094-0.568,0.24-1.216,0.558-1.808c0.02-0.037,0.04-0.076,0.061-0.113    C320.324,314.785,320.003,314.79,319.681,314.79z" originalFill="#F4D9BF"/>
		<defs>
			<filter id="Adobe_OpacityMaskFilter_18_" filterUnits="userSpaceOnUse" x="261.208" y="318.437" width="1.58" height="5.098">
				<feFlood style="flood-color:white;flood-opacity:1" result="back"/>
				<feBlend in="SourceGraphic" in2="back" mode="normal"/>
			</filter>
		</defs>
		<mask maskUnits="userSpaceOnUse" x="261.208" y="318.437" width="1.58" height="5.098" id="SVGID_28_">
			<g filter="url(#Adobe_OpacityMaskFilter_18_)">
				<defs>
					<filter id="Adobe_OpacityMaskFilter_19_" filterUnits="userSpaceOnUse" x="261.208" y="318.437" width="1.58" height="5.098">
						<feFlood style="flood-color:white;flood-opacity:1" result="back"/>
						<feBlend in="SourceGraphic" in2="back" mode="normal"/>
					</filter>
				</defs>
				<mask maskUnits="userSpaceOnUse" x="261.208" y="318.437" width="1.58" height="5.098" id="SVGID_28_">
					<g filter="url(#Adobe_OpacityMaskFilter_19_)">
					</g>
				</mask>
				<linearGradient id="SVGID_29_" gradientUnits="userSpaceOnUse" x1="261.1021" y1="320.9854" x2="290.087" y2="320.9854">
					<stop offset="0" style="stop-color:#F2F2F2"/>
					<stop offset="0.0399" style="stop-color:#EEEEEE"/>
					<stop offset="0.085" style="stop-color:#E0E0E0"/>
					<stop offset="0.1327" style="stop-color:#C9C9C9"/>
					<stop offset="0.182" style="stop-color:#AAAAAA"/>
					<stop offset="0.1871" style="stop-color:#A6A6A6"/>
					<stop offset="0.3878" style="stop-color:#767676"/>
					<stop offset="0.6779" style="stop-color:#373737"/>
					<stop offset="0.89" style="stop-color:#0F0F0F"/>
					<stop offset="1" style="stop-color:#000000"/>
				</linearGradient>
				<path mask="url(#SVGID_28_)" fill="url(#SVGID_29_)" d="M261.593,321.19c-0.18,0.723-0.305,1.509-0.384,2.344      c0.431-1.749,0.959-3.461,1.58-5.098C262.255,319.179,261.862,320.109,261.593,321.19z" originalFill="url(#SVGID_29_)"/>
			</g>
		</mask>
		<linearGradient id="SVGID_30_" gradientUnits="userSpaceOnUse" x1="261.1021" y1="320.9854" x2="290.087" y2="320.9854">
			<stop offset="0" style="stop-color:#F3D1BB"/>
			<stop offset="0.1871" style="stop-color:#F3D1BB"/>
			<stop offset="0.5167" style="stop-color:#F4DAC8"/>
			<stop offset="1" style="stop-color:#F4E3D6"/>
		</linearGradient>
		<path opacity="0.67" fill="url(#SVGID_30_)" d="M261.593,321.19c-0.18,0.723-0.305,1.509-0.384,2.344    c0.431-1.749,0.959-3.461,1.58-5.098C262.255,319.179,261.862,320.109,261.593,321.19z" originalFill="url(#SVGID_30_)"/>
		<defs>
			<filter id="Adobe_OpacityMaskFilter_20_" filterUnits="userSpaceOnUse" x="261.103" y="316.58" width="28.989" height="65.297">
				<feFlood style="flood-color:white;flood-opacity:1" result="back"/>
				<feBlend in="SourceGraphic" in2="back" mode="normal"/>
			</filter>
		</defs>
		<mask maskUnits="userSpaceOnUse" x="261.103" y="316.58" width="28.989" height="65.297" id="SVGID_31_">
			<g filter="url(#Adobe_OpacityMaskFilter_20_)">
				<defs>
					
						<filter id="Adobe_OpacityMaskFilter_21_" filterUnits="userSpaceOnUse" x="261.103" y="316.58" width="28.989" height="65.297">
						<feFlood style="flood-color:white;flood-opacity:1" result="back"/>
						<feBlend in="SourceGraphic" in2="back" mode="normal"/>
					</filter>
				</defs>
				<mask maskUnits="userSpaceOnUse" x="261.103" y="316.58" width="28.989" height="65.297" id="SVGID_31_">
					<g filter="url(#Adobe_OpacityMaskFilter_21_)">
					</g>
				</mask>
				<linearGradient id="SVGID_32_" gradientUnits="userSpaceOnUse" x1="261.1025" y1="349.2285" x2="290.0918" y2="349.2285">
					<stop offset="0" style="stop-color:#F2F2F2"/>
					<stop offset="0.0399" style="stop-color:#EEEEEE"/>
					<stop offset="0.085" style="stop-color:#E0E0E0"/>
					<stop offset="0.1327" style="stop-color:#C9C9C9"/>
					<stop offset="0.182" style="stop-color:#AAAAAA"/>
					<stop offset="0.1871" style="stop-color:#A6A6A6"/>
					<stop offset="0.3878" style="stop-color:#767676"/>
					<stop offset="0.6779" style="stop-color:#373737"/>
					<stop offset="0.89" style="stop-color:#0F0F0F"/>
					<stop offset="1" style="stop-color:#000000"/>
				</linearGradient>
				<path mask="url(#SVGID_31_)" fill="url(#SVGID_32_)" d="M265.608,347.659c3.322,7.001,8.12,13.181,12.878,19.298      c3.868,4.974,7.736,9.946,11.605,14.92c-0.884-1.136,0.024-7.968-0.318-9.823c-0.56-3.026-1.634-4.396-2.988-6.848      c-3.343-6.059-6.049-12.209-7.893-18.936c-1.631-5.951-1.907-12.296-4.36-18.018c-1.439-3.358-3.735-11.67-8.069-11.673      c-1.645-0.001-2.836,0.688-3.675,1.856c-0.62,1.637-1.148,3.349-1.58,5.098C260.436,331.673,264.085,344.448,265.608,347.659z" originalFill="url(#SVGID_32_)"/>
			</g>
		</mask>
		<linearGradient id="SVGID_33_" gradientUnits="userSpaceOnUse" x1="261.1025" y1="349.2285" x2="290.0918" y2="349.2285">
			<stop offset="0" style="stop-color:#F3D1BB"/>
			<stop offset="0.1871" style="stop-color:#F3D1BB"/>
			<stop offset="0.5167" style="stop-color:#F4DAC8"/>
			<stop offset="1" style="stop-color:#F4E3D6"/>
		</linearGradient>
		<path opacity="0.67" fill="url(#SVGID_33_)" d="M265.608,347.659c3.322,7.001,8.12,13.181,12.878,19.298    c3.868,4.974,7.736,9.946,11.605,14.92c-0.884-1.136,0.024-7.968-0.318-9.823c-0.56-3.026-1.634-4.396-2.988-6.848    c-3.343-6.059-6.049-12.209-7.893-18.936c-1.631-5.951-1.907-12.296-4.36-18.018c-1.439-3.358-3.735-11.67-8.069-11.673    c-1.645-0.001-2.836,0.688-3.675,1.856c-0.62,1.637-1.148,3.349-1.58,5.098C260.436,331.673,264.085,344.448,265.608,347.659z" originalFill="url(#SVGID_33_)"/>
		<defs>
			<filter id="Adobe_OpacityMaskFilter_22_" filterUnits="userSpaceOnUse" x="243.574" y="272.431" width="6.058" height="13.978">
				<feFlood style="flood-color:white;flood-opacity:1" result="back"/>
				<feBlend in="SourceGraphic" in2="back" mode="normal"/>
			</filter>
		</defs>
		<mask maskUnits="userSpaceOnUse" x="243.574" y="272.431" width="6.058" height="13.978" id="SVGID_34_">
			<g filter="url(#Adobe_OpacityMaskFilter_22_)">
				<defs>
					
						<filter id="Adobe_OpacityMaskFilter_23_" filterUnits="userSpaceOnUse" x="243.574" y="272.431" width="6.058" height="13.978">
						<feFlood style="flood-color:white;flood-opacity:1" result="back"/>
						<feBlend in="SourceGraphic" in2="back" mode="normal"/>
					</filter>
				</defs>
				<mask maskUnits="userSpaceOnUse" x="243.574" y="272.431" width="6.058" height="13.978" id="SVGID_34_">
					<g filter="url(#Adobe_OpacityMaskFilter_23_)">
					</g>
				</mask>
				<linearGradient id="SVGID_35_" gradientUnits="userSpaceOnUse" x1="243.5742" y1="279.4199" x2="249.6318" y2="279.4199">
					<stop offset="0" style="stop-color:#000000"/>
					<stop offset="0.11" style="stop-color:#0F0F0F"/>
					<stop offset="0.3221" style="stop-color:#373737"/>
					<stop offset="0.6122" style="stop-color:#767676"/>
					<stop offset="0.8129" style="stop-color:#A6A6A6"/>
					<stop offset="0.8181" style="stop-color:#AAAAAA"/>
					<stop offset="0.8673" style="stop-color:#C9C9C9"/>
					<stop offset="0.915" style="stop-color:#E0E0E0"/>
					<stop offset="0.9601" style="stop-color:#EEEEEE"/>
					<stop offset="1" style="stop-color:#F2F2F2"/>
				</linearGradient>
				<path mask="url(#SVGID_34_)" fill="url(#SVGID_35_)" d="M247.376,276.471c-0.198-0.639-0.4-1.287-0.754-1.854      c-0.674-1.083-1.84-1.775-3.048-2.186c1.7,4.356,3.399,8.712,5.099,13.068c0.172,0.441,0.481,0.969,0.951,0.905      c0.091-2.361-0.616-4.672-1.316-6.929C247.997,278.473,247.687,277.472,247.376,276.471z" originalFill="url(#SVGID_35_)"/>
			</g>
		</mask>
		<linearGradient id="SVGID_36_" gradientUnits="userSpaceOnUse" x1="243.5742" y1="279.4199" x2="249.6318" y2="279.4199">
			<stop offset="0" style="stop-color:#F4E3D6"/>
			<stop offset="0.4833" style="stop-color:#F4DAC8"/>
			<stop offset="0.8129" style="stop-color:#F3D1BB"/>
			<stop offset="1" style="stop-color:#F3D1BB"/>
		</linearGradient>
		<path opacity="0.67" fill="url(#SVGID_36_)" d="M247.376,276.471c-0.198-0.639-0.4-1.287-0.754-1.854    c-0.674-1.083-1.84-1.775-3.048-2.186c1.7,4.356,3.399,8.712,5.099,13.068c0.172,0.441,0.481,0.969,0.951,0.905    c0.091-2.361-0.616-4.672-1.316-6.929C247.997,278.473,247.687,277.472,247.376,276.471z" originalFill="url(#SVGID_36_)"/>
	</g>
</g>
</svg>