<svg xmlns="http://www.w3.org/2000/svg" xmlns:xlink="http://www.w3.org/1999/xlink" version="1.1" id="svg-edited-version" x="0px" y="0px" viewBox="0 0 595.275 595.275" enable-background="new 0 0 595.275 595.275" xml:space="preserve" class="injected-svg" data-src="https://preview.pixlr.com/images/svg/100/1/6b13e847af02eab73a59d91b30ed6ed8c13ed49d3bbed92881adb7cba66a8d8b.svg">
<g>
	<rect x="0" fill="rgba(160, 109, 232, 1)" width="595.276" height="595.275" originalFill="#E0A39A"/>
	<g>
		<path fill="#F9E8D8" d="M312.41,190.9c-0.069,0.046-0.132,0.1-0.169,0.182c0.294,0.539,0.487,1.163,0.372,1.766    c-0.088,0.455-0.392,0.882-0.798,1.08c-0.007,0.121-0.011,0.241-0.015,0.362c0.765-0.138,1.46-0.344,2.032-0.683    C313.436,192.672,312.932,191.78,312.41,190.9z" originalFill="#F9E8D8"/>
		<path fill="#F9E8D8" d="M277.371,194.72c-0.016-0.843-0.083-1.684-0.206-2.518c0,0.304-0.001,0.608-0.026,0.912    c-0.005,0.062-0.014,0.131-0.062,0.172c-0.043,0.038-0.106,0.041-0.163,0.037c-0.472-0.028-0.869-0.366-1.081-0.795    c-0.278,0.54-0.529,1.092-0.738,1.659c0.458,0.153,0.912,0.17,1.415,0.319C277.041,194.664,277.239,194.686,277.371,194.72z" originalFill="#F9E8D8"/>
		<path fill="#F9E8D8" d="M343.586,283.025c0.057-2.321-0.46-4.612-0.973-6.874c-1.834-8.075-3.668-16.148-5.499-24.223    c-1.731-7.636-2.076-19.831-9.719-24.109c-2.202-1.232-4.773-1.788-7.274-2.31c-1.115-0.606-2.501-0.637-3.908-0.647    c-0.949-0.007-1.906-0.009-2.795-0.175c-0.352-0.066-0.691-0.157-1.017-0.286c-0.922-0.365-1.853-0.704-2.784-1.042    c-0.236-0.083-0.473-0.165-0.709-0.247c-0.188-0.066-0.38-0.13-0.57-0.194c-1.034-0.366-2.066-0.734-3.117-1.077    c-1.45-0.473-2.849-0.834-3.965-0.799c-0.091-0.285-0.176-0.571-0.249-0.854c-0.857-3.3-1.127-6.749-0.81-10.144    c-0.054,0.173-0.129,0.34-0.233,0.487c-0.261,0.365-0.631,0.636-0.994,0.899c-0.597,0.434-1.194,0.867-1.791,1.301    c-0.809,0.587-1.691,1.199-2.691,1.197c-0.676-0.001-1.316-0.289-1.915-0.604c-1.158-0.611-2.248-1.351-3.243-2.2    c-0.521-0.445-1.047-0.979-1.124-1.659c0.006-0.004,0.013-0.006,0.019-0.011c1.908,1.59,4.062,3.551,6.711,3.155    c0.733-0.109,1.417-0.425,2.089-0.738c1.008-0.469,1.695-0.893,2.508-1.609c0.224-0.198,0.472-0.369,0.724-0.536    c0.253-0.166,0.51-0.327,0.751-0.501c0.893-0.646,1.64-1.409,2.293-2.246c0.918-1.177,1.645-2.505,2.279-3.895    c1.171-2.671,3.113-5.654,3.63-8.498c0.199-0.017,0.397-0.033,0.594-0.051c-0.096-0.749-0.134-1.51-0.163-2.265    c-0.054-1.352-0.107-2.703-0.16-4.054c-9.458-1.337-18.617-4.745-26.641-9.927c-0.437,1.104-0.906,2.102-1.132,2.681    c-0.582,1.49-1.224,2.956-1.922,4.394c-0.091,2.302-0.182,4.604-0.273,6.906c-0.052,1.305-0.117,2.627-0.502,3.873    c1.704,2.006,2.062,4.654,3.26,6.983c0.822,1.598,2.065,2.955,3.412,4.179c0.686,0.624,1.398,1.215,2.098,1.782    c0.13,0.106,0.262,0.214,0.395,0.325c0.091,3.894-0.107,7.794-0.589,11.66c-0.973,0.091-2.093,0.394-3.248,0.771    c-1.055,0.344-2.097,0.7-3.137,1.064c-1.358,0.475-2.708,0.967-4.045,1.497c-0.728,0.289-1.487,0.446-2.264,0.532    c-1.038,0.116-2.108,0.101-3.185,0.079c-1.423-0.029-2.855-0.066-4.233,0.183c-8.529,1.545-12.357,11.728-16.203,17.696    c-4.066,6.31-8.135,12.619-12.203,18.929c-1.139,1.767-2.29,3.558-2.902,5.529c-0.229,0.735-0.36,1.562-0.123,2.271    c-0.312,1.879-0.055,3.871,0.653,5.618c3.506,8.457,10.118,14.986,16.367,21.41c1.362,1.4,2.744,2.814,4.305,3.968    c3.241,3.153,6.025,4.847,10.917,4.842c0.199-0.001,0.619,0.006,1.178,0.021c0.013,0.378,0.072,0.74,0.17,1.089    c-0.47,1.414-0.479,2.974-0.468,4.481c0.14,20.068,7.722,38.963,16.129,56.95c0.851,1.821,1.708,3.637,2.569,5.439    c2.769,5.795,5.538,11.59,8.307,17.386c0.573,1.198,1.146,2.397,1.718,3.596c0.23,0.481,0.465,0.965,0.706,1.445    c-0.018,0.106-0.037,0.214-0.055,0.32c-2.164,12.718-3.47,25.211-4.065,38.106c-0.492,10.661,3.271,21.264,4.79,32.018    c0.047,5.311-0.104,10.764-2.651,15.54c-0.295,0.553-0.621,1.093-0.875,1.661c-0.395,0.881-0.611,1.812-0.808,2.745    c-0.024,0.112-0.049,0.225-0.072,0.336c-0.149,0.713-0.297,1.427-0.446,2.14c-0.46,2.21-0.921,4.42-1.382,6.63    c-0.137,0.654-0.259,1.383,0.145,1.944c0.532,0.74,1.688,0.826,2.675,0.828c5.121,0.013,10.243-0.114,15.355-0.379    c1.6-2.044,1.264-4.808,0.55-7.216c-0.021-0.074-0.046-0.148-0.068-0.222c-0.71-2.337-1.669-4.707-1.267-7.094    c0.036-0.214,0.085-0.428,0.138-0.641c0.275-1.117,0.704-2.224,0.524-3.348c-0.193-1.209-1.062-2.232-1.645-3.339    c-0.921-1.749-1.125-3.716-1.545-5.61c-0.219-0.986-0.524-1.988-0.995-2.901c1.2-7.27,1.521-16.25,1.749-18.049    c1.707-13.506,3.207-27.036,4.202-40.6c0.209-2.838,0.12-7.937-1.423-11.878c-0.087-0.221-0.178-0.438-0.273-0.65    c-0.062-0.14-0.129-0.276-0.196-0.413c-0.062-0.842-0.179-1.687-0.313-2.493c-0.56-3.351-1.118-6.701-1.678-10.052    c-1.942-11.636-3.885-23.271-5.827-34.906c-1.439-8.624-2.925-17.396-6.648-25.179c-0.29-0.616-0.601-1.229-0.926-1.834    c-0.027,0.042-0.054,0.083-0.081,0.125c-2.092-3.088-3.986-5.969-6.287-8.583c-1.357-1.542-2.854-2.992-4.62-4.335    c-0.349-0.266-2.259-1.392-4.558-2.636c0.059-0.521,0.105-1.041,0.13-1.563c9.324,3.065,19.684,3.014,28.954-0.203    c0.843-0.292,1.68-0.603,2.503-0.947c0.465-0.194,0.918-0.414,1.375-0.625c0.573-0.265,1.143-0.534,1.703-0.825    c0.701-0.363,1.401-0.73,2.081-1.135c0.021,0.006,0.032,0.019,0.052,0.026c-0.217-1.518-0.906-3.072-1.218-4.423    c-0.658-2.854-1.38-5.837-1.563-8.769c-0.415-6.654-0.395-13.473,1.513-19.815c1.023-3.406,2.197-7.014,2.243-10.611    c-0.397,0.781-0.905,1.498-1.5,2.136c-1.445,1.552-3.4,2.626-5.547,2.964c-0.462,0.073-0.931,0.119-1.407,0.12    c-1.255,0.004-2.558-0.052-3.839-0.212c-0.997-0.125-1.979-0.312-2.916-0.59c-2.065-0.612-3.904-1.653-5.156-3.382    c5.412-1.889,8.952-7.264,10.173-12.799c0.132-0.598,0.231-1.199,0.32-1.802c0.523-3.531,0.365-7.133-0.003-10.72    c-0.117-1.145-0.255-2.286-0.397-3.424c-0.008-0.057-0.015-0.113-0.021-0.169c-0.033-0.263-0.065-0.528-0.099-0.791    c-0.005-0.037-0.009-0.074-0.014-0.11c-0.009-0.072-0.019-0.143-0.027-0.215c-0.02-0.153-0.039-0.307-0.059-0.46    c-0.186-1.468-0.372-2.936-0.559-4.404c0.469,0.181,1.039,0.581,1.508,0.762c0.204,1.175,0.447,2.343,0.706,3.507    c0.027,0.123,0.047,0.248,0.075,0.371c0.016,0.07,0.031,0.141,0.047,0.212c0.066,0.286,0.15,0.566,0.22,0.852    c0.02,0.081,0.043,0.162,0.062,0.243c0.292,1.186,0.606,2.365,0.954,3.535c0.113,0.382,0.239,0.76,0.359,1.14    c0.489,1.558,1.024,3.101,1.612,4.626c0.156,0.406,0.294,0.818,0.457,1.221c0.293,0.723,0.666,1.453,1.071,2.188    c0.089,0.162,0.175,0.324,0.268,0.487c-0.105,0.562-0.146,0.918-0.088,0.947c0.257,0.125,0.524,0.209,0.798,0.267    c0.489,0.816,0.995,1.641,1.476,2.473c0.061-0.288,0.14-0.566,0.238-0.833c0.214-0.577,0.512-1.106,0.866-1.6    c1.387-0.085,2.786-0.107,3.966,1.011c1.114,1.057,1.457,2.701,1.729,4.236c1.028,5.813,1.737,12.466,4.815,17.599    c2.082,3.471,4.24,6.965,5.504,10.861c0.542,1.672,0.879,3.319,1.445,4.767c-0.413,0.538-0.746,1.148-0.977,1.785    c-0.644,1.776-0.653,3.72-0.654,5.616c-0.007,8.128-0.013,16.257-0.019,24.386c-0.002,2.614-0.822,6.694-0.826,10.237    c-1.796,6.515-2.273,13.391-1.359,20.086c0.772-2.061,1.545-4.121,2.317-6.182c1.457,3.935,1.492,10.098,3.189,14.276    c0.346,0.851,0.76,1.619,1.27,2.271c0.379-2.302,0.757-4.603,1.136-6.904c0.205-1.245,0.41-2.491,0.511-3.749    c0.337-4.182-0.685-8.01-1.439-12.066c-0.257-1.383-0.271-3.164-0.569-4.803c1.328-4.332,1.999-11.246,2.148-12.499    c0.977-8.194,3.95-15.731,4.172-23.953c0.052-1.921,0.082-3.9-0.421-5.731C343.498,284.238,343.571,283.616,343.586,283.025z     M265.991,297.947c-0.516,0.021-1.027,0.017-1.535-0.003c-1.959-2.476-4.57-5.065-4.903-5.357    c-7.998-7.014-10.477-16.386-12.026-26.131c-0.052-0.324-0.122-0.622-0.203-0.902c0.08-0.104,0.158-0.209,0.241-0.314    c2.325-2.942,5.389-5.305,8.374-7.669c4.414-3.496,7-8.911,9.65-13.532c0.658-1.147,1.409-2.351,2.632-2.982    c0.078-0.04,0.152-0.086,0.234-0.122c0.356-0.154,0.706-0.242,1.049-0.287c0.761-0.099,1.494,0.033,2.212,0.241    c0.238,0.069,0.476,0.146,0.711,0.227c-0.03,0.006-0.061,0.01-0.092,0.016c-0.232,0.564-0.432,1.127-0.619,1.69    c-0.769,2.318-1.173,4.632-1.308,6.944c0.222-0.608,0.491-1.211,0.79-1.81c1.435-2.873,3.558-5.642,4.67-8.333    c0.935-2.261,1.742-4.569,2.454-6.905c0.363-1.193,0.693-2.395,0.997-3.604c0.092-0.366,0.201-0.728,0.288-1.095    c0.046-0.193,0.082-0.389,0.125-0.583c0.266-1.169,0.515-2.341,0.724-3.521c0.315-0.119,0.675-0.331,1.021-0.515    c0.179-0.095,0.355-0.185,0.519-0.247c-0.22,1.699-0.44,3.398-0.66,5.097c-0.004,0.031-0.008,0.062-0.012,0.092    c-0.042,0.323-0.082,0.648-0.124,0.972c-0.151,1.179-0.295,2.362-0.417,3.547c-0.345,3.338-0.5,6.689-0.075,9.983    c0.104,0.805,0.233,1.607,0.412,2.404c1.247,5.535,4.862,10.91,10.388,12.799c-0.894,1.209-2.085,2.077-3.439,2.703    c-1.557,0.72-3.331,1.114-5.141,1.31c-1.199,0.13-2.412,0.176-3.583,0.172c-0.033,0-0.065-0.004-0.098-0.004    c-2.047-0.027-3.988-0.708-5.582-1.844c-1.222-0.871-2.235-2.009-2.929-3.328c1.004,7.619,3.677,15.234,4.248,22.908    c0.382,5.144-0.243,10.357-1.747,15.253C270.787,296.167,268.576,297.841,265.991,297.947z" originalFill="#F9E8D8"/>
		<path fill="none" d="M274.984,279.964c-0.571-7.673-3.244-15.289-4.248-22.908c-0.416-0.791-0.724-1.642-0.885-2.542    c-0.271-1.512-0.055-2.992,0.437-4.444c0.034-0.103,0.083-0.203,0.121-0.305c0.135-2.312,0.54-4.626,1.308-6.944    c-0.001-0.644,0-1.288-0.001-1.933c-0.718-0.208-1.451-0.34-2.212-0.241c-0.435,0.124-0.865,0.262-1.284,0.408    c-1.223,0.632-1.975,1.835-2.632,2.982c-2.65,4.621-5.236,10.036-9.65,13.532c-2.984,2.364-6.049,4.727-8.374,7.669    c-0.083,0.104-0.161,0.209-0.241,0.314c0.081,0.28,0.151,0.578,0.203,0.902c1.549,9.746,4.028,19.117,12.026,26.131    c0.333,0.292,2.944,2.882,4.903,5.357c0.508,0.02,1.019,0.024,1.535,0.003c2.585-0.106,4.796-1.78,7.246-2.73    C274.742,290.321,275.366,285.108,274.984,279.964z"/>
		<path opacity="0.2" fill="rgba(0, 0, 0, 1)" d="M313.783,488.821c-0.052,0.475-0.145,0.945-0.316,1.397    c-0.541,0.05-1.142,0.082-1.778,0.099c0.022,0.073,0.047,0.147,0.068,0.222c0.714,2.408,1.05,5.172-0.55,7.216    c-5.112,0.265-10.234,0.392-15.355,0.379c-0.987-0.002-2.144-0.088-2.675-0.828c-0.403-0.562-0.281-1.29-0.145-1.944    c0.461-2.21,0.922-4.42,1.382-6.63c-27.735,0.593-49.088,4.248-49.088,8.672c0,4.837,25.528,8.758,57.018,8.758    c31.49,0,57.018-3.921,57.018-8.758C359.361,493.168,339.791,489.636,313.783,488.821z" originalFill="#634E42"/>
		<path fill="#F4D9BF" d="M296.615,481.85c2.547-4.776,2.698-10.229,2.651-15.54c-1.519-10.754-5.282-21.356-4.79-32.018    c0.595-12.896,1.901-25.389,4.065-38.106c-0.353-0.793-1.323-2.278-2.306-3.723c-0.037,4.032-1.431,8.118-2.852,12.008    c-3.27,8.948-6.741,18.159-5.89,27.54c0.663,7.309,3.914,14.199,6.235,21.234c2.321,7.036,3.687,14.766,0.639,21.577    c-0.739,1.652-1.734,3.242-2.057,4.998c-0.507,2.763,0.62,4.863,2.622,6.436c0.197-0.933,0.413-1.864,0.808-2.745    C295.995,482.942,296.32,482.402,296.615,481.85z" originalFill="#F4D9BF"/>
		<path fill="#F4D9BF" d="M311.688,490.317c0.637-0.017,1.237-0.049,1.778-0.099c0.172-0.452,0.265-0.923,0.316-1.397    c0.22-1.995-0.584-4.085-2.226-5.468c-0.34-0.286-0.671-0.536-0.998-0.771c-0.053,0.213-0.102,0.427-0.138,0.641    C310.02,485.61,310.979,487.98,311.688,490.317z" originalFill="#F4D9BF"/>
		<path fill="#F4D9BF" d="M316.616,302.78c-0.44,0.769-1.286,1.194-2.083,1.581c-2.739,1.389-5.669,2.57-7.889,4.741    c-1.932,1.888-4.335,3.114-6.239,4.955c-0.431,0.416-0.759,0.924-1.082,1.428c-1.253,1.948-2.505,3.897-3.758,5.846    c0.326,0.605,0.636,1.218,0.926,1.834c3.723,7.783,5.208,16.555,6.648,25.179c1.942,11.635,3.885,23.271,5.827,34.906    c0.137-1.669,0.419-3.331,0.836-4.962c0.955-3.733,2.562-7.304,3.932-10.933c3.659-9.699,5.645-20.02,5.836-30.385    c0.097-5.248-0.264-10.505-1.082-15.689c-0.463-2.935-0.178-5.962-0.575-8.911c-0.195-1.447-0.908-2.831-1.049-4.234    c-0.17-1.687,0.45-3.551,0.4-5.282c-0.008-0.271-0.033-0.568-0.228-0.755c-0.017-0.017-0.039-0.021-0.057-0.035    C316.871,302.314,316.74,302.563,316.616,302.78z" originalFill="#F4D9BF"/>
		<defs>
			<filter id="Adobe_OpacityMaskFilter" filterUnits="userSpaceOnUse" x="285.297" y="367.999" width="10.939" height="24.464">
				<feFlood style="flood-color:white;flood-opacity:1" result="back"/>
				<feBlend in="SourceGraphic" in2="back" mode="normal"/>
			</filter>
		</defs>
		<mask maskUnits="userSpaceOnUse" x="285.297" y="367.999" width="10.939" height="24.464" id="SVGID_1_">
			<g filter="url(#Adobe_OpacityMaskFilter)">
				<defs>
					
						<filter id="Adobe_OpacityMaskFilter_1_" filterUnits="userSpaceOnUse" x="285.297" y="367.999" width="10.939" height="24.464">
						<feFlood style="flood-color:white;flood-opacity:1" result="back"/>
						<feBlend in="SourceGraphic" in2="back" mode="normal"/>
					</filter>
				</defs>
				<mask maskUnits="userSpaceOnUse" x="285.297" y="367.999" width="10.939" height="24.464" id="SVGID_1_">
					<g filter="url(#Adobe_OpacityMaskFilter_1_)">
					</g>
				</mask>
				<linearGradient id="SVGID_2_" gradientUnits="userSpaceOnUse" x1="270.1431" y1="380.2305" x2="299.6122" y2="380.2305">
					<stop offset="0" style="stop-color:#F2F2F2"/>
					<stop offset="0.0399" style="stop-color:#EEEEEE"/>
					<stop offset="0.085" style="stop-color:#E0E0E0"/>
					<stop offset="0.1327" style="stop-color:#C9C9C9"/>
					<stop offset="0.182" style="stop-color:#AAAAAA"/>
					<stop offset="0.1871" style="stop-color:#A6A6A6"/>
					<stop offset="0.3878" style="stop-color:#767676"/>
					<stop offset="0.6779" style="stop-color:#373737"/>
					<stop offset="0.89" style="stop-color:#0F0F0F"/>
					<stop offset="1" style="stop-color:#000000"/>
				</linearGradient>
				<path mask="url(#SVGID_1_)" fill="url(#SVGID_2_)" d="M296.173,390.824c-2.769-5.796-5.538-11.591-8.307-17.386      c-0.861-1.803-1.718-3.618-2.569-5.439c1.54,4.297,3.092,8.589,4.642,12.883c1.047,2.901,2.246,5.291,3.796,7.921      c0.279,0.473,1.397,2.04,2.5,3.66C296.241,391.916,296.221,391.369,296.173,390.824z" originalFill="url(#SVGID_2_)"/>
			</g>
		</mask>
		<linearGradient id="SVGID_3_" gradientUnits="userSpaceOnUse" x1="270.1431" y1="380.2305" x2="299.6122" y2="380.2305">
			<stop offset="0" style="stop-color:#F3D1BB"/>
			<stop offset="0.1871" style="stop-color:#F3D1BB"/>
			<stop offset="0.5167" style="stop-color:#F4DAC8"/>
			<stop offset="1" style="stop-color:#F4E3D6"/>
		</linearGradient>
		<path opacity="0.67" fill="url(#SVGID_3_)" d="M296.173,390.824c-2.769-5.796-5.538-11.591-8.307-17.386    c-0.861-1.803-1.718-3.618-2.569-5.439c1.54,4.297,3.092,8.589,4.642,12.883c1.047,2.901,2.246,5.291,3.796,7.921    c0.279,0.473,1.397,2.04,2.5,3.66C296.241,391.916,296.221,391.369,296.173,390.824z" originalFill="url(#SVGID_3_)"/>
		<path fill="#F4D9BF" d="M298.597,395.865c-0.241-0.48-0.476-0.964-0.706-1.445c-0.572-1.198-1.145-2.397-1.718-3.596    c0.048,0.545,0.068,1.092,0.062,1.639c0.983,1.444,1.953,2.93,2.306,3.723C298.56,396.079,298.579,395.972,298.597,395.865z" originalFill="#F4D9BF"/>
		<defs>
			<filter id="Adobe_OpacityMaskFilter_2_" filterUnits="userSpaceOnUse" x="296.173" y="390.824" width="2.424" height="5.361">
				<feFlood style="flood-color:white;flood-opacity:1" result="back"/>
				<feBlend in="SourceGraphic" in2="back" mode="normal"/>
			</filter>
		</defs>
		<mask maskUnits="userSpaceOnUse" x="296.173" y="390.824" width="2.424" height="5.361" id="SVGID_4_">
			<g filter="url(#Adobe_OpacityMaskFilter_2_)">
				<defs>
					<filter id="Adobe_OpacityMaskFilter_3_" filterUnits="userSpaceOnUse" x="296.173" y="390.824" width="2.424" height="5.361">
						<feFlood style="flood-color:white;flood-opacity:1" result="back"/>
						<feBlend in="SourceGraphic" in2="back" mode="normal"/>
					</filter>
				</defs>
				<mask maskUnits="userSpaceOnUse" x="296.173" y="390.824" width="2.424" height="5.361" id="SVGID_4_">
					<g filter="url(#Adobe_OpacityMaskFilter_3_)">
					</g>
				</mask>
				<linearGradient id="SVGID_5_" gradientUnits="userSpaceOnUse" x1="270.1465" y1="393.5049" x2="299.612" y2="393.5049">
					<stop offset="0" style="stop-color:#F2F2F2"/>
					<stop offset="0.0399" style="stop-color:#EEEEEE"/>
					<stop offset="0.085" style="stop-color:#E0E0E0"/>
					<stop offset="0.1327" style="stop-color:#C9C9C9"/>
					<stop offset="0.182" style="stop-color:#AAAAAA"/>
					<stop offset="0.1871" style="stop-color:#A6A6A6"/>
					<stop offset="0.3878" style="stop-color:#767676"/>
					<stop offset="0.6779" style="stop-color:#373737"/>
					<stop offset="0.89" style="stop-color:#0F0F0F"/>
					<stop offset="1" style="stop-color:#000000"/>
				</linearGradient>
				<path mask="url(#SVGID_4_)" fill="url(#SVGID_5_)" d="M298.597,395.865c-0.241-0.48-0.476-0.964-0.706-1.445      c-0.572-1.198-1.145-2.397-1.718-3.596c0.048,0.545,0.068,1.092,0.062,1.639c0.983,1.444,1.953,2.93,2.306,3.723      C298.56,396.079,298.579,395.972,298.597,395.865z" originalFill="url(#SVGID_5_)"/>
			</g>
		</mask>
		<linearGradient id="SVGID_6_" gradientUnits="userSpaceOnUse" x1="270.1465" y1="393.5049" x2="299.612" y2="393.5049">
			<stop offset="0" style="stop-color:#F3D1BB"/>
			<stop offset="0.1871" style="stop-color:#F3D1BB"/>
			<stop offset="0.5167" style="stop-color:#F4DAC8"/>
			<stop offset="1" style="stop-color:#F4E3D6"/>
		</linearGradient>
		<path opacity="0.67" fill="url(#SVGID_6_)" d="M298.597,395.865c-0.241-0.48-0.476-0.964-0.706-1.445    c-0.572-1.198-1.145-2.397-1.718-3.596c0.048,0.545,0.068,1.092,0.062,1.639c0.983,1.444,1.953,2.93,2.306,3.723    C298.56,396.079,298.579,395.972,298.597,395.865z" originalFill="url(#SVGID_6_)"/>
		<defs>
			<filter id="Adobe_OpacityMaskFilter_4_" filterUnits="userSpaceOnUse" x="270.143" y="305.761" width="29.457" height="90.104">
				<feFlood style="flood-color:white;flood-opacity:1" result="back"/>
				<feBlend in="SourceGraphic" in2="back" mode="normal"/>
			</filter>
		</defs>
		<mask maskUnits="userSpaceOnUse" x="270.143" y="305.761" width="29.457" height="90.104" id="SVGID_7_">
			<g filter="url(#Adobe_OpacityMaskFilter_4_)">
				<defs>
					
						<filter id="Adobe_OpacityMaskFilter_5_" filterUnits="userSpaceOnUse" x="270.143" y="305.761" width="29.457" height="90.104">
						<feFlood style="flood-color:white;flood-opacity:1" result="back"/>
						<feBlend in="SourceGraphic" in2="back" mode="normal"/>
					</filter>
				</defs>
				<mask maskUnits="userSpaceOnUse" x="270.143" y="305.761" width="29.457" height="90.104" id="SVGID_7_">
					<g filter="url(#Adobe_OpacityMaskFilter_5_)">
					</g>
				</mask>
				<linearGradient id="SVGID_8_" gradientUnits="userSpaceOnUse" x1="270.1431" y1="350.8125" x2="299.5996" y2="350.8125">
					<stop offset="0" style="stop-color:#F2F2F2"/>
					<stop offset="0.0399" style="stop-color:#EEEEEE"/>
					<stop offset="0.085" style="stop-color:#E0E0E0"/>
					<stop offset="0.1327" style="stop-color:#C9C9C9"/>
					<stop offset="0.182" style="stop-color:#AAAAAA"/>
					<stop offset="0.1871" style="stop-color:#A6A6A6"/>
					<stop offset="0.3878" style="stop-color:#767676"/>
					<stop offset="0.6779" style="stop-color:#373737"/>
					<stop offset="0.89" style="stop-color:#0F0F0F"/>
					<stop offset="1" style="stop-color:#000000"/>
				</linearGradient>
				<path mask="url(#SVGID_7_)" fill="url(#SVGID_8_)" d="M296.173,390.824c0.573,1.198,1.146,2.397,1.718,3.596      c0.23,0.481,0.465,0.965,0.706,1.445c0.172-1.005,0.338-2.008,0.521-3.016c0.091-0.501,0.18-0.642,0.35-0.693      c0.74-7.975-1.763-16.169-4.079-23.979c-4.636-15.631-8.531-31.481-11.667-47.48c-0.985-5.025-2.147-10.504-6.127-13.728      c-0.34-0.275-0.716-0.531-1.111-0.737c-0.723-0.377-1.514-0.584-2.297-0.409c-0.089,0.02-0.169,0.061-0.255,0.089      c-0.713,0.238-1.318,0.752-1.798,1.34c-2.815,3.449-2.079,8.479-1.193,12.843c2.803,13.796,7.099,27.239,11.73,40.516      c0.861,2.468,1.745,4.928,2.627,7.389c0.851,1.821,1.708,3.637,2.569,5.439C290.635,379.233,293.404,385.028,296.173,390.824z" originalFill="url(#SVGID_8_)"/>
			</g>
		</mask>
		<linearGradient id="SVGID_9_" gradientUnits="userSpaceOnUse" x1="270.1431" y1="350.8125" x2="299.5996" y2="350.8125">
			<stop offset="0" style="stop-color:#F3D1BB"/>
			<stop offset="0.1871" style="stop-color:#F3D1BB"/>
			<stop offset="0.5167" style="stop-color:#F4DAC8"/>
			<stop offset="1" style="stop-color:#F4E3D6"/>
		</linearGradient>
		<path opacity="0.67" fill="url(#SVGID_9_)" d="M296.173,390.824c0.573,1.198,1.146,2.397,1.718,3.596    c0.23,0.481,0.465,0.965,0.706,1.445c0.172-1.005,0.338-2.008,0.521-3.016c0.091-0.501,0.18-0.642,0.35-0.693    c0.74-7.975-1.763-16.169-4.079-23.979c-4.636-15.631-8.531-31.481-11.667-47.48c-0.985-5.025-2.147-10.504-6.127-13.728    c-0.34-0.275-0.716-0.531-1.111-0.737c-0.723-0.377-1.514-0.584-2.297-0.409c-0.089,0.02-0.169,0.061-0.255,0.089    c-0.713,0.238-1.318,0.752-1.798,1.34c-2.815,3.449-2.079,8.479-1.193,12.843c2.803,13.796,7.099,27.239,11.73,40.516    c0.861,2.468,1.745,4.928,2.627,7.389c0.851,1.821,1.708,3.637,2.569,5.439C290.635,379.233,293.404,385.028,296.173,390.824z" originalFill="url(#SVGID_9_)"/>
		<path fill="#F4D9BF" d="M299.533,210.261c-0.812,0.716-1.5,1.14-2.508,1.609c-0.672,0.312-1.356,0.628-2.089,0.738    c-2.648,0.396-4.803-1.565-6.711-3.155c-0.006,0.004-0.013,0.007-0.019,0.011c0.077,0.68,0.604,1.214,1.124,1.659    c0.996,0.85,2.085,1.589,3.243,2.2c0.598,0.315,1.239,0.603,1.915,0.604c1,0.002,1.882-0.61,2.691-1.197    c0.597-0.434,1.194-0.867,1.791-1.301c0.363-0.263,0.733-0.534,0.994-0.899c0.104-0.146,0.18-0.314,0.233-0.487    c0.033-0.105,0.053-0.211,0.06-0.319C300.005,209.892,299.757,210.063,299.533,210.261z" originalFill="#F4D9BF"/>
		<path fill="#F3D1BB" d="M276.914,193.324c0.057,0.003,0.12,0,0.163-0.037c0.047-0.041,0.056-0.11,0.062-0.172    c0.025-0.303,0.026-0.607,0.026-0.912c-0.075-0.512-0.176-1.021-0.291-1.525c-0.362,0.609-0.717,1.224-1.041,1.852    C276.045,192.958,276.442,193.296,276.914,193.324z" originalFill="#F3D1BB"/>
		<path fill="#F3D1BB" d="M312.613,192.847c0.115-0.603-0.078-1.227-0.372-1.766c0.037-0.082,0.1-0.136,0.169-0.182    c-0.044-0.074-0.087-0.148-0.131-0.223c-0.244,1.068-0.399,2.156-0.464,3.25C312.222,193.729,312.525,193.302,312.613,192.847z" originalFill="#F3D1BB"/>
		<path opacity="0.3" fill="#F3D1BB" d="M289.985,231.328c0.249,0.15,0.494,0.308,0.742,0.46c0.166,0.102,0.332,0.203,0.504,0.287    c-0.106-0.398-0.293-0.745-0.51-1.066c-0.398-0.592-0.935-1.063-1.523-1.361c-0.907-0.46-1.9-0.596-2.878-0.727    c-1.661-0.223-3.322-0.446-4.983-0.669c-0.004,0.031-0.008,0.062-0.012,0.092c-0.042,0.323-0.082,0.648-0.124,0.972    c1.22,0.11,2.442,0.201,3.658,0.372C286.624,229.937,288.396,230.368,289.985,231.328z" originalFill="#F3D1BB"/>
		<path opacity="0.3" fill="#F3D1BB" d="M272.917,227.121c-0.154,0.501,0.415,0.852,0.851,0.947    c1.844,0.403,3.689,0.804,5.553,1.046c0.092-0.366,0.201-0.728,0.288-1.095C277.377,227.72,275.147,227.42,272.917,227.121z" originalFill="#F3D1BB"/>
		<path opacity="0.3" fill="#F3D1BB" d="M315.673,227.121c-0.535,0.072-1.071,0.144-1.607,0.216c-0.039,0.384-0.5,0.65-0.869,0.731    c-1.297,0.283-2.595,0.563-3.898,0.791c0.02,0.081,0.043,0.162,0.062,0.243c1.832-0.244,3.648-0.637,5.462-1.033    C315.259,227.972,315.827,227.622,315.673,227.121z" originalFill="#F3D1BB"/>
		<path opacity="0.3" fill="#F3D1BB" d="M298.019,230.795c-0.289,0.372-0.53,0.792-0.66,1.28c0.43-0.21,0.832-0.496,1.247-0.747    c1.589-0.96,3.361-1.391,5.126-1.64c1.259-0.177,2.524-0.268,3.789-0.384c-0.008-0.057-0.015-0.113-0.021-0.169    c-1.795,0.226-3.602,0.301-5.395,0.553C300.715,229.883,299.324,230.204,298.019,230.795z" originalFill="#F3D1BB"/>
		<defs>
			<filter id="Adobe_OpacityMaskFilter_6_" filterUnits="userSpaceOnUse" x="274.893" y="222.661" width="6.309" height="2.272">
				<feFlood style="flood-color:white;flood-opacity:1" result="back"/>
				<feBlend in="SourceGraphic" in2="back" mode="normal"/>
			</filter>
		</defs>
		<mask maskUnits="userSpaceOnUse" x="274.893" y="222.661" width="6.309" height="2.272" id="SVGID_10_">
			<g filter="url(#Adobe_OpacityMaskFilter_6_)">
				<defs>
					<filter id="Adobe_OpacityMaskFilter_7_" filterUnits="userSpaceOnUse" x="274.893" y="222.661" width="6.309" height="2.272">
						<feFlood style="flood-color:white;flood-opacity:1" result="back"/>
						<feBlend in="SourceGraphic" in2="back" mode="normal"/>
					</filter>
				</defs>
				<mask maskUnits="userSpaceOnUse" x="274.893" y="222.661" width="6.309" height="2.272" id="SVGID_10_">
					<g filter="url(#Adobe_OpacityMaskFilter_7_)">
					</g>
				</mask>
				<linearGradient id="SVGID_11_" gradientUnits="userSpaceOnUse" x1="268.5342" y1="223.7974" x2="281.4998" y2="223.7974">
					<stop offset="0" style="stop-color:#F2F2F2"/>
					<stop offset="0.0399" style="stop-color:#EEEEEE"/>
					<stop offset="0.085" style="stop-color:#E0E0E0"/>
					<stop offset="0.1327" style="stop-color:#C9C9C9"/>
					<stop offset="0.182" style="stop-color:#AAAAAA"/>
					<stop offset="0.1871" style="stop-color:#A6A6A6"/>
					<stop offset="0.3878" style="stop-color:#767676"/>
					<stop offset="0.6779" style="stop-color:#373737"/>
					<stop offset="0.89" style="stop-color:#0F0F0F"/>
					<stop offset="1" style="stop-color:#000000"/>
				</linearGradient>
				<path mask="url(#SVGID_10_)" fill="url(#SVGID_11_)" d="M281.202,222.905c-0.237-0.188-0.587-0.27-0.908-0.236      c-0.44,0.046-0.837,0.255-1.223,0.453c-1.345,0.69-2.748,1.282-4.178,1.812c0.777-0.086,1.536-0.244,2.264-0.532      C278.494,223.872,279.844,223.38,281.202,222.905z" originalFill="url(#SVGID_11_)"/>
			</g>
		</mask>
		<linearGradient id="SVGID_12_" gradientUnits="userSpaceOnUse" x1="268.5342" y1="223.7974" x2="281.4998" y2="223.7974">
			<stop offset="0" style="stop-color:#F3D1BB"/>
			<stop offset="0.1871" style="stop-color:#F3D1BB"/>
			<stop offset="0.5167" style="stop-color:#F4DAC8"/>
			<stop offset="1" style="stop-color:#F4E3D6"/>
		</linearGradient>
		<path opacity="0.67" fill="url(#SVGID_12_)" d="M281.202,222.905c-0.237-0.188-0.587-0.27-0.908-0.236    c-0.44,0.046-0.837,0.255-1.223,0.453c-1.345,0.69-2.748,1.282-4.178,1.812c0.777-0.086,1.536-0.244,2.264-0.532    C278.494,223.872,279.844,223.38,281.202,222.905z" originalFill="url(#SVGID_12_)"/>
		<defs>
			<filter id="Adobe_OpacityMaskFilter_8_" filterUnits="userSpaceOnUse" x="268.535" y="222.905" width="12.944" height="4.532">
				<feFlood style="flood-color:white;flood-opacity:1" result="back"/>
				<feBlend in="SourceGraphic" in2="back" mode="normal"/>
			</filter>
		</defs>
		<mask maskUnits="userSpaceOnUse" x="268.535" y="222.905" width="12.944" height="4.532" id="SVGID_13_">
			<g filter="url(#Adobe_OpacityMaskFilter_8_)">
				<defs>
					<filter id="Adobe_OpacityMaskFilter_9_" filterUnits="userSpaceOnUse" x="268.535" y="222.905" width="12.944" height="4.532">
						<feFlood style="flood-color:white;flood-opacity:1" result="back"/>
						<feBlend in="SourceGraphic" in2="back" mode="normal"/>
					</filter>
				</defs>
				<mask maskUnits="userSpaceOnUse" x="268.535" y="222.905" width="12.944" height="4.532" id="SVGID_13_">
					<g filter="url(#Adobe_OpacityMaskFilter_9_)">
					</g>
				</mask>
				<linearGradient id="SVGID_14_" gradientUnits="userSpaceOnUse" x1="268.5347" y1="225.1709" x2="281.5" y2="225.1709">
					<stop offset="0" style="stop-color:#F2F2F2"/>
					<stop offset="0.0399" style="stop-color:#EEEEEE"/>
					<stop offset="0.085" style="stop-color:#E0E0E0"/>
					<stop offset="0.1327" style="stop-color:#C9C9C9"/>
					<stop offset="0.182" style="stop-color:#AAAAAA"/>
					<stop offset="0.1871" style="stop-color:#A6A6A6"/>
					<stop offset="0.3878" style="stop-color:#767676"/>
					<stop offset="0.6779" style="stop-color:#373737"/>
					<stop offset="0.89" style="stop-color:#0F0F0F"/>
					<stop offset="1" style="stop-color:#000000"/>
				</linearGradient>
				<path mask="url(#SVGID_13_)" fill="url(#SVGID_14_)" d="M281.479,223.401c-0.012-0.083-0.028-0.167-0.066-0.244      c-0.048-0.1-0.123-0.182-0.211-0.252c-1.358,0.475-2.708,0.967-4.045,1.497c-0.728,0.289-1.487,0.446-2.264,0.532      c-2.058,0.764-4.183,1.379-6.358,1.792c3.627-0.231,7.291-0.009,10.853,0.658c0.111,0.021,0.228,0.038,0.346,0.053      c0.266-1.169,0.515-2.341,0.724-3.521C280.772,223.797,281.132,223.585,281.479,223.401z" originalFill="url(#SVGID_14_)"/>
			</g>
		</mask>
		<linearGradient id="SVGID_15_" gradientUnits="userSpaceOnUse" x1="268.5347" y1="225.1709" x2="281.5" y2="225.1709">
			<stop offset="0" style="stop-color:#F3D1BB"/>
			<stop offset="0.1871" style="stop-color:#F3D1BB"/>
			<stop offset="0.5167" style="stop-color:#F4DAC8"/>
			<stop offset="1" style="stop-color:#F4E3D6"/>
		</linearGradient>
		<path opacity="0.67" fill="url(#SVGID_15_)" d="M281.479,223.401c-0.012-0.083-0.028-0.167-0.066-0.244    c-0.048-0.1-0.123-0.182-0.211-0.252c-1.358,0.475-2.708,0.967-4.045,1.497c-0.728,0.289-1.487,0.446-2.264,0.532    c-2.058,0.764-4.183,1.379-6.358,1.792c3.627-0.231,7.291-0.009,10.853,0.658c0.111,0.021,0.228,0.038,0.346,0.053    c0.266-1.169,0.515-2.341,0.724-3.521C280.772,223.797,281.132,223.585,281.479,223.401z" originalFill="url(#SVGID_15_)"/>
		<defs>
			<filter id="Adobe_OpacityMaskFilter_10_" filterUnits="userSpaceOnUse" x="309.617" y="223.359" width="3.801" height="1.328">
				<feFlood style="flood-color:white;flood-opacity:1" result="back"/>
				<feBlend in="SourceGraphic" in2="back" mode="normal"/>
			</filter>
		</defs>
		<mask maskUnits="userSpaceOnUse" x="309.617" y="223.359" width="3.801" height="1.328" id="SVGID_16_">
			<g filter="url(#Adobe_OpacityMaskFilter_10_)">
				<defs>
					<filter id="Adobe_OpacityMaskFilter_11_" filterUnits="userSpaceOnUse" x="309.617" y="223.359" width="3.801" height="1.328">
						<feFlood style="flood-color:white;flood-opacity:1" result="back"/>
						<feBlend in="SourceGraphic" in2="back" mode="normal"/>
					</filter>
				</defs>
				<mask maskUnits="userSpaceOnUse" x="309.617" y="223.359" width="3.801" height="1.328" id="SVGID_16_">
					<g filter="url(#Adobe_OpacityMaskFilter_11_)">
					</g>
				</mask>
				<linearGradient id="SVGID_17_" gradientUnits="userSpaceOnUse" x1="304.0752" y1="224.0234" x2="317.5452" y2="224.0234">
					<stop offset="0" style="stop-color:#000000"/>
					<stop offset="0.11" style="stop-color:#0F0F0F"/>
					<stop offset="0.3221" style="stop-color:#373737"/>
					<stop offset="0.6122" style="stop-color:#767676"/>
					<stop offset="0.8129" style="stop-color:#A6A6A6"/>
					<stop offset="0.8181" style="stop-color:#AAAAAA"/>
					<stop offset="0.8673" style="stop-color:#C9C9C9"/>
					<stop offset="0.915" style="stop-color:#E0E0E0"/>
					<stop offset="0.9601" style="stop-color:#EEEEEE"/>
					<stop offset="1" style="stop-color:#F2F2F2"/>
				</linearGradient>
				<path mask="url(#SVGID_16_)" fill="url(#SVGID_17_)" d="M313.418,224.687c-1.267-0.442-2.533-0.885-3.801-1.328      c0.932,0.338,1.862,0.677,2.784,1.042C312.727,224.53,313.066,224.621,313.418,224.687z" originalFill="url(#SVGID_17_)"/>
			</g>
		</mask>
		<linearGradient id="SVGID_18_" gradientUnits="userSpaceOnUse" x1="304.0752" y1="224.0234" x2="317.5452" y2="224.0234">
			<stop offset="0" style="stop-color:#F4E3D6"/>
			<stop offset="0.4833" style="stop-color:#F4DAC8"/>
			<stop offset="0.8129" style="stop-color:#F3D1BB"/>
			<stop offset="1" style="stop-color:#F3D1BB"/>
		</linearGradient>
		<path opacity="0.67" fill="url(#SVGID_18_)" d="M313.418,224.687c-1.267-0.442-2.533-0.885-3.801-1.328    c0.932,0.338,1.862,0.677,2.784,1.042C312.727,224.53,313.066,224.621,313.418,224.687z" originalFill="url(#SVGID_18_)"/>
		<defs>
			<filter id="Adobe_OpacityMaskFilter_12_" filterUnits="userSpaceOnUse" x="304.075" y="222.19" width="13.47" height="5.618">
				<feFlood style="flood-color:white;flood-opacity:1" result="back"/>
				<feBlend in="SourceGraphic" in2="back" mode="normal"/>
			</filter>
		</defs>
		<mask maskUnits="userSpaceOnUse" x="304.075" y="222.19" width="13.47" height="5.618" id="SVGID_19_">
			<g filter="url(#Adobe_OpacityMaskFilter_12_)">
				<defs>
					<filter id="Adobe_OpacityMaskFilter_13_" filterUnits="userSpaceOnUse" x="304.075" y="222.19" width="13.47" height="5.618">
						<feFlood style="flood-color:white;flood-opacity:1" result="back"/>
						<feBlend in="SourceGraphic" in2="back" mode="normal"/>
					</filter>
				</defs>
				<mask maskUnits="userSpaceOnUse" x="304.075" y="222.19" width="13.47" height="5.618" id="SVGID_19_">
					<g filter="url(#Adobe_OpacityMaskFilter_13_)">
					</g>
				</mask>
				<linearGradient id="SVGID_20_" gradientUnits="userSpaceOnUse" x1="304.0752" y1="224.999" x2="317.5449" y2="224.999">
					<stop offset="0" style="stop-color:#000000"/>
					<stop offset="0.11" style="stop-color:#0F0F0F"/>
					<stop offset="0.3221" style="stop-color:#373737"/>
					<stop offset="0.6122" style="stop-color:#767676"/>
					<stop offset="0.8129" style="stop-color:#A6A6A6"/>
					<stop offset="0.8181" style="stop-color:#AAAAAA"/>
					<stop offset="0.8673" style="stop-color:#C9C9C9"/>
					<stop offset="0.915" style="stop-color:#E0E0E0"/>
					<stop offset="0.9601" style="stop-color:#EEEEEE"/>
					<stop offset="1" style="stop-color:#F2F2F2"/>
				</linearGradient>
				<path mask="url(#SVGID_19_)" fill="url(#SVGID_20_)" d="M304.918,222.19c-0.219-0.002-0.457,0.014-0.617,0.149      c-0.084,0.072-0.132,0.166-0.16,0.269c-0.031,0.11-0.04,0.23-0.044,0.344c-0.055,1.62-0.004,3.243,0.153,4.857      c1.018-0.083,2.034-0.167,3.051-0.25c-0.186-1.468-0.372-2.936-0.559-4.404c0.469,0.181,1.039,0.581,1.508,0.762      c0.204,1.175,0.447,2.343,0.706,3.507c2.479-0.203,4.958-0.406,7.438-0.608c0.329-0.027,0.719-0.116,0.95-0.301      c0.124-0.099,0.205-0.225,0.201-0.386c-1.376-0.48-2.751-0.961-4.127-1.441c-0.352-0.066-0.691-0.157-1.017-0.286      c-0.922-0.365-1.853-0.704-2.784-1.042c-0.236-0.083-0.473-0.165-0.709-0.247C307.62,222.662,306.298,222.206,304.918,222.19z" originalFill="url(#SVGID_20_)"/>
			</g>
		</mask>
		<linearGradient id="SVGID_21_" gradientUnits="userSpaceOnUse" x1="304.0752" y1="224.999" x2="317.5449" y2="224.999">
			<stop offset="0" style="stop-color:#F4E3D6"/>
			<stop offset="0.4833" style="stop-color:#F4DAC8"/>
			<stop offset="0.8129" style="stop-color:#F3D1BB"/>
			<stop offset="1" style="stop-color:#F3D1BB"/>
		</linearGradient>
		<path opacity="0.67" fill="url(#SVGID_21_)" d="M304.918,222.19c-0.219-0.002-0.457,0.014-0.617,0.149    c-0.084,0.072-0.132,0.166-0.16,0.269c-0.031,0.11-0.04,0.23-0.044,0.344c-0.055,1.62-0.004,3.243,0.153,4.857    c1.018-0.083,2.034-0.167,3.051-0.25c-0.186-1.468-0.372-2.936-0.559-4.404c0.469,0.181,1.039,0.581,1.508,0.762    c0.204,1.175,0.447,2.343,0.706,3.507c2.479-0.203,4.958-0.406,7.438-0.608c0.329-0.027,0.719-0.116,0.95-0.301    c0.124-0.099,0.205-0.225,0.201-0.386c-1.376-0.48-2.751-0.961-4.127-1.441c-0.352-0.066-0.691-0.157-1.017-0.286    c-0.922-0.365-1.853-0.704-2.784-1.042c-0.236-0.083-0.473-0.165-0.709-0.247C307.62,222.662,306.298,222.206,304.918,222.19z" originalFill="url(#SVGID_21_)"/>
		<defs>
			<filter id="Adobe_OpacityMaskFilter_14_" filterUnits="userSpaceOnUse" x="273.666" y="260.384" width="10.124" height="43.793">
				<feFlood style="flood-color:white;flood-opacity:1" result="back"/>
				<feBlend in="SourceGraphic" in2="back" mode="normal"/>
			</filter>
		</defs>
		<mask maskUnits="userSpaceOnUse" x="273.666" y="260.384" width="10.124" height="43.793" id="SVGID_22_">
			<g filter="url(#Adobe_OpacityMaskFilter_14_)">
				<defs>
					
						<filter id="Adobe_OpacityMaskFilter_15_" filterUnits="userSpaceOnUse" x="273.666" y="260.384" width="10.124" height="43.793">
						<feFlood style="flood-color:white;flood-opacity:1" result="back"/>
						<feBlend in="SourceGraphic" in2="back" mode="normal"/>
					</filter>
				</defs>
				<mask maskUnits="userSpaceOnUse" x="273.666" y="260.384" width="10.124" height="43.793" id="SVGID_22_">
					<g filter="url(#Adobe_OpacityMaskFilter_15_)">
					</g>
				</mask>
				<linearGradient id="SVGID_23_" gradientUnits="userSpaceOnUse" x1="273.5586" y1="282.2812" x2="283.7896" y2="282.2812">
					<stop offset="0" style="stop-color:#F2F2F2"/>
					<stop offset="0.0399" style="stop-color:#EEEEEE"/>
					<stop offset="0.085" style="stop-color:#E0E0E0"/>
					<stop offset="0.1327" style="stop-color:#C9C9C9"/>
					<stop offset="0.182" style="stop-color:#AAAAAA"/>
					<stop offset="0.1871" style="stop-color:#A6A6A6"/>
					<stop offset="0.3878" style="stop-color:#767676"/>
					<stop offset="0.6779" style="stop-color:#373737"/>
					<stop offset="0.89" style="stop-color:#0F0F0F"/>
					<stop offset="1" style="stop-color:#000000"/>
				</linearGradient>
				<path mask="url(#SVGID_22_)" fill="url(#SVGID_23_)" d="M282.49,300.847c0.101-1.85,0.453-3.564,0.757-5.446      c0.752-4.648,0.562-9.39,0.369-14.074c-0.152-3.693-0.304-7.387-0.456-11.08c0-2.451-1.271-4.461-2.7-6.395      c-0.402-0.544-0.811-1.083-1.213-1.624c-2.047-0.027-3.988-0.708-5.582-1.844c0.287,1.651,0.574,3.301,0.861,4.952      c0.544,3.133,2.32,6.232,2.864,9.546c0.542,3.301,0.695,6.667,0.445,10.003c-0.175,2.331-0.547,4.66-1.324,6.865      c-0.346,0.981-0.596,1.921-0.822,2.858c0.095-0.009,0.189-0.023,0.285-0.029c0.967-0.05,2.035,0.119,2.667,0.787      c0.386,0.409,0.555,0.947,0.696,1.47c0.644,2.391,0.916,4.862,0.818,7.321c0.016,0.002,0.031,0.007,0.048,0.009      C282.167,304.351,282.416,302.219,282.49,300.847z" originalFill="url(#SVGID_23_)"/>
			</g>
		</mask>
		<linearGradient id="SVGID_24_" gradientUnits="userSpaceOnUse" x1="273.5586" y1="282.2812" x2="283.7896" y2="282.2812">
			<stop offset="0" style="stop-color:#F3D1BB"/>
			<stop offset="0.1871" style="stop-color:#F3D1BB"/>
			<stop offset="0.5167" style="stop-color:#F4DAC8"/>
			<stop offset="1" style="stop-color:#F4E3D6"/>
		</linearGradient>
		<path opacity="0.67" fill="url(#SVGID_24_)" d="M282.49,300.847c0.101-1.85,0.453-3.564,0.757-5.446    c0.752-4.648,0.562-9.39,0.369-14.074c-0.152-3.693-0.304-7.387-0.456-11.08c0-2.451-1.271-4.461-2.7-6.395    c-0.402-0.544-0.811-1.083-1.213-1.624c-2.047-0.027-3.988-0.708-5.582-1.844c0.287,1.651,0.574,3.301,0.861,4.952    c0.544,3.133,2.32,6.232,2.864,9.546c0.542,3.301,0.695,6.667,0.445,10.003c-0.175,2.331-0.547,4.66-1.324,6.865    c-0.346,0.981-0.596,1.921-0.822,2.858c0.095-0.009,0.189-0.023,0.285-0.029c0.967-0.05,2.035,0.119,2.667,0.787    c0.386,0.409,0.555,0.947,0.696,1.47c0.644,2.391,0.916,4.862,0.818,7.321c0.016,0.002,0.031,0.007,0.048,0.009    C282.167,304.351,282.416,302.219,282.49,300.847z" originalFill="url(#SVGID_24_)"/>
		<defs>
			<filter id="Adobe_OpacityMaskFilter_16_" filterUnits="userSpaceOnUse" x="306.121" y="259.148" width="10.228" height="44.987">
				<feFlood style="flood-color:white;flood-opacity:1" result="back"/>
				<feBlend in="SourceGraphic" in2="back" mode="normal"/>
			</filter>
		</defs>
		<mask maskUnits="userSpaceOnUse" x="306.121" y="259.148" width="10.228" height="44.987" id="SVGID_25_">
			<g filter="url(#Adobe_OpacityMaskFilter_16_)">
				<defs>
					
						<filter id="Adobe_OpacityMaskFilter_17_" filterUnits="userSpaceOnUse" x="306.121" y="259.148" width="10.228" height="44.987">
						<feFlood style="flood-color:white;flood-opacity:1" result="back"/>
						<feBlend in="SourceGraphic" in2="back" mode="normal"/>
					</filter>
				</defs>
				<mask maskUnits="userSpaceOnUse" x="306.121" y="259.148" width="10.228" height="44.987" id="SVGID_25_">
					<g filter="url(#Adobe_OpacityMaskFilter_17_)">
					</g>
				</mask>
				
					<linearGradient id="SVGID_26_" gradientUnits="userSpaceOnUse" x1="7353.5732" y1="281.6421" x2="7363.8008" y2="281.6421" gradientTransform="matrix(-1 0 0 1 7669.9219 0)">
					<stop offset="0" style="stop-color:#F2F2F2"/>
					<stop offset="0.0399" style="stop-color:#EEEEEE"/>
					<stop offset="0.085" style="stop-color:#E0E0E0"/>
					<stop offset="0.1327" style="stop-color:#C9C9C9"/>
					<stop offset="0.182" style="stop-color:#AAAAAA"/>
					<stop offset="0.1871" style="stop-color:#A6A6A6"/>
					<stop offset="0.3878" style="stop-color:#767676"/>
					<stop offset="0.6779" style="stop-color:#373737"/>
					<stop offset="0.89" style="stop-color:#0F0F0F"/>
					<stop offset="1" style="stop-color:#000000"/>
				</linearGradient>
				<path mask="url(#SVGID_25_)" fill="url(#SVGID_26_)" d="M309.45,263.852c-1.429,1.934-2.7,3.944-2.7,6.395      c-0.151,3.693-0.304,7.386-0.455,11.08c-0.193,4.684-0.384,9.426,0.368,14.074c0.305,1.882,0.657,3.597,0.757,5.446      c0.066,1.215,0.274,3.019,1.685,3.289c0.843-0.292,1.68-0.603,2.503-0.947c0.123-0.082,0.248-0.16,0.376-0.228      c0.312-0.166,0.655-0.283,0.999-0.397c0.573-0.265,1.143-0.534,1.703-0.825c0.068-0.063,0.139-0.126,0.2-0.201      c0.587-0.728,0.529-1.778,0.306-2.687c-0.605-2.461-0.932-4.662-1.792-7.1c-0.777-2.205-1.149-4.534-1.324-6.865      c-0.25-3.336-0.097-6.702,0.445-10.003c0.544-3.314,2.319-6.413,2.863-9.546c0.299-1.719,0.598-3.438,0.896-5.157      c0.06-0.342,0.112-0.701,0.013-1.031c-1.445,1.552-3.4,2.626-5.547,2.964C310.318,262.691,309.881,263.269,309.45,263.852z" originalFill="url(#SVGID_26_)"/>
			</g>
		</mask>
		
			<linearGradient id="SVGID_27_" gradientUnits="userSpaceOnUse" x1="7353.5732" y1="281.6421" x2="7363.8008" y2="281.6421" gradientTransform="matrix(-1 0 0 1 7669.9219 0)">
			<stop offset="0" style="stop-color:#F3D1BB"/>
			<stop offset="0.1871" style="stop-color:#F3D1BB"/>
			<stop offset="0.5167" style="stop-color:#F4DAC8"/>
			<stop offset="1" style="stop-color:#F4E3D6"/>
		</linearGradient>
		<path opacity="0.67" fill="url(#SVGID_27_)" d="M309.45,263.852c-1.429,1.934-2.7,3.944-2.7,6.395    c-0.151,3.693-0.304,7.386-0.455,11.08c-0.193,4.684-0.384,9.426,0.368,14.074c0.305,1.882,0.657,3.597,0.757,5.446    c0.066,1.215,0.274,3.019,1.685,3.289c0.843-0.292,1.68-0.603,2.503-0.947c0.123-0.082,0.248-0.16,0.376-0.228    c0.312-0.166,0.655-0.283,0.999-0.397c0.573-0.265,1.143-0.534,1.703-0.825c0.068-0.063,0.139-0.126,0.2-0.201    c0.587-0.728,0.529-1.778,0.306-2.687c-0.605-2.461-0.932-4.662-1.792-7.1c-0.777-2.205-1.149-4.534-1.324-6.865    c-0.25-3.336-0.097-6.702,0.445-10.003c0.544-3.314,2.319-6.413,2.863-9.546c0.299-1.719,0.598-3.438,0.896-5.157    c0.06-0.342,0.112-0.701,0.013-1.031c-1.445,1.552-3.4,2.626-5.547,2.964C310.318,262.691,309.881,263.269,309.45,263.852z" originalFill="url(#SVGID_27_)"/>
		<path opacity="0.3" fill="#F3D1BB" d="M297.766,229.647c-0.907,0.46-1.731,1.297-2.033,2.427c0.43-0.21,0.832-0.496,1.247-0.747    c0.337-0.204,0.687-0.373,1.04-0.533c0.382-0.49,0.858-0.886,1.374-1.147c0.906-0.46,1.9-0.596,2.878-0.727    c1.705-0.229,3.411-0.458,5.116-0.687c-0.009-0.072-0.019-0.143-0.027-0.215c-2.238,0.301-4.478,0.601-6.716,0.902    C299.666,229.052,298.672,229.188,297.766,229.647z" originalFill="#F3D1BB"/>
		<path opacity="0.3" fill="#F3D1BB" d="M314.047,227.121c-1.672,0.225-3.344,0.449-5.016,0.674c0.016,0.07,0.031,0.141,0.047,0.212    c1.663-0.223,3.325-0.447,4.987-0.67C314.072,227.268,314.07,227.197,314.047,227.121z" originalFill="#F3D1BB"/>
		<path opacity="0.3" fill="#F3D1BB" d="M314.065,227.336c-1.662,0.223-3.324,0.447-4.987,0.67c0.066,0.286,0.15,0.566,0.22,0.852    c1.304-0.228,2.602-0.507,3.898-0.791C313.565,227.987,314.026,227.721,314.065,227.336z" originalFill="#F3D1BB"/>
		<path opacity="0.3" fill="#F3D1BB" d="M314.065,227.336c-1.662,0.223-3.324,0.447-4.987,0.67c0.066,0.286,0.15,0.566,0.22,0.852    c1.304-0.228,2.602-0.507,3.898-0.791C313.565,227.987,314.026,227.721,314.065,227.336z" originalFill="#F3D1BB"/>
		<path opacity="0.3" fill="#F3D1BB" d="M299.393,229.647c-0.516,0.262-0.992,0.658-1.374,1.147    c1.306-0.591,2.696-0.912,4.086-1.107c1.793-0.252,3.6-0.328,5.395-0.553c-0.033-0.263-0.065-0.528-0.099-0.791    c-0.005-0.037-0.009-0.074-0.014-0.11c-1.705,0.229-3.411,0.458-5.116,0.687C301.293,229.052,300.299,229.188,299.393,229.647z" originalFill="#F3D1BB"/>
		<path opacity="0.3" fill="#F3D1BB" d="M299.393,229.647c-0.516,0.262-0.992,0.658-1.374,1.147    c1.306-0.591,2.696-0.912,4.086-1.107c1.793-0.252,3.6-0.328,5.395-0.553c-0.033-0.263-0.065-0.528-0.099-0.791    c-0.005-0.037-0.009-0.074-0.014-0.11c-1.705,0.229-3.411,0.458-5.116,0.687C301.293,229.052,300.299,229.188,299.393,229.647z" originalFill="#F3D1BB"/>
		<defs>
			<filter id="Adobe_OpacityMaskFilter_18_" filterUnits="userSpaceOnUse" x="280.708" y="240.41" width="12.902" height="20.341">
				<feFlood style="flood-color:white;flood-opacity:1" result="back"/>
				<feBlend in="SourceGraphic" in2="back" mode="normal"/>
			</filter>
		</defs>
		<mask maskUnits="userSpaceOnUse" x="280.708" y="240.41" width="12.902" height="20.341" id="SVGID_28_">
			<g filter="url(#Adobe_OpacityMaskFilter_18_)">
				<defs>
					
						<filter id="Adobe_OpacityMaskFilter_19_" filterUnits="userSpaceOnUse" x="280.708" y="240.41" width="12.902" height="20.341">
						<feFlood style="flood-color:white;flood-opacity:1" result="back"/>
						<feBlend in="SourceGraphic" in2="back" mode="normal"/>
					</filter>
				</defs>
				<mask maskUnits="userSpaceOnUse" x="280.708" y="240.41" width="12.902" height="20.341" id="SVGID_28_">
					<g filter="url(#Adobe_OpacityMaskFilter_19_)">
					</g>
				</mask>
				<linearGradient id="SVGID_29_" gradientUnits="userSpaceOnUse" x1="283.147" y1="246.5342" x2="292.5445" y2="255.7052">
					<stop offset="0" style="stop-color:#000000"/>
					<stop offset="0.11" style="stop-color:#0F0F0F"/>
					<stop offset="0.3221" style="stop-color:#373737"/>
					<stop offset="0.6122" style="stop-color:#767676"/>
					<stop offset="0.8129" style="stop-color:#A6A6A6"/>
					<stop offset="0.8181" style="stop-color:#AAAAAA"/>
					<stop offset="0.8673" style="stop-color:#C9C9C9"/>
					<stop offset="0.915" style="stop-color:#E0E0E0"/>
					<stop offset="0.9601" style="stop-color:#EEEEEE"/>
					<stop offset="1" style="stop-color:#F2F2F2"/>
				</linearGradient>
				<path mask="url(#SVGID_28_)" fill="url(#SVGID_29_)" d="M293.155,257.5c0.522-1.044,0.479-2.24,0.425-3.385      c-0.106-2.266-0.224-4.586-1.177-6.682c-0.695-1.528-1.8-2.857-2.987-4.12c-0.319-0.338-0.642-0.673-0.966-1.004      c-0.647-0.662-1.33-1.341-2.23-1.676c-1.328-0.495-2.91-0.12-4.038,0.688c-0.589,0.422-1.068,0.949-1.473,1.525      c0.104,0.805,0.233,1.607,0.412,2.404c1.247,5.535,4.862,10.91,10.388,12.799c-0.894,1.209-2.085,2.077-3.439,2.703      c1.496-0.493,3.099-1.078,4.183-2.077C292.621,258.334,292.931,257.948,293.155,257.5z" originalFill="url(#SVGID_29_)"/>
			</g>
		</mask>
		<linearGradient id="SVGID_30_" gradientUnits="userSpaceOnUse" x1="283.147" y1="246.5342" x2="292.5445" y2="255.7052">
			<stop offset="0" style="stop-color:#F4E3D6"/>
			<stop offset="0.4833" style="stop-color:#F4DAC8"/>
			<stop offset="0.8129" style="stop-color:#F3D1BB"/>
			<stop offset="1" style="stop-color:#F3D1BB"/>
		</linearGradient>
		<path opacity="0.67" fill="url(#SVGID_30_)" d="M293.155,257.5c0.522-1.044,0.479-2.24,0.425-3.385    c-0.106-2.266-0.224-4.586-1.177-6.682c-0.695-1.528-1.8-2.857-2.987-4.12c-0.319-0.338-0.642-0.673-0.966-1.004    c-0.647-0.662-1.33-1.341-2.23-1.676c-1.328-0.495-2.91-0.12-4.038,0.688c-0.589,0.422-1.068,0.949-1.473,1.525    c0.104,0.805,0.233,1.607,0.412,2.404c1.247,5.535,4.862,10.91,10.388,12.799c-0.894,1.209-2.085,2.077-3.439,2.703    c1.496-0.493,3.099-1.078,4.183-2.077C292.621,258.334,292.931,257.948,293.155,257.5z" originalFill="url(#SVGID_30_)"/>
		<defs>
			<filter id="Adobe_OpacityMaskFilter_20_" filterUnits="userSpaceOnUse" x="294.638" y="240.41" width="13.283" height="21.021">
				<feFlood style="flood-color:white;flood-opacity:1" result="back"/>
				<feBlend in="SourceGraphic" in2="back" mode="normal"/>
			</filter>
		</defs>
		<mask maskUnits="userSpaceOnUse" x="294.638" y="240.41" width="13.283" height="21.021" id="SVGID_31_">
			<g filter="url(#Adobe_OpacityMaskFilter_20_)">
				<defs>
					
						<filter id="Adobe_OpacityMaskFilter_21_" filterUnits="userSpaceOnUse" x="294.638" y="240.41" width="13.283" height="21.021">
						<feFlood style="flood-color:white;flood-opacity:1" result="back"/>
						<feBlend in="SourceGraphic" in2="back" mode="normal"/>
					</filter>
				</defs>
				<mask maskUnits="userSpaceOnUse" x="294.638" y="240.41" width="13.283" height="21.021" id="SVGID_31_">
					<g filter="url(#Adobe_OpacityMaskFilter_21_)">
					</g>
				</mask>
				
					<linearGradient id="SVGID_32_" gradientUnits="userSpaceOnUse" x1="6110.9619" y1="247.3086" x2="6120.3589" y2="256.4792" gradientTransform="matrix(-1 0 0 1 6416.8203 0)">
					<stop offset="0" style="stop-color:#000000"/>
					<stop offset="0.11" style="stop-color:#0F0F0F"/>
					<stop offset="0.3221" style="stop-color:#373737"/>
					<stop offset="0.6122" style="stop-color:#767676"/>
					<stop offset="0.8129" style="stop-color:#A6A6A6"/>
					<stop offset="0.8181" style="stop-color:#AAAAAA"/>
					<stop offset="0.8673" style="stop-color:#C9C9C9"/>
					<stop offset="0.915" style="stop-color:#E0E0E0"/>
					<stop offset="0.9601" style="stop-color:#EEEEEE"/>
					<stop offset="1" style="stop-color:#F2F2F2"/>
				</linearGradient>
				<path mask="url(#SVGID_31_)" fill="url(#SVGID_32_)" d="M306.067,241.321c-1.128-0.808-2.709-1.183-4.038-0.688      c-0.9,0.335-1.583,1.015-2.23,1.676c-1.533,1.566-3.072,3.186-3.953,5.124c-0.953,2.096-1.071,4.416-1.177,6.682      c-0.054,1.146-0.097,2.341,0.425,3.385c0.885,1.771,3.093,2.596,5.104,3.257c0.777,0.256,1.577,0.514,2.387,0.674      c-2.065-0.612-3.904-1.653-5.156-3.382c5.412-1.889,8.952-7.264,10.173-12.799c0.132-0.598,0.231-1.199,0.32-1.802      C307.446,242.637,306.856,241.886,306.067,241.321z" originalFill="url(#SVGID_32_)"/>
			</g>
		</mask>
		
			<linearGradient id="SVGID_33_" gradientUnits="userSpaceOnUse" x1="6110.9619" y1="247.3086" x2="6120.3589" y2="256.4792" gradientTransform="matrix(-1 0 0 1 6416.8203 0)">
			<stop offset="0" style="stop-color:#F4E3D6"/>
			<stop offset="0.4833" style="stop-color:#F4DAC8"/>
			<stop offset="0.8129" style="stop-color:#F3D1BB"/>
			<stop offset="1" style="stop-color:#F3D1BB"/>
		</linearGradient>
		<path opacity="0.67" fill="url(#SVGID_33_)" d="M306.067,241.321c-1.128-0.808-2.709-1.183-4.038-0.688    c-0.9,0.335-1.583,1.015-2.23,1.676c-1.533,1.566-3.072,3.186-3.953,5.124c-0.953,2.096-1.071,4.416-1.177,6.682    c-0.054,1.146-0.097,2.341,0.425,3.385c0.885,1.771,3.093,2.596,5.104,3.257c0.777,0.256,1.577,0.514,2.387,0.674    c-2.065-0.612-3.904-1.653-5.156-3.382c5.412-1.889,8.952-7.264,10.173-12.799c0.132-0.598,0.231-1.199,0.32-1.802    C307.446,242.637,306.856,241.886,306.067,241.321z" originalFill="url(#SVGID_33_)"/>
		<path fill="rgba(0, 0, 0, 1)" d="M271.199,247.956c-0.299,0.599-0.567,1.202-0.79,1.81c-0.038,0.102-0.086,0.202-0.121,0.305    c-0.492,1.452-0.708,2.932-0.437,4.444c0.161,0.9,0.469,1.751,0.885,2.542c0.694,1.318,1.707,2.457,2.929,3.328    c1.593,1.135,3.535,1.816,5.582,1.844c0.033,0,0.065,0.004,0.098,0.004c1.171,0.004,2.384-0.042,3.583-0.172    c1.81-0.195,3.584-0.59,5.141-1.31c1.354-0.625,2.545-1.493,3.439-2.703c-5.526-1.889-9.141-7.264-10.388-12.799    c-0.179-0.797-0.308-1.599-0.412-2.404c-0.424-3.294-0.27-6.645,0.075-9.983c0.123-1.186,0.267-2.369,0.417-3.547    c0.042-0.324,0.082-0.648,0.124-0.972c0.004-0.031,0.008-0.062,0.012-0.092c0.22-1.699,0.44-3.398,0.66-5.097    c-0.163,0.062-0.34,0.151-0.519,0.247c-0.346,0.184-0.706,0.396-1.021,0.515c-0.209,1.18-0.458,2.352-0.724,3.521    c-0.044,0.194-0.08,0.389-0.125,0.583c-0.086,0.367-0.196,0.729-0.288,1.095c-0.304,1.208-0.634,2.411-0.997,3.604    c-0.712,2.336-1.52,4.645-2.454,6.905C274.757,242.314,272.634,245.083,271.199,247.956z" originalFill="#FFFFFF"/>
		<path fill="rgba(0, 0, 0, 1)" d="M314.792,243.511c-0.273-0.058-0.541-0.141-0.798-0.267c-0.059-0.029-0.018-0.386,0.088-0.947    c-0.093-0.163-0.179-0.325-0.268-0.487c-0.405-0.735-0.778-1.464-1.071-2.188c-0.163-0.403-0.301-0.815-0.457-1.221    c-0.588-1.525-1.123-3.068-1.612-4.626c-0.12-0.38-0.246-0.758-0.359-1.14c-0.348-1.17-0.662-2.35-0.954-3.535    c-0.02-0.081-0.043-0.162-0.062-0.243c-0.069-0.285-0.153-0.566-0.22-0.852c-0.016-0.071-0.031-0.142-0.047-0.212    c-0.028-0.123-0.048-0.248-0.075-0.371c-0.259-1.165-0.502-2.333-0.706-3.507c-0.469-0.181-1.039-0.581-1.508-0.762    c0.187,1.468,0.373,2.936,0.559,4.404c0.02,0.153,0.039,0.307,0.059,0.46c0.009,0.072,0.019,0.143,0.027,0.215    c0.005,0.037,0.009,0.074,0.014,0.11c0.033,0.263,0.065,0.527,0.099,0.791c0.007,0.057,0.014,0.113,0.021,0.169    c0.143,1.138,0.28,2.28,0.397,3.424c0.368,3.586,0.526,7.188,0.003,10.72c-0.089,0.603-0.188,1.204-0.32,1.802    c-1.221,5.535-4.761,10.91-10.173,12.799c1.252,1.729,3.091,2.77,5.156,3.382c0.937,0.278,1.919,0.465,2.916,0.59    c1.281,0.16,2.584,0.216,3.839,0.212c0.477-0.001,0.945-0.047,1.407-0.12c2.146-0.337,4.102-1.412,5.547-2.964    c0.595-0.639,1.103-1.355,1.5-2.136c0.396-0.778,0.688-1.614,0.843-2.498c0.265-1.512,0.054-2.992-0.428-4.444    c-0.403-1.215-1.003-2.41-1.663-3.588c-0.094-0.166-0.182-0.333-0.277-0.499C315.787,245.151,315.281,244.327,314.792,243.511z" originalFill="#FFFFFF"/>
		<path opacity="0.66" fill="#EFCAA6" d="M295.855,291.978c0.761-0.199,1.523-0.599,2.289-0.427    c-0.386-1.068-1.484-1.575-2.452-1.424c-0.968,0.151-1.822,0.822-2.579,1.557l0.648-0.417    C294.143,292.076,295.095,292.177,295.855,291.978z" originalFill="#EFCAA6"/>
		<defs>
			<filter id="Adobe_OpacityMaskFilter_22_" filterUnits="userSpaceOnUse" x="305.154" y="468.075" width="3.229" height="10.879">
				<feFlood style="flood-color:white;flood-opacity:1" result="back"/>
				<feBlend in="SourceGraphic" in2="back" mode="normal"/>
			</filter>
		</defs>
		<mask maskUnits="userSpaceOnUse" x="305.154" y="468.075" width="3.229" height="10.879" id="SVGID_34_">
			<g filter="url(#Adobe_OpacityMaskFilter_22_)">
				<defs>
					
						<filter id="Adobe_OpacityMaskFilter_23_" filterUnits="userSpaceOnUse" x="305.154" y="468.075" width="3.229" height="10.879">
						<feFlood style="flood-color:white;flood-opacity:1" result="back"/>
						<feBlend in="SourceGraphic" in2="back" mode="normal"/>
					</filter>
				</defs>
				<mask maskUnits="userSpaceOnUse" x="305.154" y="468.075" width="3.229" height="10.879" id="SVGID_34_">
					<g filter="url(#Adobe_OpacityMaskFilter_23_)">
					</g>
				</mask>
				
					<linearGradient id="SVGID_35_" gradientUnits="userSpaceOnUse" x1="6152.6846" y1="474.8818" x2="6147.958" y2="469.4097" gradientTransform="matrix(-1 0 0 1 6457.8164 0)">
					<stop offset="0" style="stop-color:#F2F2F2"/>
					<stop offset="0.0399" style="stop-color:#EEEEEE"/>
					<stop offset="0.085" style="stop-color:#E0E0E0"/>
					<stop offset="0.1327" style="stop-color:#C9C9C9"/>
					<stop offset="0.182" style="stop-color:#AAAAAA"/>
					<stop offset="0.1871" style="stop-color:#A6A6A6"/>
					<stop offset="0.3878" style="stop-color:#767676"/>
					<stop offset="0.6779" style="stop-color:#373737"/>
					<stop offset="0.89" style="stop-color:#0F0F0F"/>
					<stop offset="1" style="stop-color:#000000"/>
				</linearGradient>
				<path mask="url(#SVGID_34_)" fill="url(#SVGID_35_)" d="M305.193,474.431c0.054,1.726,0.26,3.744,0.925,4.359      c0.407,0.376,0.88,0.07,1.231-0.555c0.351-0.624,0.6-1.526,0.817-2.442c0.119-0.499,0.234-1.047,0.213-1.621      c-0.014-0.382-0.088-0.733-0.164-1.069c-0.231-1.018-0.497-1.989-0.795-2.9c-0.278-0.854-0.604-1.69-1.032-2.014      c-0.429-0.324-0.975,0.052-1.144,1.062c-0.056,0.333-0.066,0.698-0.073,1.057C305.143,471.681,305.149,473.06,305.193,474.431z" originalFill="url(#SVGID_35_)"/>
			</g>
		</mask>
		
			<linearGradient id="SVGID_36_" gradientUnits="userSpaceOnUse" x1="6152.6846" y1="474.8818" x2="6147.958" y2="469.4097" gradientTransform="matrix(-1 0 0 1 6457.8164 0)">
			<stop offset="0" style="stop-color:#F3D1BB"/>
			<stop offset="0.1871" style="stop-color:#F3D1BB"/>
			<stop offset="0.5167" style="stop-color:#F4DAC8"/>
			<stop offset="1" style="stop-color:#F4E3D6"/>
		</linearGradient>
		<path opacity="0.67" fill="url(#SVGID_36_)" d="M305.193,474.431c0.054,1.726,0.26,3.744,0.925,4.359    c0.407,0.376,0.88,0.07,1.231-0.555c0.351-0.624,0.6-1.526,0.817-2.442c0.119-0.499,0.234-1.047,0.213-1.621    c-0.014-0.382-0.088-0.733-0.164-1.069c-0.231-1.018-0.497-1.989-0.795-2.9c-0.278-0.854-0.604-1.69-1.032-2.014    c-0.429-0.324-0.975,0.052-1.144,1.062c-0.056,0.333-0.066,0.698-0.073,1.057C305.143,471.681,305.149,473.06,305.193,474.431z" originalFill="url(#SVGID_36_)"/>
		<defs>
			<filter id="Adobe_OpacityMaskFilter_24_" filterUnits="userSpaceOnUse" x="311.154" y="396.208" width="0.273" height="0.65">
				<feFlood style="flood-color:white;flood-opacity:1" result="back"/>
				<feBlend in="SourceGraphic" in2="back" mode="normal"/>
			</filter>
		</defs>
		<mask maskUnits="userSpaceOnUse" x="311.154" y="396.208" width="0.273" height="0.65" id="SVGID_37_">
			<g filter="url(#Adobe_OpacityMaskFilter_24_)">
				<defs>
					<filter id="Adobe_OpacityMaskFilter_25_" filterUnits="userSpaceOnUse" x="311.154" y="396.208" width="0.273" height="0.65">
						<feFlood style="flood-color:white;flood-opacity:1" result="back"/>
						<feBlend in="SourceGraphic" in2="back" mode="normal"/>
					</filter>
				</defs>
				<mask maskUnits="userSpaceOnUse" x="311.154" y="396.208" width="0.273" height="0.65" id="SVGID_37_">
					<g filter="url(#Adobe_OpacityMaskFilter_25_)">
					</g>
				</mask>
				
					<linearGradient id="SVGID_38_" gradientUnits="userSpaceOnUse" x1="874.8496" y1="401.3955" x2="874.8496" y2="396.0147" gradientTransform="matrix(-1 0 0 1 1186.1406 0)">
					<stop offset="0" style="stop-color:#F2F2F2"/>
					<stop offset="0.0399" style="stop-color:#EEEEEE"/>
					<stop offset="0.085" style="stop-color:#E0E0E0"/>
					<stop offset="0.1327" style="stop-color:#C9C9C9"/>
					<stop offset="0.182" style="stop-color:#AAAAAA"/>
					<stop offset="0.1871" style="stop-color:#A6A6A6"/>
					<stop offset="0.3878" style="stop-color:#767676"/>
					<stop offset="0.6779" style="stop-color:#373737"/>
					<stop offset="0.89" style="stop-color:#0F0F0F"/>
					<stop offset="1" style="stop-color:#000000"/>
				</linearGradient>
				<path mask="url(#SVGID_37_)" fill="url(#SVGID_38_)" d="M311.154,396.208c0.096,0.213,0.187,0.43,0.273,0.65      C311.413,396.548,311.314,396.34,311.154,396.208z" originalFill="url(#SVGID_38_)"/>
			</g>
		</mask>
		
			<linearGradient id="SVGID_39_" gradientUnits="userSpaceOnUse" x1="874.8496" y1="401.3955" x2="874.8496" y2="396.0147" gradientTransform="matrix(-1 0 0 1 1186.1406 0)">
			<stop offset="0" style="stop-color:#F3D1BB"/>
			<stop offset="0.1871" style="stop-color:#F3D1BB"/>
			<stop offset="0.5167" style="stop-color:#F4DAC8"/>
			<stop offset="1" style="stop-color:#F4E3D6"/>
		</linearGradient>
		<path opacity="0.67" fill="url(#SVGID_39_)" d="M311.154,396.208c0.096,0.213,0.187,0.43,0.273,0.65    C311.413,396.548,311.314,396.34,311.154,396.208z" originalFill="url(#SVGID_39_)"/>
		<defs>
			<filter id="Adobe_OpacityMaskFilter_26_" filterUnits="userSpaceOnUse" x="301.754" y="396.014" width="9.676" height="5.38">
				<feFlood style="flood-color:white;flood-opacity:1" result="back"/>
				<feBlend in="SourceGraphic" in2="back" mode="normal"/>
			</filter>
		</defs>
		<mask maskUnits="userSpaceOnUse" x="301.754" y="396.014" width="9.676" height="5.38" id="SVGID_40_">
			<g filter="url(#Adobe_OpacityMaskFilter_26_)">
				<defs>
					<filter id="Adobe_OpacityMaskFilter_27_" filterUnits="userSpaceOnUse" x="301.754" y="396.014" width="9.676" height="5.38">
						<feFlood style="flood-color:white;flood-opacity:1" result="back"/>
						<feBlend in="SourceGraphic" in2="back" mode="normal"/>
					</filter>
				</defs>
				<mask maskUnits="userSpaceOnUse" x="301.754" y="396.014" width="9.676" height="5.38" id="SVGID_40_">
					<g filter="url(#Adobe_OpacityMaskFilter_27_)">
					</g>
				</mask>
				
					<linearGradient id="SVGID_41_" gradientUnits="userSpaceOnUse" x1="879.5488" y1="401.3945" x2="879.5488" y2="396.0146" gradientTransform="matrix(-1 0 0 1 1186.1406 0)">
					<stop offset="0" style="stop-color:#F2F2F2"/>
					<stop offset="0.0399" style="stop-color:#EEEEEE"/>
					<stop offset="0.085" style="stop-color:#E0E0E0"/>
					<stop offset="0.1327" style="stop-color:#C9C9C9"/>
					<stop offset="0.182" style="stop-color:#AAAAAA"/>
					<stop offset="0.1871" style="stop-color:#A6A6A6"/>
					<stop offset="0.3878" style="stop-color:#767676"/>
					<stop offset="0.6779" style="stop-color:#373737"/>
					<stop offset="0.89" style="stop-color:#0F0F0F"/>
					<stop offset="1" style="stop-color:#000000"/>
				</linearGradient>
				<path mask="url(#SVGID_40_)" fill="url(#SVGID_41_)" d="M310.621,396.018c-1.062-0.074-2.879,0.868-3.652,0.91      c-1.542,0.085-3.714,0.078-5.152-0.479c-0.21-0.082,0.174,1.527,0.239,1.649c0.289,0.542,0.82,0.967,1.312,1.287      c0.93,0.605,2.038,1.391,3.067,1.775c0.905,0.34,1.968,0.338,2.773-0.217c0.581-0.4,0.973-1.038,1.347-1.656      c0.314-0.521,0.635-1.052,0.779-1.65c0.076-0.313,0.103-0.568,0.093-0.779c-0.087-0.221-0.178-0.438-0.273-0.65      C311.017,396.094,310.836,396.032,310.621,396.018z" originalFill="url(#SVGID_41_)"/>
			</g>
		</mask>
		
			<linearGradient id="SVGID_42_" gradientUnits="userSpaceOnUse" x1="879.5488" y1="401.3945" x2="879.5488" y2="396.0146" gradientTransform="matrix(-1 0 0 1 1186.1406 0)">
			<stop offset="0" style="stop-color:#F3D1BB"/>
			<stop offset="0.1871" style="stop-color:#F3D1BB"/>
			<stop offset="0.5167" style="stop-color:#F4DAC8"/>
			<stop offset="1" style="stop-color:#F4E3D6"/>
		</linearGradient>
		<path opacity="0.67" fill="url(#SVGID_42_)" d="M310.621,396.018c-1.062-0.074-2.879,0.868-3.652,0.91    c-1.542,0.085-3.714,0.078-5.152-0.479c-0.21-0.082,0.174,1.527,0.239,1.649c0.289,0.542,0.82,0.967,1.312,1.287    c0.93,0.605,2.038,1.391,3.067,1.775c0.905,0.34,1.968,0.338,2.773-0.217c0.581-0.4,0.973-1.038,1.347-1.656    c0.314-0.521,0.635-1.052,0.779-1.65c0.076-0.313,0.103-0.568,0.093-0.779c-0.087-0.221-0.178-0.438-0.273-0.65    C311.017,396.094,310.836,396.032,310.621,396.018z" originalFill="url(#SVGID_42_)"/>
		<defs>
			<filter id="Adobe_OpacityMaskFilter_28_" filterUnits="userSpaceOnUse" x="268.221" y="240.648" width="1.284" height="0.408">
				<feFlood style="flood-color:white;flood-opacity:1" result="back"/>
				<feBlend in="SourceGraphic" in2="back" mode="normal"/>
			</filter>
		</defs>
		<mask maskUnits="userSpaceOnUse" x="268.221" y="240.648" width="1.284" height="0.408" id="SVGID_43_">
			<g filter="url(#Adobe_OpacityMaskFilter_28_)">
				<defs>
					<filter id="Adobe_OpacityMaskFilter_29_" filterUnits="userSpaceOnUse" x="268.221" y="240.648" width="1.284" height="0.408">
						<feFlood style="flood-color:white;flood-opacity:1" result="back"/>
						<feBlend in="SourceGraphic" in2="back" mode="normal"/>
					</filter>
				</defs>
				<mask maskUnits="userSpaceOnUse" x="268.221" y="240.648" width="1.284" height="0.408" id="SVGID_43_">
					<g filter="url(#Adobe_OpacityMaskFilter_29_)">
					</g>
				</mask>
				<linearGradient id="SVGID_44_" gradientUnits="userSpaceOnUse" x1="266.75" y1="240.8525" x2="274.3461" y2="240.8525">
					<stop offset="0" style="stop-color:#000000"/>
					<stop offset="0.11" style="stop-color:#0F0F0F"/>
					<stop offset="0.3221" style="stop-color:#373737"/>
					<stop offset="0.6122" style="stop-color:#767676"/>
					<stop offset="0.8129" style="stop-color:#A6A6A6"/>
					<stop offset="0.8181" style="stop-color:#AAAAAA"/>
					<stop offset="0.8673" style="stop-color:#C9C9C9"/>
					<stop offset="0.915" style="stop-color:#E0E0E0"/>
					<stop offset="0.9601" style="stop-color:#EEEEEE"/>
					<stop offset="1" style="stop-color:#F2F2F2"/>
				</linearGradient>
				<path mask="url(#SVGID_43_)" fill="url(#SVGID_44_)" d="M268.456,240.935c-0.083,0.036-0.156,0.082-0.234,0.122      c0.418-0.146,0.849-0.284,1.284-0.408C269.161,240.693,268.812,240.781,268.456,240.935z" originalFill="url(#SVGID_44_)"/>
			</g>
		</mask>
		<linearGradient id="SVGID_45_" gradientUnits="userSpaceOnUse" x1="266.75" y1="240.8525" x2="274.3461" y2="240.8525">
			<stop offset="0" style="stop-color:#F4E3D6"/>
			<stop offset="0.4833" style="stop-color:#F4DAC8"/>
			<stop offset="0.8129" style="stop-color:#F3D1BB"/>
			<stop offset="1" style="stop-color:#F3D1BB"/>
		</linearGradient>
		<path opacity="0.67" fill="url(#SVGID_45_)" d="M268.456,240.935c-0.083,0.036-0.156,0.082-0.234,0.122    c0.418-0.146,0.849-0.284,1.284-0.408C269.161,240.693,268.812,240.781,268.456,240.935z" originalFill="url(#SVGID_45_)"/>
		<defs>
			<filter id="Adobe_OpacityMaskFilter_30_" filterUnits="userSpaceOnUse" x="266.75" y="237.868" width="7.596" height="3.698">
				<feFlood style="flood-color:white;flood-opacity:1" result="back"/>
				<feBlend in="SourceGraphic" in2="back" mode="normal"/>
			</filter>
		</defs>
		<mask maskUnits="userSpaceOnUse" x="266.75" y="237.868" width="7.596" height="3.698" id="SVGID_46_">
			<g filter="url(#Adobe_OpacityMaskFilter_30_)">
				<defs>
					<filter id="Adobe_OpacityMaskFilter_31_" filterUnits="userSpaceOnUse" x="266.75" y="237.868" width="7.596" height="3.698">
						<feFlood style="flood-color:white;flood-opacity:1" result="back"/>
						<feBlend in="SourceGraphic" in2="back" mode="normal"/>
					</filter>
				</defs>
				<mask maskUnits="userSpaceOnUse" x="266.75" y="237.868" width="7.596" height="3.698" id="SVGID_46_">
					<g filter="url(#Adobe_OpacityMaskFilter_31_)">
					</g>
				</mask>
				<linearGradient id="SVGID_47_" gradientUnits="userSpaceOnUse" x1="266.75" y1="239.7168" x2="274.3462" y2="239.7168">
					<stop offset="0" style="stop-color:#000000"/>
					<stop offset="0.11" style="stop-color:#0F0F0F"/>
					<stop offset="0.3221" style="stop-color:#373737"/>
					<stop offset="0.6122" style="stop-color:#767676"/>
					<stop offset="0.8129" style="stop-color:#A6A6A6"/>
					<stop offset="0.8181" style="stop-color:#AAAAAA"/>
					<stop offset="0.8673" style="stop-color:#C9C9C9"/>
					<stop offset="0.915" style="stop-color:#E0E0E0"/>
					<stop offset="0.9601" style="stop-color:#EEEEEE"/>
					<stop offset="1" style="stop-color:#F2F2F2"/>
				</linearGradient>
				<path mask="url(#SVGID_46_)" fill="url(#SVGID_47_)" d="M269.505,240.648c1.308-0.373,2.646-0.561,3.763-0.007      c0.234,0.116,0.458,0.265,0.671,0.45c0.441-1.477,0.912-2.853-0.847-3.178c-1.416-0.262-3.324,0.672-4.423,1.38      c-1.02,0.657-1.899,1.021-1.918,2.273c0.459-0.147,0.957-0.329,1.471-0.509c0.078-0.04,0.152-0.086,0.234-0.122      C268.812,240.781,269.161,240.693,269.505,240.648z" originalFill="url(#SVGID_47_)"/>
			</g>
		</mask>
		<linearGradient id="SVGID_48_" gradientUnits="userSpaceOnUse" x1="266.75" y1="239.7168" x2="274.3462" y2="239.7168">
			<stop offset="0" style="stop-color:#F4E3D6"/>
			<stop offset="0.4833" style="stop-color:#F4DAC8"/>
			<stop offset="0.8129" style="stop-color:#F3D1BB"/>
			<stop offset="1" style="stop-color:#F3D1BB"/>
		</linearGradient>
		<path opacity="0.67" fill="url(#SVGID_48_)" d="M269.505,240.648c1.308-0.373,2.646-0.561,3.763-0.007    c0.234,0.116,0.458,0.265,0.671,0.45c0.441-1.477,0.912-2.853-0.847-3.178c-1.416-0.262-3.324,0.672-4.423,1.38    c-1.02,0.657-1.899,1.021-1.918,2.273c0.459-0.147,0.957-0.329,1.471-0.509c0.078-0.04,0.152-0.086,0.234-0.122    C268.812,240.781,269.161,240.693,269.505,240.648z" originalFill="url(#SVGID_48_)"/>
		<path fill="rgba(0, 0, 0, 1)" d="M316.268,245.984c0.096,0.166,0.184,0.333,0.277,0.499c-0.014-0.444-0.024-0.888-0.039-1.332    C316.407,245.418,316.328,245.696,316.268,245.984z" originalFill="#B17F4A"/>
		<path fill="rgba(0, 0, 0, 1)" d="M271.718,242.822c0.187-0.563,0.387-1.126,0.619-1.69c0.031-0.006,0.062-0.01,0.092-0.016    c-0.236-0.08-0.473-0.157-0.711-0.227C271.717,241.534,271.717,242.178,271.718,242.822z" originalFill="#B17F4A"/>
		<path fill="rgba(0, 0, 0, 1)" d="M313.863,173.942c-0.645-0.959-1.44-1.895-2.369-2.575c-1.764-2.917-4.872-4.841-7.848-6.595    c-3.468-2.045-7.179-4.156-11.204-4.041c-3.101,0.088-5.998,1.5-8.708,3.009c-3.124,1.739-7.011,4.738-6.65,8.092    c-0.684,0.615-1.288,1.354-1.795,2.108c-3.064,4.557-4.328,10.266-3.589,15.7l-0.057,0.109    c0.062,11.753,0.064,23.507,0.065,35.262c1.076,0.022,2.146,0.037,3.185-0.079c0.777-0.086,1.536-0.244,2.264-0.532    c1.337-0.53,2.687-1.021,4.045-1.497c1.04-0.364,2.082-0.72,3.137-1.064c1.155-0.377,2.274-0.679,3.248-0.771    c0.482-3.866,0.68-7.766,0.589-11.66c-0.133-0.111-0.265-0.219-0.395-0.325c-0.7-0.566-1.412-1.158-2.098-1.782    c-1.347-1.224-2.59-2.581-3.412-4.179c-1.198-2.329-1.556-4.977-3.26-6.983c0.385-1.245,0.451-2.567,0.502-3.873    c0.091-2.302,0.182-4.604,0.273-6.906c0.699-1.438,1.341-2.904,1.922-4.394c0.226-0.579,0.695-1.577,1.132-2.681    c8.023,5.183,17.183,8.59,26.641,9.927c0.053,1.352,0.106,2.703,0.16,4.054c0.029,0.755,0.067,1.516,0.163,2.265    c-0.196,0.018-0.395,0.034-0.594,0.051c-0.517,2.844-2.459,5.827-3.63,8.498c-0.635,1.39-1.361,2.717-2.279,3.895    c-0.653,0.837-1.4,1.601-2.293,2.246c-0.241,0.175-0.498,0.335-0.751,0.501c-0.007,0.108-0.026,0.214-0.06,0.319    c-0.317,3.395-0.048,6.844,0.81,10.144c0.073,0.283,0.158,0.569,0.249,0.854c1.116-0.035,2.515,0.326,3.965,0.799    c1.482,0.483,2.943,0.992,4.396,1.519c0.932,0.338,1.862,0.677,2.784,1.042c0.325,0.129,0.665,0.22,1.017,0.286    c0.889,0.167,1.846,0.168,2.795,0.175v-30.372c0.172-0.445,0.332-0.895,0.474-1.351    C318.663,186.751,317.596,179.491,313.863,173.942z M275.833,192.529c0.324-0.628,0.679-1.243,1.041-1.852    c0.115,0.505,0.216,1.013,0.291,1.525c0.122,0.833,0.189,1.675,0.206,2.518c-0.132-0.034-0.33-0.056-0.86-0.213    c-0.503-0.149-0.958-0.166-1.415-0.319C275.304,193.621,275.555,193.069,275.833,192.529z M311.801,194.289    c0.004-0.121,0.008-0.241,0.015-0.362c0.064-1.094,0.22-2.182,0.464-3.25c0.044,0.074,0.087,0.148,0.131,0.223    c0.521,0.88,1.025,1.772,1.423,2.707C313.261,193.945,312.565,194.151,311.801,194.289z" originalFill="#B17F4A"/>
		<defs>
			<filter id="Adobe_OpacityMaskFilter_32_" filterUnits="userSpaceOnUse" x="315.248" y="237.868" width="7.596" height="3.698">
				<feFlood style="flood-color:white;flood-opacity:1" result="back"/>
				<feBlend in="SourceGraphic" in2="back" mode="normal"/>
			</filter>
		</defs>
		<mask maskUnits="userSpaceOnUse" x="315.248" y="237.868" width="7.596" height="3.698" id="SVGID_49_">
			<g filter="url(#Adobe_OpacityMaskFilter_32_)">
				<defs>
					<filter id="Adobe_OpacityMaskFilter_33_" filterUnits="userSpaceOnUse" x="315.248" y="237.868" width="7.596" height="3.698">
						<feFlood style="flood-color:white;flood-opacity:1" result="back"/>
						<feBlend in="SourceGraphic" in2="back" mode="normal"/>
					</filter>
				</defs>
				<mask maskUnits="userSpaceOnUse" x="315.248" y="237.868" width="7.596" height="3.698" id="SVGID_49_">
					<g filter="url(#Adobe_OpacityMaskFilter_33_)">
					</g>
				</mask>
				
					<linearGradient id="SVGID_50_" gradientUnits="userSpaceOnUse" x1="7323.6211" y1="239.7168" x2="7331.2168" y2="239.7168" gradientTransform="matrix(-1 0 0 1 7646.4648 0)">
					<stop offset="0" style="stop-color:#000000"/>
					<stop offset="0.11" style="stop-color:#0F0F0F"/>
					<stop offset="0.3221" style="stop-color:#373737"/>
					<stop offset="0.6122" style="stop-color:#767676"/>
					<stop offset="0.8129" style="stop-color:#A6A6A6"/>
					<stop offset="0.8181" style="stop-color:#AAAAAA"/>
					<stop offset="0.8673" style="stop-color:#C9C9C9"/>
					<stop offset="0.915" style="stop-color:#E0E0E0"/>
					<stop offset="0.9601" style="stop-color:#EEEEEE"/>
					<stop offset="1" style="stop-color:#F2F2F2"/>
				</linearGradient>
				<path mask="url(#SVGID_49_)" fill="url(#SVGID_50_)" d="M316.326,240.641c1.944-0.963,4.562,0.299,6.518,0.925      c-0.019-1.252-0.898-1.616-1.918-2.273c-1.1-0.708-3.008-1.642-4.424-1.38c-1.759,0.325-1.287,1.701-0.847,3.178      C315.867,240.906,316.092,240.757,316.326,240.641z" originalFill="url(#SVGID_50_)"/>
			</g>
		</mask>
		
			<linearGradient id="SVGID_51_" gradientUnits="userSpaceOnUse" x1="7323.6211" y1="239.7168" x2="7331.2168" y2="239.7168" gradientTransform="matrix(-1 0 0 1 7646.4648 0)">
			<stop offset="0" style="stop-color:#F4E3D6"/>
			<stop offset="0.4833" style="stop-color:#F4DAC8"/>
			<stop offset="0.8129" style="stop-color:#F3D1BB"/>
			<stop offset="1" style="stop-color:#F3D1BB"/>
		</linearGradient>
		<path opacity="0.67" fill="url(#SVGID_51_)" d="M316.326,240.641c1.944-0.963,4.562,0.299,6.518,0.925    c-0.019-1.252-0.898-1.616-1.918-2.273c-1.1-0.708-3.008-1.642-4.424-1.38c-1.759,0.325-1.287,1.701-0.847,3.178    C315.867,240.906,316.092,240.757,316.326,240.641z" originalFill="url(#SVGID_51_)"/>
		<path fill="rgba(0, 0, 0, 1)" d="M314.686,301.738c-0.561,0.291-1.13,0.561-1.703,0.825c-0.457,0.211-0.91,0.431-1.375,0.625    c-0.823,0.345-1.66,0.655-2.503,0.947c-9.271,3.217-19.63,3.269-28.954,0.203c-0.025,0.522-0.072,1.043-0.13,1.563    c2.299,1.244,4.209,2.37,4.558,2.636c1.766,1.343,3.263,2.793,4.62,4.335c2.301,2.614,4.195,5.495,6.287,8.583    c0.027-0.042,0.054-0.083,0.081-0.125c1.252-1.948,2.505-3.897,3.758-5.846c0.323-0.504,0.651-1.012,1.082-1.428    c1.904-1.841,4.308-3.067,6.239-4.955c2.22-2.171,5.149-3.353,7.889-4.741c0.797-0.387,1.643-0.812,2.083-1.581    c0.124-0.217,0.255-0.466,0.364-0.717c0.268-0.615,0.38-1.235-0.162-1.434c-0.02-0.008-0.03-0.021-0.052-0.026    C316.087,301.008,315.387,301.375,314.686,301.738z" originalFill="#FFFFFF"/>
		<defs>
			<filter id="Adobe_OpacityMaskFilter_34_" filterUnits="userSpaceOnUse" x="292.407" y="260.145" width="4.325" height="28.282">
				<feFlood style="flood-color:white;flood-opacity:1" result="back"/>
				<feBlend in="SourceGraphic" in2="back" mode="normal"/>
			</filter>
		</defs>
		<mask maskUnits="userSpaceOnUse" x="292.407" y="260.145" width="4.325" height="28.282" id="SVGID_52_">
			<g filter="url(#Adobe_OpacityMaskFilter_34_)">
				<defs>
					
						<filter id="Adobe_OpacityMaskFilter_35_" filterUnits="userSpaceOnUse" x="292.407" y="260.145" width="4.325" height="28.282">
						<feFlood style="flood-color:white;flood-opacity:1" result="back"/>
						<feBlend in="SourceGraphic" in2="back" mode="normal"/>
					</filter>
				</defs>
				<mask maskUnits="userSpaceOnUse" x="292.407" y="260.145" width="4.325" height="28.282" id="SVGID_52_">
					<g filter="url(#Adobe_OpacityMaskFilter_35_)">
					</g>
				</mask>
				
					<linearGradient id="SVGID_53_" gradientUnits="userSpaceOnUse" x1="291.022" y1="210.4907" x2="295.3472" y2="210.4907" gradientTransform="matrix(1 0 0 -1 0 484.7764)">
					<stop offset="0" style="stop-color:#000000"/>
					<stop offset="0.11" style="stop-color:#0F0F0F"/>
					<stop offset="0.3221" style="stop-color:#373737"/>
					<stop offset="0.6122" style="stop-color:#767676"/>
					<stop offset="0.8129" style="stop-color:#A6A6A6"/>
					<stop offset="0.8181" style="stop-color:#AAAAAA"/>
					<stop offset="0.8673" style="stop-color:#C9C9C9"/>
					<stop offset="0.915" style="stop-color:#E0E0E0"/>
					<stop offset="0.9601" style="stop-color:#EEEEEE"/>
					<stop offset="1" style="stop-color:#F2F2F2"/>
				</linearGradient>
				<path mask="url(#SVGID_52_)" fill="url(#SVGID_53_)" d="M296.732,285.963c0.021-1.231-1.018-2.379-1.595-3.567      c-0.833-1.717-0.702-3.528-0.564-5.305c0.389-5.021,1.026-9.94,0.436-14.948c-0.079-0.668-0.167-1.363-0.53-1.929      c0.02-0.136-0.215-0.05-0.269,0.076c-0.897,2.106-0.545,4.434-0.6,6.653c-0.052,2.15-0.354,4.242-0.65,6.369      c-0.348,2.501-0.534,5.026-0.553,7.552c-0.005,0.665,0.05,7.53,0.44,7.554C295.042,288.554,296.711,287.194,296.732,285.963z" originalFill="url(#SVGID_53_)"/>
			</g>
		</mask>
		
			<linearGradient id="SVGID_54_" gradientUnits="userSpaceOnUse" x1="291.022" y1="210.4907" x2="295.3472" y2="210.4907" gradientTransform="matrix(1 0 0 -1 0 484.7764)">
			<stop offset="0" style="stop-color:#F4E3D6"/>
			<stop offset="0.4833" style="stop-color:#F4DAC8"/>
			<stop offset="0.8129" style="stop-color:#F3D1BB"/>
			<stop offset="1" style="stop-color:#F3D1BB"/>
		</linearGradient>
		<path opacity="0.67" fill="url(#SVGID_54_)" d="M296.732,285.963c0.021-1.231-1.018-2.379-1.595-3.567    c-0.833-1.717-0.702-3.528-0.564-5.305c0.389-5.021,1.026-9.94,0.436-14.948c-0.079-0.668-0.167-1.363-0.53-1.929    c0.02-0.136-0.215-0.05-0.269,0.076c-0.897,2.106-0.545,4.434-0.6,6.653c-0.052,2.15-0.354,4.242-0.65,6.369    c-0.348,2.501-0.534,5.026-0.553,7.552c-0.005,0.665,0.05,7.53,0.44,7.554C295.042,288.554,296.711,287.194,296.732,285.963z" originalFill="url(#SVGID_54_)"/>
		<defs>
			<filter id="Adobe_OpacityMaskFilter_36_" filterUnits="userSpaceOnUse" x="294.059" y="293.496" width="2.802" height="6.74">
				<feFlood style="flood-color:white;flood-opacity:1" result="back"/>
				<feBlend in="SourceGraphic" in2="back" mode="normal"/>
			</filter>
		</defs>
		<mask maskUnits="userSpaceOnUse" x="294.059" y="293.496" width="2.802" height="6.74" id="SVGID_55_">
			<g filter="url(#Adobe_OpacityMaskFilter_36_)">
				<defs>
					<filter id="Adobe_OpacityMaskFilter_37_" filterUnits="userSpaceOnUse" x="294.059" y="293.496" width="2.802" height="6.74">
						<feFlood style="flood-color:white;flood-opacity:1" result="back"/>
						<feBlend in="SourceGraphic" in2="back" mode="normal"/>
					</filter>
				</defs>
				<mask maskUnits="userSpaceOnUse" x="294.059" y="293.496" width="2.802" height="6.74" id="SVGID_55_">
					<g filter="url(#Adobe_OpacityMaskFilter_37_)">
					</g>
				</mask>
				<linearGradient id="SVGID_56_" gradientUnits="userSpaceOnUse" x1="294.0586" y1="296.8662" x2="296.8608" y2="296.8662">
					<stop offset="0" style="stop-color:#000000"/>
					<stop offset="0.11" style="stop-color:#0F0F0F"/>
					<stop offset="0.3221" style="stop-color:#373737"/>
					<stop offset="0.6122" style="stop-color:#767676"/>
					<stop offset="0.8129" style="stop-color:#A6A6A6"/>
					<stop offset="0.8181" style="stop-color:#AAAAAA"/>
					<stop offset="0.8673" style="stop-color:#C9C9C9"/>
					<stop offset="0.915" style="stop-color:#E0E0E0"/>
					<stop offset="0.9601" style="stop-color:#EEEEEE"/>
					<stop offset="1" style="stop-color:#F2F2F2"/>
				</linearGradient>
				<path mask="url(#SVGID_55_)" fill="url(#SVGID_56_)" d="M296.389,293.586c-0.48-0.09-0.973-0.113-1.459-0.068      c-0.223,0.021-0.464,0.064-0.615,0.23c-0.132,0.144-0.168,0.35-0.192,0.543c-0.235,1.92,0.189,3.915,1.187,5.573      c0.137,0.227,0.408,0.478,0.625,0.326c0.113-0.079,0.142-0.232,0.16-0.37c0.25-1.856,0.5-3.714,0.75-5.571      c0.021-0.161,0.039-0.34-0.057-0.471C296.698,293.657,296.537,293.614,296.389,293.586z" originalFill="url(#SVGID_56_)"/>
			</g>
		</mask>
		<linearGradient id="SVGID_57_" gradientUnits="userSpaceOnUse" x1="294.0586" y1="296.8662" x2="296.8608" y2="296.8662">
			<stop offset="0" style="stop-color:#F4E3D6"/>
			<stop offset="0.4833" style="stop-color:#F4DAC8"/>
			<stop offset="0.8129" style="stop-color:#F3D1BB"/>
			<stop offset="1" style="stop-color:#F3D1BB"/>
		</linearGradient>
		<path opacity="0.67" fill="url(#SVGID_57_)" d="M296.389,293.586c-0.48-0.09-0.973-0.113-1.459-0.068    c-0.223,0.021-0.464,0.064-0.615,0.23c-0.132,0.144-0.168,0.35-0.192,0.543c-0.235,1.92,0.189,3.915,1.187,5.573    c0.137,0.227,0.408,0.478,0.625,0.326c0.113-0.079,0.142-0.232,0.16-0.37c0.25-1.856,0.5-3.714,0.75-5.571    c0.021-0.161,0.039-0.34-0.057-0.471C296.698,293.657,296.537,293.614,296.389,293.586z" originalFill="url(#SVGID_57_)"/>
	</g>
</g>
</svg>